<?xml version="1.0" encoding="utf-8"?>
<!-- Generator: Adobe Illustrator 19.0.0, SVG Export Plug-In . SVG Version: 6.00 Build 0)  -->
<svg version="1.1" id="Layer_1" xmlns="http://www.w3.org/2000/svg" xmlns:xlink="http://www.w3.org/1999/xlink" x="0px" y="0px"
	 viewBox="-134 -71 730.2 475" style="enable-background:new -134 -71 730.2 475;" xml:space="preserve">
<style type="text/css">
	.st0{fill:#8C6239;}
	.st1{fill:#EFE38E;}
	.st2{fill:#F2CBA0;}
	.st3{fill:#E8B282;}
	.st4{fill:#1B1464;}
	.st5{fill-opacity:5.000000e-02;}
	.st6{fill:#8C4817;}
	.st7{fill:#C69C6D;}
	.st8{fill:#CCCCCC;}
	.st9{fill:#333333;}
	.st10{fill:#42210B;}
	.st11{fill:#331707;}
	.st12{fill:#D8AA19;}
	.st13{fill:#754C24;}
	.st14{fill:#29ABE2;}
	.st15{fill:#325C80;}
	.st16{fill:#DD3744;}
	.st17{fill:#FFFFFF;}
	.st18{fill:none;stroke:#B3B3B3;stroke-miterlimit:10;}
	.st19{fill:#4D4D4D;}
	.st20{fill:#FCEE21;}
	.st21{fill:#ED1E79;}
	.st22{fill:#F9F2B4;}
	.st23{fill:#4178BE;}
	.st24{fill:#666666;}
	.st25{fill:#00B4A0;}
	.st26{fill:#999999;}
	.st27{fill:#F4A2E9;}
	.st28{fill:#22B573;}
	.st29{fill:#E2AE74;}
	.st30{fill:#AF6EE8;}
	.st31{fill:#CC945C;}
	.st32{fill:#EA8FE2;}
	.st33{fill:#1A1A1A;}
</style>
<path id="XMLID_274_" class="st0" d="M142.1-36.1c-35.2-28.6-65.3,80.8-33.6,119.9c8.8,10.8,15.9,15.1,20.3,15.5l0,0
	c-4.4-2.8-9.7-22.5-14.6-46.6c-14-68.6,27.3-63.4,27.3-63.4s42.1-5.2,28.1,63.4c-5.3,26.3-10.7,44.9-16,46.6l0,0
	c5.3,0.2,12.3-3.8,21.8-15.5C207.1,44.7,177.3-64.7,142.1-36.1z"/>
<path id="XMLID_269_" class="st1" d="M156,64.4h-28.3c-9.1,0-17.2,7.8-17.2,17.3v57.6v3.7v18.3h17.2H156h15.5V143v-3.7V81.7
	C171.5,72.1,165.1,64.4,156,64.4z"/>
<path id="XMLID_268_" class="st1" d="M165,67.5c-7.2,5.3-10.1,13.5-6.5,18.3s12.2,4.4,19.4-0.9c0.3-0.2,0.6-0.5,0.9-0.8
	c0.2-0.2,0.4-0.4,0.7-0.6l37.3-27.6c3.7-2.7,5.3-6.9,3.5-9.4L214,38c-1.8-2.5-6.3-2.1-10,0.6l-37.3,27.6c-0.2,0.2-0.5,0.3-0.7,0.5
	C165.7,67.1,165.3,67.2,165,67.5z"/>
<path id="XMLID_267_" class="st1" d="M221,52c-2.4,5.5-8.9,7.9-14.3,5.5c-5.5-2.4-7.9-8.9-5.5-14.3c0.1-0.2,0.3-0.5,0.4-0.7
	s0.2-0.3,0.3-0.5l12.8-28.5c1.3-2.8,4.5-4.2,7.3-2.9l9.6,4.3c2.8,1.3,3.9,4.6,2.7,7.4l-12.8,28.5c-0.1,0.2-0.1,0.4-0.2,0.6
	C221.2,51.4,221.1,51.7,221,52z"/>
<path id="XMLID_266_" class="st2" d="M235.1-5.9L235.1-5.9c-4.7-2.1-10.2,0-12.3,4.7L220.5,4c-2.1,4.7,0,10.2,4.7,12.3l0,0
	c4.7,2.1,10.2,0,12.3-4.7l2.3-5.2C241.9,1.7,239.7-3.8,235.1-5.9z"/>
<path id="XMLID_265_" class="st3" d="M218.8-3.8L218.8-3.8c-2,0.6-3.2,2.7-2.6,4.7l2.4,8.4c0.6,2,2.7,3.2,4.7,2.6l0,0
	c2-0.6,3.2-2.7,2.6-4.7l-2.4-8.4C223-3.2,220.8-4.4,218.8-3.8z"/>
<path id="XMLID_264_" class="st4" d="M110.5,161.4v33.1v0.5v73.2c0,3.1,3.2,5.3,6.3,5.3h16.5c3.1,0,4.3-2.2,4.3-5.3v-72
	c1,0.2,2.3,0.3,3.4,0.3c1.2,0,2.6-0.1,3.6-0.4v72.1c0,3.1,2.9,5.3,6,5.3H167c3.1,0,4.5-2.2,4.5-5.3V195v-0.5v-33.1H110.5z"/>
<rect id="XMLID_208_" x="111.2" y="92.4" class="st5" width="2.8" height="181.2"/>
<polygon id="XMLID_204_" class="st5" points="145.2,195.9 147.9,195.1 148,270.3 145.2,270.3 "/>
<path id="XMLID_196_" class="st6" d="M122.8,256.9c-9.7,0-17.5,7.5-17.5,17.5h35C140.3,264.4,132.5,256.9,122.8,256.9z"/>
<path id="XMLID_193_" class="st6" d="M161.4,256.9c9.7,0,17.5,7.5,17.5,17.5h-35C143.9,264.4,151.7,256.9,161.4,256.9z"/>
<path id="XMLID_178_" class="st1" d="M113.4,64.3c7.9,4.1,12.1,11.7,9.3,17c-2.8,5.3-11.4,6.3-19.3,2.2c-0.4-0.2-0.7-0.4-1-0.6
	c-0.3-0.1-0.5-0.3-0.8-0.4L60.4,61.1c-4-2.1-6.4-6-5-8.7l4.8-9.3c1.4-2.7,5.9-3.1,10-1l41.2,21.4c0.3,0.1,0.5,0.2,0.8,0.4
	C112.7,64,113.1,64.1,113.4,64.3z"/>
<path id="XMLID_177_" class="st1" d="M54.3,53.7c2.3,5.5,8.6,8.2,14.2,5.9c5.5-2.3,8.2-8.6,5.9-14.2c-0.1-0.2-0.3-0.5-0.4-0.7
	c-0.1-0.2-0.2-0.3-0.3-0.5L61.8,15.3c-1.2-2.8-4.3-4.3-7.2-3.2l-9.7,4c-2.8,1.2-4.1,4.5-2.9,7.3l11.9,28.9c0.1,0.2,0.1,0.4,0.2,0.6
	C54.2,53.2,54.2,53.4,54.3,53.7z"/>
<path id="XMLID_172_" class="st2" d="M42-4.6L42-4.6c4.7-2,10.2,0.3,12.2,5.1l2.2,5.3c2,4.7-0.3,10.2-5.1,12.2l0,0
	c-4.7,2-10.2-0.3-12.2-5.1l-2.2-5.3C35,2.8,37.3-2.6,42-4.6z"/>
<path id="XMLID_161_" class="st3" d="M57.1-4.1L57.1-4.1c2.1,0.3,3.6,2.2,3.3,4.3l-1.1,8.6c-0.3,2.1-2.2,3.6-4.3,3.3l0,0
	c-2.1-0.3-3.6-2.2-3.3-4.3l1.1-8.6C53.1-2.8,55-4.3,57.1-4.1z"/>
<path id="XMLID_188_" class="st7" d="M228.4,11.6L228.4,11.6c-1.6,0.3-3.1-0.7-3.4-2.2l-12.8-69.1c-0.3-1.6-1-2.2,0.5-2.5l0,0
	c1.6-0.3,1.2,0.5,1.5,2.1l16.4,68.3C231,9.8,230,11.3,228.4,11.6z"/>
<circle id="XMLID_189_" class="st8" cx="212.8" cy="-61.9" r="2"/>
<path id="XMLID_160_" class="st2" d="M149.4,65.8l-16.1,0.1c-5.6,0-4.5-0.8-4.5-6.5v-1c0-5.6,4.6-10.2,10.2-10.2h4.7
	c5.6,0,10.2,4.6,10.2,10.2v1C154,65.2,155.1,65.8,149.4,65.8z"/>
<path id="XMLID_158_" class="st2" d="M154,64.7c0,4.3-5.6,7.8-12.6,7.8s-12.6-3.5-12.6-7.8s5.6-3.2,12.6-3.2S154,60.4,154,64.7z"/>
<ellipse id="XMLID_159_" class="st3" cx="141.4" cy="56.9" rx="12.6" ry="7.8"/>
<path id="XMLID_198_" class="st7" d="M48.2,11.7L48.2,11.7c-1.6-0.3-2.6-1.9-2.3-3.4l15.8-68.4c0.3-1.6-0.1-2.4,1.5-2.1l0,0
	c1.6,0.3,0.9,1,0.5,2.5L51.5,9.5C51.3,11,49.8,12,48.2,11.7z"/>
<circle id="XMLID_197_" class="st8" cx="62.7" cy="-61" r="2"/>
<path id="XMLID_157_" class="st2" d="M175.2-5.3c0-15.7-12.9-26.6-28.6-26.6h-11c-15.1,0-27.4,10.3-27.4,25.4v34.2H108
	c0,0.1-0.1,0.1-0.1,0.2c0,18.7,15.1,33.8,33.7,33.8c18.7,0,33.7-15.1,33.7-33.8c0-0.1-0.1-0.1-0.1-0.2h-0.1v-33H175.2z"/>
<g id="XMLID_153_">
	<circle id="XMLID_154_" class="st9" cx="128.1" cy="12.4" r="4.5"/>
	<circle id="XMLID_207_" class="st9" cx="154.7" cy="12.4" r="4.5"/>
</g>
<path id="XMLID_209_" class="st3" d="M141.8,31.4L141.8,31.4c-1.8,0-3.3-2.3-3.3-5.2V9.8c0-2.9,1.5-5.2,3.3-5.2l0,0
	c1.8,0,3.3,2.3,3.3,5.2v16.4C145.1,29.1,143.6,31.4,141.8,31.4z"/>
<path id="XMLID_210_" class="st3" d="M143.9,31.4h-4.3c-1.7,0-3.1-2.2-3.1-4.9l0,0c0-2.6,1.4-4.9,3.1-4.9h4.3c1.7,0,3.1,2.2,3.1,4.9
	l0,0C147,29.3,145.6,31.4,143.9,31.4z"/>
<ellipse id="XMLID_215_" class="st10" cx="105.3" cy="12" rx="6.9" ry="10.3"/>
<ellipse id="XMLID_212_" class="st11" cx="105.3" cy="12" rx="3.9" ry="6"/>
<ellipse id="XMLID_243_" class="st3" cx="176.3" cy="13.2" rx="6.9" ry="10.3"/>
<path id="XMLID_152_" class="st0" d="M111.1-2.7c-0.1-24.6,30.3-19.5,30.3-19.5S171.1-35,175.6-1.9l8.1-0.8
	c-7.9-29-24.1-47.4-41.6-33.1c-17.5-14.2-33.7,4.1-41.7,33.1H111.1z"/>
<ellipse id="XMLID_211_" class="st11" cx="176.3" cy="13.2" rx="3.9" ry="6"/>
<g id="XMLID_148_">
	<path id="XMLID_151_" class="st12" d="M89.1,95.1c1.4,0,2.7-0.4,3.8-1.2C89.1,94.8,86.6,95.1,89.1,95.1z"/>
	<path id="XMLID_150_" class="st12" d="M189.2,79.8c5.1-6.9,11.6-21.8-6.4-27.1c-18-5.3,10-40.4,10-40.4s1.6-11.7-3.6-23
		c-21.8-47.9-47.5-18.1-47.5-18.1l0,0c-3.1-3.1-26.9-26.5-47.2,18.1c-5.1,11.3-3.6,23-3.6,23s28,35.1,10,40.4
		c-18,5.3-11.5,20.2-6.4,27.1c4,5.3,2.2,11.6-1.7,14.2c5.6-1.3,14.1-3.9,13.1-8.7c-1.7-8-10.3-14.2-7.6-23.4s27.2-19,14.6-36.2
		C96,2.9,119-38,141.6-16.2v0.6c0.1-0.1,0.2-0.2,0.3-0.3c0.1,0.1,0.3,0.2,0.4,0.4v-0.7c22.7-21.9,45.4,19.1,28.5,42
		c-12.7,17.1,11.9,27,14.6,36.2s-6,15.4-7.6,23.4c-1,4.8,7.5,7.3,13.1,8.7C187.1,91.4,185.3,85.1,189.2,79.8z"/>
	<path id="XMLID_149_" class="st12" d="M190.9,94c1.1,0.7,2.4,1.2,3.8,1.2C197.2,95.1,194.7,94.8,190.9,94z"/>
</g>
<g id="XMLID_117_">
	<path id="XMLID_147_" class="st13" d="M95.3,98.7c1.4,0,2.7-0.4,3.8-1.2C95.3,98.4,92.8,98.7,95.3,98.7z"/>
	<path id="XMLID_146_" class="st13" d="M184.7,97.6c1.1,0.7,2.4,1.2,3.8,1.2C190.9,98.7,188.5,98.4,184.7,97.6z"/>
	<path id="XMLID_145_" class="st13" d="M183,83.4c5.1-6.9,11.4-21.2-6.5-27.1c-17.2-5.7,10-40.4,10-40.4s1.5-11.7-3.7-23
		C161-55,141.7-26.4,141.7-26.4l0,0c-3.3-3.9-21.1-24-40.8,19.3c-5.1,11.3-3.7,23-3.7,23s27.2,34.8,10,40.4
		c-17.9,5.8-11.6,20.2-6.5,27.1c4,5.3,2.2,11.6-1.7,14.2c5.6-1.3,14.1-3.9,13.1-8.7c-1.7-8-10.3-14.2-7.7-23.4
		c2.7-9.2,27.4-19,14.8-36.2c-17-23.1,0.3-64.3,23.3-40.9l0,0c22.6-21.3,38.7,18.1,21.9,40.9c-12.7,17.1,12.1,27,14.8,36.2
		c2.7,9.2-6,15.4-7.7,23.4c-1,4.8,7.5,7.3,13.1,8.7C180.8,95,179,88.7,183,83.4z"/>
</g>
<path id="XMLID_115_" class="st14" d="M460.8,151.4h-26.1c-8.4,0-15.2,6.3-15.2,15.2v53.1v3.4v16.3h15.2h26.1h14.7v-16.3v-3.4v-53.1
	C475.5,157.7,469.2,151.4,460.8,151.4z"/>
<path id="XMLID_114_" class="st15" d="M419.5,239.4v31.2v0.4v67.5c0,2.8,2.3,4.9,5.1,4.9h15.2c2.8,0,4.7-2,4.7-4.9V272
	c1,0.2,1.9,0.3,2.9,0.3c1.1,0,2.1-0.1,3.1-0.3v66.5c0,2.8,2.4,4.9,5.2,4.9H471c2.8,0,4.5-2,4.5-4.9V271v-0.4v-31.2H419.5z"/>
<path id="XMLID_113_" class="st14" d="M481.4,157c-6.2-5.4-14.2-6.3-17.8-2.2c-3.6,4.2-1.5,11.9,4.7,17.3c0.3,0.2,0.6,0.4,0.9,0.6
	c0.2,0.2,0.4,0.3,0.6,0.5l32.4,28c3.2,2.8,7.3,3.4,9.1,1.3l6.4-7.3c1.9-2.1,0.6-6.1-2.6-8.9l-32.4-28c-0.2-0.2-0.4-0.4-0.6-0.6
	C481.9,157.5,481.6,157.2,481.4,157z"/>
<rect id="XMLID_110_" x="419.4" y="176.4" class="st5" width="2.6" height="167.2"/>
<path id="XMLID_109_" class="st14" d="M509.6,205.1c-5.5-0.6-9.5-5.5-8.9-11s5.5-9.5,11-8.9c0.2,0,0.5,0.1,0.7,0.2
	c0.2,0,0.4,0.1,0.5,0.1l28.7,3.1c2.8,0.3,5,2.7,4.7,5.5l-1,9.7c-0.3,2.8-2.9,4.7-5.7,4.4l-28.7-3.1c-0.2,0-0.4,0-0.5,0
	C510.1,205,509.9,205.1,509.6,205.1z"/>
<path class="st2" d="M458.8,142c0-5.6-4.7-10.1-10.8-10.1h-0.1c-6.1,0-12.1,4.5-12.1,10.1v8.9c0,4.1,5.8,9.1,12,9.1s11-5,11-9.1
	L458.8,142L458.8,142z"/>
<ellipse id="XMLID_107_" class="st3" cx="447.3" cy="142.6" rx="11.2" ry="8"/>
<polygon id="XMLID_104_" class="st5" points="450.8,271.9 453.3,271.1 453.4,340.6 450.8,340.6 "/>
<path id="XMLID_103_" class="st10" d="M430.2,328.2c-8.9,0-16.2,7.2-16.2,16.2h32.3C446.3,335.4,439.1,328.2,430.2,328.2z"/>
<path id="XMLID_19_" class="st2" d="M564.2,200.1L564.2,200.1c0,4.7-3.9,8.6-8.6,8.6h-5.3c-4.7,0-8.6-3.9-8.6-8.6l0,0
	c0-4.7,3.9-8.6,8.6-8.6h5.3C560.3,191.5,564.2,195.4,564.2,200.1z"/>
<path id="XMLID_102_" class="st10" d="M465.8,328.2c8.9,0,16.2,7.2,16.2,16.2h-32.3C449.6,335.4,456.9,328.2,465.8,328.2z"/>
<g id="XMLID_88_">
	<path id="XMLID_101_" class="st16" d="M408.3,186.2c0,0,8.4-4.2,20.6,0c12.2,4.2,13,6.4,26.7,0s27.2-5.2,25.2-0.2
		c-2,5-18.5,5-9,16.9l81.6-7.5l4.3-5.8l27.4,2.7l4.8,8.3L562,210c0,0,0,0-5.5-8l-93.4,12.5c0,0-8,7.2,1.7,12.5c0,0,20.9,3,0,9.9
		c0,0-18.9-7-29.6,1.2s-31.1,12.2-35.4-2.5C395.4,220.8,392.1,195.9,408.3,186.2z"/>
	<path id="XMLID_100_" class="st17" d="M431.4,200.7c6.6,1.3,12.7,1.6,22.6-2.9c9.9-4.6,13.7,1.5,10.6,3.8c-2.7,2-3,5-3,5l-2.8,7.8
		c0,0-5.2,9,1.8,12.9c0,0,19.1,3.1,4,8.1c0,0-22.4-6.8-30.1-0.9c-7.7,5.9-12.9-7.6-14.4-18.8C419.5,210.1,427,199.8,431.4,200.7z"/>
	<g id="XMLID_90_">
		<g id="XMLID_93_">
			<line id="XMLID_99_" class="st18" x1="429.5" y1="207.3" x2="454.4" y2="205.5"/>
			<line id="XMLID_98_" class="st18" x1="429.5" y1="209.3" x2="454.4" y2="207.5"/>
			<line id="XMLID_97_" class="st18" x1="429.5" y1="211.3" x2="454.4" y2="209.5"/>
			<line id="XMLID_96_" class="st18" x1="429.5" y1="213.3" x2="454.4" y2="211.5"/>
			<line id="XMLID_95_" class="st18" x1="429.5" y1="215.3" x2="454.4" y2="213.5"/>
			<line id="XMLID_94_" class="st18" x1="429.5" y1="217.3" x2="454.4" y2="215.5"/>
		</g>
		<rect id="XMLID_92_" x="427.3" y="205.5" class="st19" width="3.5" height="14.5"/>
		<rect id="XMLID_91_" x="453.4" y="203.1" class="st19" width="3.5" height="14.5"/>
	</g>
	<polygon id="XMLID_89_" class="st7" points="471.8,202.9 469.2,213.7 556.5,201.9 553.3,195.4 	"/>
</g>
<path id="XMLID_87_" class="st14" d="M411.2,158.9c4.6-6.8,12-9.9,16.6-6.8c4.6,3.1,4.6,11.1,0.1,17.9c-0.2,0.3-0.5,0.6-0.7,0.9
	c-0.1,0.2-0.3,0.4-0.5,0.7l-23.8,35.7c-2.3,3.5-6.1,5.2-8.5,3.7l-8.1-5.4c-2.4-1.6-2.2-5.7,0.1-9.2l23.8-35.7
	c0.2-0.2,0.3-0.5,0.4-0.7C410.9,159.5,411,159.2,411.2,158.9z"/>
<path id="XMLID_86_" class="st14" d="M398.4,191.9c-5.3-1.7-10.9,1.3-12.6,6.5c-1.7,5.3,1.3,10.9,6.5,12.6c0.2,0.1,0.5,0.1,0.7,0.1
	c0.2,0.1,0.4,0.1,0.5,0.1l27.5,8.7c2.7,0.8,5.6-0.5,6.5-3.2l2.9-9.3c0.8-2.7-0.8-5.5-3.5-6.4l-27.5-8.7c-0.2-0.1-0.3-0.2-0.5-0.2
	C398.8,192.1,398.6,191.9,398.4,191.9z"/>
<path id="XMLID_85_" class="st3" d="M442,207.5L442,207.5c0,1.9-1.5,3.6-3.5,3.6l-8,0.1c-1.9,0-3.6-1.5-3.6-3.5l0,0
	c0-1.9,1.5-3.6,3.5-3.6l8-0.1C440.4,204,442,205.6,442,207.5z"/>
<path id="XMLID_84_" class="st2" d="M447,217.6L447,217.6c-1.4,4.5-6.3,7-10.8,5.6l-5-1.6c-4.5-1.4-7-6.3-5.6-10.8l0,0
	c1.4-4.5,6.3-7,10.8-5.6l5,1.6C445.9,208.2,448.4,213.1,447,217.6z"/>
<g id="XMLID_81_">
	<ellipse id="XMLID_83_" class="st2" cx="485.6" cy="102.3" rx="7.3" ry="7.9"/>
	<ellipse id="XMLID_82_" class="st3" cx="485.6" cy="102.3" rx="4.1" ry="4.6"/>
</g>
<g id="XMLID_78_">
	<ellipse id="XMLID_80_" class="st2" cx="409.4" cy="102.3" rx="7.3" ry="7.9"/>
	<ellipse id="XMLID_79_" class="st3" cx="409.4" cy="102.3" rx="4.1" ry="4.6"/>
</g>
<g id="XMLID_61_">
	<path id="XMLID_77_" class="st20" d="M414.2,62.9c-4.7,6.7-7.5,14.9-7.5,23.7c0,22.7,18.2,41,40.7,41s40.7-18.4,40.7-41
		c0-8.8-2.7-16.9-7.4-23.6c-8.4,2.9-20.2,4.6-33.1,4.6C434.5,67.7,422.7,65.9,414.2,62.9z"/>
	<ellipse id="XMLID_76_" class="st2" cx="447.4" cy="99.9" rx="38.3" ry="45.7"/>
	<path id="XMLID_75_" class="st20" d="M447.4,45.6c-13.7,0-25.9,6.8-33.2,17.3c8.5,2.9,20.3,4.7,33.4,4.7c13,0,24.7-1.8,33.1-4.6
		C473.4,52.5,461.2,45.6,447.4,45.6z"/>
	<path id="XMLID_74_" class="st3" d="M447.4,116.4L447.4,116.4c-2.5,0-4.5-2-4.5-4.5V91.1c0-2.5,2-4.5,4.5-4.5l0,0
		c2.5,0,4.5,2,4.5,4.5v20.8C451.9,114.4,449.9,116.4,447.4,116.4z"/>
	<path id="XMLID_70_" d="M473.8,90.6h-23c-1.2,0-2.6,0.3-2.6,1.5v3.5h-3v-3.5c0-1.2,0.3-1.5-0.9-1.5h-23c-1.2,0-2.1,0.3-2.1,1.5v12
		c0,1.2,0.9,1.6,2.1,1.6h23c1.2,0,0.9-0.4,0.9-1.6v-5.4h3v5.4c0,1.2,1.4,1.6,2.6,1.6h23c1.2,0,1.4-0.4,1.4-1.6v-12
		C475.2,90.9,475,90.6,473.8,90.6z M444.2,103.5c0,1.2-0.9,2.1-2.1,2.1h-19.8c-1.2,0-2.1-0.9-2.1-2.1v-8.8c0-1.2,0.9-2.1,2.1-2.1
		h19.8c1.2,0,2.1,0.9,2.1,2.1V103.5z M474.2,103.5c0,1.2-0.9,2.1-2.1,2.1h-19.8c-1.2,0-2.1-0.9-2.1-2.1v-8.8c0-1.2,0.9-2.1,2.1-2.1
		h19.8c1.2,0,2.1,0.9,2.1,2.1V103.5z"/>
	<g id="XMLID_67_">
		<ellipse id="XMLID_69_" class="st9" cx="434" cy="97.5" rx="5.5" ry="5.3"/>
		<ellipse id="XMLID_68_" class="st9" cx="460.9" cy="97.2" rx="5.5" ry="5.3"/>
	</g>
	<path id="XMLID_66_" class="st9" d="M438.6,132.6c2.1-1.7,5.3-3.1,8.8-3.1c3.6,0,6.8,1.5,8.9,3.3c1.8-1.8,2.9-4.3,3.1-6.3h-23.9
		C435.7,128.6,436.8,130.9,438.6,132.6z"/>
	<path id="XMLID_65_" class="st21" d="M438.6,132c2.2,2.2,5.3,3.6,8.8,3.6s6.6-1.4,8.8-3.6c-2.1-1.7-5.3-2.8-8.9-2.8
		C443.8,129.3,440.7,130.4,438.6,132z"/>
	<path id="XMLID_64_" class="st17" d="M459.5,125.6v-1.1C459.5,124.8,459.4,125.2,459.5,125.6L459.5,125.6z"/>
	<path id="XMLID_63_" class="st17" d="M435.6,125.6L435.6,125.6c-0.1-0.4,0-0.8,0-1.1V125.6z"/>
	<path id="XMLID_62_" class="st17" d="M459.2,124v-4.4H458h-21.2h-1.6v3.7c0,0.4,0.1,1.4,0.1,1.8c0,0.3,0.2,0.5,0.2,1.5h23.9
		c0-1-0.1-1.2-0.1-1.5C459.3,124.9,459.2,124.1,459.2,124z"/>
</g>
<g id="XMLID_17_">
	<g id="XMLID_15_">
		<path id="XMLID_3_" class="st15" d="M290.3,260.8L234.8,223l2.3-120.7c0,0,42.1-8.3,35.8-17.9c-7.2-10.9-79.6,2.9-68.8,15.6
			c3.1,3.7,19.9,1.5,24.8,3.2L226.1,223l-15.1,7.8l0.9,3.5h5.5l-30.7,44.3l8.7,3.3l34.8-47.1l50.4,27.4L290.3,260.8z"/>
		<path id="XMLID_14_" class="st22" d="M235.9,105.7c0,0,58.5-16.4,46.5-26.1c-12-9.7-107.5,12.6-87.5,19.9
			c17.8,6.5,27.9,5.2,30.6,7.1"/>
	</g>
	<path id="XMLID_4_" class="st15" d="M83,236.7c0,0,0-61.3,53.6-62.9s59.5,56.3,59.5,56.3s9.5,61.9-48.2,68.6
		C87.3,305.6,83,236.7,83,236.7z"/>
	<path id="XMLID_6_" class="st8" d="M131.1,177.4l3.3-29.3l-8-2.6l4-12.8c0,0,6.6,4.3,16.9,0L151,146l-8,2l3.2,29.4H131.1z"/>
	<path id="XMLID_7_" class="st23" d="M134,120.4L119.2,171c0,0-42.6,16.7-58.5-18l15.2-44.8C75.9,108.2,107.3,95.2,134,120.4z"/>
	<path id="XMLID_5_" class="st23" d="M88,237.2c0,0,0-55.8,48.8-57.3s54.2,51.3,54.2,51.3s8.7,56.4-43.9,62.5
		C91.9,300,88,237.2,88,237.2z"/>
	<path id="XMLID_9_" class="st15" d="M73.4,115.6c0,0,25.3-11.5,58.1,13.4l2.5-8.6c0,0-22.4-25.6-58.1-12.3L73.4,115.6z"/>
	<path id="XMLID_10_" class="st15" d="M60.7,153c0,0,25.5-12.6,59.4,17l1.9-8.5c0,0-21.9-28.4-58.3-17.3L60.7,153z"/>
	<path id="XMLID_12_" class="st23" d="M143.5,123l14.1,48.2c0,0,40.6,15.9,55.7-17.2l-14.5-42.7C198.9,111.3,169,98.9,143.5,123z"/>
	<path id="XMLID_11_" class="st15" d="M201.3,118.4c0,0-24.1-11-55.4,12.8l-2.4-8.2c0,0,21.3-24.4,55.4-11.7L201.3,118.4z"/>
	<path id="XMLID_8_" class="st15" d="M213.4,154c0,0-24.3-12-56.6,16.2l-1.8-8.1c0,0,20.9-27.1,55.5-16.5L213.4,154z"/>
	<g id="XMLID_2_">
		<path id="XMLID_13_" class="st15" d="M-15.1,280.8l64.8-44.2L47,95.5c0,0-53.6-14.4-41.8-20.9s99.4,13.9,80.4,18.2
			c-17,3.8-26.3,2.5-28.9,3.7l3.2,140l17.7,9.4l-1.1,4.3h-6.4l35.9,51.6l-10.2,3.7l-40.7-55.1l-58.9,32L-15.1,280.8z"/>
		<path id="XMLID_16_" class="st22" d="M45.5,97c0,0-61-16.5-47.6-23.8S111.1,89.1,89.5,94c-19.4,4.4-29.9,2.8-33,4.3"/>
	</g>
	<path id="XMLID_181_" class="st13" d="M69.9,216.2L69.9,216.2c0.8-1.8,0-3.9-1.8-4.7l-7.3-3.3c-1.8-0.8-3.9,0-4.7,1.8l0,0
		c-0.8,1.8,0,3.9,1.8,4.7l7.3,3.3C67,218.7,69.1,217.9,69.9,216.2z"/>
</g>
<g id="XMLID_1_">
	<path id="XMLID_182_" class="st24" d="M-25.2,159.4h-26.1c-8.4,0-15.2,6.3-15.2,15.2v53.1v3.4v16.3h15.2h26.1h14.7v-16.3v-3.4
		v-53.1C-10.5,165.7-16.8,159.4-25.2,159.4z"/>
	<path id="XMLID_194_" class="st15" d="M-66.5,247.4v31.2v0.4v67.5c0,2.8,2.3,4.9,5.1,4.9h15.2c2.8,0,4.7-2,4.7-4.9V280
		c1,0.2,1.9,0.3,2.9,0.3c1.1,0,2.1-0.1,3.1-0.3v66.5c0,2.8,2.4,4.9,5.2,4.9H-15c2.8,0,4.5-2,4.5-4.9V279v-0.4v-31.2H-66.5z"/>
	<path id="XMLID_183_" class="st24" d="M-4.6,165c-6.2-5.4-14.2-6.3-17.8-2.2c-3.6,4.2-1.5,11.9,4.7,17.3c0.3,0.2,0.6,0.4,0.9,0.6
		c0.2,0.2,0.4,0.3,0.6,0.5l32.4,28c3.2,2.8,7.3,3.4,9.1,1.3l6.4-7.3c1.9-2.1,0.6-6.1-2.6-8.9l-32.4-28c-0.2-0.2-0.4-0.4-0.6-0.6
		C-4.1,165.5-4.4,165.2-4.6,165z"/>
	<rect id="XMLID_190_" x="-66.6" y="184.4" class="st5" width="2.6" height="167.2"/>
	<path id="XMLID_179_" class="st24" d="M23.6,213.1c-5.5-0.6-9.5-5.5-8.9-11s5.5-9.5,11-8.9c0.2,0,0.5,0.1,0.7,0.2
		c0.2,0,0.4,0.1,0.5,0.1l28.7,3.1c2.8,0.3,5,2.7,4.7,5.5l-1,9.7c-0.3,2.8-2.9,4.7-5.7,4.4l-28.7-3.1c-0.2,0-0.4,0-0.5,0
		C24.1,213,23.9,213.1,23.6,213.1z"/>
	<path id="XMLID_180_" class="st0" d="M78.4,208.9L78.4,208.9c0.5-4.7-2.9-9-7.6-9.5l-5.2-0.6c-4.7-0.5-9,2.9-9.5,7.6l0,0
		c-0.5,4.7,2.9,9,7.6,9.5l5.2,0.6C73.7,217.1,77.9,213.6,78.4,208.9z"/>
	<path id="XMLID_47_" class="st0" d="M-27.5,147.5c0-5.6-4.7-10.1-10.8-10.1h-0.1c-6.1,0-12.1,4.5-12.1,10.1v8.9
		c0,0.4,0.5,0.7,0.5,1c0,0.2,0.2,0.5,0.2,0.7c0,4.1,5.1,7.4,11.3,7.4s11.2-3.3,11.2-7.4c0-0.3-0.1-0.5-0.2-0.7c0-0.3,0-0.7,0-1
		V147.5z"/>
	<ellipse id="XMLID_174_" class="st13" cx="-38.4" cy="145.8" rx="11.2" ry="8"/>
	<polygon id="XMLID_191_" class="st5" points="-35.2,279.9 -32.7,279.1 -32.6,348.6 -35.2,348.6 	"/>
	<path id="XMLID_195_" class="st10" d="M-55.8,336.2c-8.9,0-16.2,7.2-16.2,16.2h32.3C-39.7,343.4-46.9,336.2-55.8,336.2z"/>
	<path id="XMLID_192_" class="st10" d="M-20.2,336.2c8.9,0,16.2,7.2,16.2,16.2h-32.4C-36.4,343.4-29.1,336.2-20.2,336.2z"/>
	<path id="XMLID_46_" class="st25" d="M-77.7,194.2c0,0,8.4-4.2,20.6,0s13,6.4,26.7,0S-3.2,189-5.2,194s-18.5,5-9,16.9l81.6-7.5
		l4.3-5.8l27.4,2.7l4.8,8.3L76,218c0,0,0,0-5.5-8l-93.4,12.5c0,0-8,7.2,1.7,12.5c0,0,20.9,3,0,9.9c0,0-18.9-7-29.6,1.2
		s-31.1,12.2-35.4-2.5C-90.6,228.8-93.9,203.9-77.7,194.2z"/>
	<path id="XMLID_48_" class="st17" d="M-54.6,208.7c6.6,1.3,12.7,1.6,22.6-2.9c9.9-4.6,13.7,1.5,10.6,3.8c-2.7,2-3,5-3,5l-2.8,7.8
		c0,0-5.2,9,1.8,12.9c0,0,19.1,3.1,4,8.1c0,0-22.4-6.8-30.1-0.9s-12.9-7.6-14.4-18.8C-66.5,218.1-59,207.8-54.6,208.7z"/>
	<g id="XMLID_58_">
		<g id="XMLID_57_">
			<line id="XMLID_51_" class="st18" x1="-56.5" y1="215.3" x2="-31.6" y2="213.5"/>
			<line id="XMLID_52_" class="st18" x1="-56.5" y1="217.3" x2="-31.6" y2="215.5"/>
			<line id="XMLID_53_" class="st18" x1="-56.5" y1="219.3" x2="-31.6" y2="217.5"/>
			<line id="XMLID_54_" class="st18" x1="-56.5" y1="221.3" x2="-31.6" y2="219.5"/>
			<line id="XMLID_55_" class="st18" x1="-56.5" y1="223.3" x2="-31.6" y2="221.5"/>
			<line id="XMLID_56_" class="st18" x1="-56.5" y1="225.3" x2="-31.6" y2="223.5"/>
		</g>
		<rect id="XMLID_49_" x="-58.7" y="213.5" class="st19" width="3.5" height="14.5"/>
		<rect id="XMLID_50_" x="-32.6" y="211.1" class="st19" width="3.5" height="14.5"/>
	</g>
	<polygon id="XMLID_59_" class="st7" points="-14.2,210.9 -16.8,221.7 70.5,209.9 67.3,203.4 	"/>
	<path id="XMLID_187_" class="st24" d="M-59.1,160.7c7.1,4.1,10.6,11.4,7.8,16.1c-2.8,4.8-10.8,5.3-17.9,1.2
		c-0.3-0.2-0.6-0.4-0.9-0.6c-0.2-0.1-0.4-0.3-0.7-0.4l-37.1-21.6c-3.6-2.1-5.6-5.8-4.2-8.2l4.9-8.4c1.4-2.5,5.6-2.6,9.2-0.5
		l37.1,21.6c0.2,0.1,0.5,0.2,0.7,0.4C-59.8,160.4-59.5,160.5-59.1,160.7z"/>
	<path id="XMLID_186_" class="st24" d="M-118.6,146.4c0.9,5.5,6,9.2,11.5,8.3s9.2-6,8.3-11.5c0-0.2-0.2-0.5-0.2-0.7
		s-0.1-0.4-0.1-0.5l-4.7-28.5c-0.5-2.8-3-4.8-5.8-4.3l-9.6,1.6c-2.8,0.5-4.6,3.2-4.1,6l4.7,28.5c0,0.2,0,0.4,0.1,0.5
		C-118.6,145.9-118.6,146.1-118.6,146.4z"/>
	<path id="XMLID_184_" class="st0" d="M-117.4,91.4L-117.4,91.4c4.7-0.8,9.1,2.4,9.9,7.1l0.8,5.2c0.8,4.7-2.4,9.1-7.1,9.9l0,0
		c-4.7,0.8-9.1-2.4-9.9-7.1l-0.8-5.2C-125.3,96.6-122.1,92.2-117.4,91.4z"/>
	<path id="XMLID_185_" class="st13" d="M-103.4,98.1L-103.4,98.1c1.8,0.7,2.7,2.8,2,4.6l-3,7.4c-0.7,1.8-2.8,2.7-4.6,2l0,0
		c-1.8-0.7-2.7-2.8-2-4.6l3-7.4C-107.3,98.2-105.3,97.3-103.4,98.1z"/>
	<g id="XMLID_136_">
		<ellipse id="XMLID_138_" class="st0" cx="-81" cy="96.8" rx="7.6" ry="11.2"/>
		<ellipse id="XMLID_137_" class="st0" cx="-81" cy="96.8" rx="4.2" ry="6.5"/>
	</g>
	<g id="XMLID_133_">
		<ellipse id="XMLID_135_" class="st0" cx="3" cy="96.8" rx="7.6" ry="11.2"/>
		<ellipse id="XMLID_134_" class="st0" cx="3" cy="96.8" rx="4.2" ry="6.5"/>
	</g>
	<path id="XMLID_132_" class="st0" d="M-38.9,45.9c-21.3,0-38.6,22.7-38.6,50.6c0,6.8,1,13.3,2.9,19.3c7-8,20.3-13.4,35.6-13.4
		c15.4,0,28.8,5.5,35.7,13.6c1.9-6,2.9-12.5,2.9-19.4C-0.3,68.5-17.5,45.9-38.9,45.9z"/>
	<path id="XMLID_129_" class="st8" d="M-39,42c-23.1,0-41.9,23.7-41.9,52.9c0,8.3,1.5,16.1,4.2,23.1c6.8,17.6,21.1,29.8,37.6,29.8
		h0.1c0.1,0,0.2,0,0.3,0c16.3-0.1,30.3-12,37.2-29.2c2.8-7.1,4.4-15.2,4.4-23.8C2.9,65.7-15.8,42-39,42z M-39.2,100.2
		c-14.5,0-27.2,5-33.8,12.3c-1.8-5.4-2.7-11.4-2.7-17.6c0-25.6,16.4-46.3,36.7-46.3S-2.3,69.3-2.3,94.9c0,6.3-1,12.3-2.8,17.8
		C-11.8,105.2-24.6,100.2-39.2,100.2z"/>
	<ellipse id="XMLID_128_" class="st26" cx="-38.8" cy="130.4" rx="25.1" ry="21.2"/>
	<ellipse id="XMLID_127_" class="st0" cx="-38.8" cy="123.2" rx="16.3" ry="7.3"/>
	<g id="XMLID_124_">
		<circle id="XMLID_126_" class="st9" cx="-55.1" cy="89.6" r="5.4"/>
		<circle id="XMLID_125_" class="st9" cx="-22.6" cy="89.6" r="5.4"/>
	</g>
	<g id="XMLID_119_">
		<path id="XMLID_122_" class="st13" d="M-38,113.3h-1.7c-2.6,0-4.8-2.1-4.8-4.8V85.4c0-2.6,2.1-4.8,4.8-4.8h1.7
			c2.6,0,4.8,2.1,4.8,4.8v23.1C-33.2,111.2-35.4,113.3-38,113.3z"/>
		<path id="XMLID_120_" class="st13" d="M-35.8,111.7h-6.1c-2.5,0-4.5-2-4.5-4.5v-1.6c0-2.5,2-4.5,4.5-4.5h6.1c2.5,0,4.5,2,4.5,4.5
			v1.6C-31.4,109.7-33.4,111.7-35.8,111.7z"/>
	</g>
	<g id="XMLID_105_">
		<path id="XMLID_116_" class="st13" d="M-32.9,124.1h-11.9c-0.8,0-1.5-0.7-1.5-1.5V122c0-0.8,0.7-1.5,1.5-1.5h11.9
			c0.8,0,1.5,0.7,1.5,1.5v0.5C-31.3,123.4-32,124.1-32.9,124.1z"/>
		<path id="XMLID_106_" class="st13" d="M-32.9,127h-11.9c-0.8,0-1.5-0.7-1.5-1.5V125c0-0.8,0.7-1.5,1.5-1.5h11.9
			c0.8,0,1.5,0.7,1.5,1.5v0.5C-31.3,126.3-32,127-32.9,127z"/>
	</g>
</g>
<path id="XMLID_45_" class="st27" d="M347.1,120.5c0-0.6,0.1-1.1,0.1-1.7c0-16.3-7.4-30.7-18.5-38.9c0,0.4,0.1,0.7,0.1,1.1
	c0,13.1-19.7,23.8-44.1,23.8c-5.4,0-10.6-0.5-15.4-1.5c-1.5,4.9-2.3,10.1-2.3,15.5c0,0.9-0.2,1.7-0.2,2.6c0,0.2-0.3,0.4-0.3,0.6
	v45.1c0,1.8,2.1,4.2,3.9,4.2h73.8c1.9,0,3.3-2.5,3.3-4.2V122C347.5,121.5,347.4,121,347.1,120.5z"/>
<path id="XMLID_294_" class="st28" d="M320.7,179.4h-23.1c-7.5,0-14.1,8.2-14.1,18.1v59.9v3.9v19.1h14.1h23.1h12.8v-19.1v-3.9v-59.9
	C333.5,187.5,328.2,179.4,320.7,179.4z"/>
<path id="XMLID_293_" class="st28" d="M338.3,186.9c-4.7-5.1-10.7-6.1-13.4-2.1c-2.7,4-1.1,11.4,3.5,16.6c0.2,0.2,0.5,0.4,0.7,0.6
	c0.1,0.2,0.3,0.3,0.5,0.5l24.4,26.9c2.4,2.6,5.5,3.3,6.9,1.2l4.8-7c1.4-2.1,0.5-5.9-1.9-8.5l-24.4-26.9c-0.2-0.2-0.3-0.4-0.4-0.5
	C338.7,187.5,338.6,187.2,338.3,186.9z"/>
<path id="XMLID_292_" class="st28" d="M354.1,214.1c3-3.6,7.8-3.4,10.6,0.5c2.8,3.9,2.7,9.9-0.4,13.5c-0.1,0.2-0.3,0.3-0.5,0.4
	c-0.1,0.1-0.2,0.2-0.3,0.3l-15.9,18.8c-1.6,1.8-4,1.9-5.4-0.1l-5-6.8c-1.5-2-1.3-5.1,0.3-6.9l15.9-18.8c0.1-0.1,0.2-0.3,0.3-0.4
	C353.9,214.5,354,214.3,354.1,214.1z"/>
<path id="XMLID_290_" class="st29" d="M327.7,253.9l3.5,4.8c1.5,2,3.9,2.1,5.5,0.3l6.7-7.9c1.6-1.8,1.6-5,0.2-7l-3.5-4.8
	c-1.5-2-3.9-2.1-5.5-0.3l-6.7,7.9C326.4,248.8,326.3,251.9,327.7,253.9z"/>
<path id="XMLID_273_" class="st30" d="M312.3,307.4l-0.3,84c0,3.2,1.8,6,4.3,6h13.5c2.5,0,3.7-2.7,3.7-5.9v-76.1v-0.5v-34.4h-50
	v34.4v0.5v76.1c0,3.2,2.7,5.9,5.2,5.9h13.4c2.5,0,4.5-2.8,4.5-6l0.3-84H312.3z"/>
<path id="XMLID_281_" class="st8" d="M293.7,379.2c-7.9,0-14.3,7.2-14.3,18.2H308C308,386.4,301.6,379.2,293.7,379.2z"/>
<path id="XMLID_280_" class="st8" d="M325.2,379.2c7.9,0,14.3,7.2,14.3,18.2h-28.6C310.9,386.4,317.3,379.2,325.2,379.2z"/>
<path id="XMLID_140_" class="st28" d="M277.1,192.3c2.5-7.9,7.5-12.4,11.3-10.1c3.8,2.4,4.8,10.7,2.3,18.7c-0.1,0.4-0.3,0.7-0.4,1
	s-0.2,0.5-0.3,0.8l-12.9,41.4c-1.3,4.1-3.8,6.6-5.7,5.3l-6.6-4.2c-1.9-1.2-2.3-5.6-1.1-9.7l12.9-41.4c0.1-0.3,0.1-0.5,0.2-0.8
	C277,193,277,192.6,277.1,192.3z"/>
<path id="XMLID_139_" class="st28" d="M262.8,241.6c0.7,5.8,4.5,9.6,8.6,8.6c4-1,6.8-6.5,6.1-12.2c0-0.3-0.1-0.5-0.2-0.8
	c0-0.2-0.1-0.4-0.1-0.6l-3.6-30.1c-0.4-3-2.2-5-4.3-4.5l-7.1,1.7c-2.1,0.5-3.4,3.4-3,6.3l3.6,30.1c0,0.2,0,0.4,0,0.6
	C262.8,241.1,262.7,241.4,262.8,241.6z"/>
<path id="XMLID_118_" class="st29" d="M258.4,183l3.7-0.8c3.2-0.7,6.2,2,6.8,6l1.4,10.5c0.5,4-1.6,7.8-4.8,8.5l-3.7,0.8
	c-3.2,0.7-6.2-2-6.8-6l-1.4-10.5C253,187.5,255.2,183.7,258.4,183z"/>
<path id="XMLID_60_" class="st31" d="M272.3,189.4l0.3,0.2c1.5,0.9,2.1,3.1,1.4,5l-3.2,8.6c-0.7,1.9-2.5,2.7-4,1.8l-0.3-0.2
	c-1.5-0.9-2.1-3.1-1.4-5l3.2-8.6C269,189.3,270.8,188.5,272.3,189.4z"/>
<ellipse id="XMLID_44_" class="st29" cx="340.7" cy="124.6" rx="7.9" ry="8.5"/>
<ellipse id="XMLID_43_" class="st31" cx="340.7" cy="124.6" rx="4.4" ry="4.9"/>
<ellipse id="XMLID_41_" class="st29" cx="273.4" cy="124.6" rx="7.9" ry="8.5"/>
<path class="st29" d="M318.6,169.8c0-5.6-4.7-10.1-10.8-10.1h-0.1c-6.1,0-12.1,4.5-12.1,10.1v8.9c0,4.1,5.8,9.1,12,9.1s11-5,11-9.1
	L318.6,169.8L318.6,169.8z"/>
<ellipse id="XMLID_18_" class="st31" cx="307.1" cy="170.4" rx="11.2" ry="8"/>
<ellipse id="XMLID_40_" class="st31" cx="273.4" cy="124.6" rx="4.4" ry="4.9"/>
<ellipse id="XMLID_38_" class="st29" cx="307.4" cy="130.3" rx="34.1" ry="41.7"/>
<path id="XMLID_37_" class="st32" d="M328.8,81.1c0-0.4,0-0.8,0-1.1c-6.2-4.9-13.6-7.7-21.6-7.7c-17.4,0-32.2,13.6-37.8,32.5
	c4.8,1,10,1.6,15.4,1.6C309.1,106.4,328.8,95,328.8,81.1z"/>
<g id="XMLID_34_">
	<circle id="XMLID_36_" class="st9" cx="294.3" cy="125.1" r="5.6"/>
	<circle id="XMLID_35_" class="st9" cx="320.4" cy="125.1" r="5.6"/>
</g>
<path id="XMLID_33_" class="st31" d="M307.4,141L307.4,141c-1.6,0-2.9-1.3-2.9-2.9v-11.7c0-1.6,1.3-2.9,2.9-2.9l0,0
	c1.6,0,2.9,1.3,2.9,2.9v11.7C310.2,139.7,308.9,141,307.4,141z"/>
<path id="XMLID_32_" class="st33" d="M299.6,152.4c-0.7,0-1,1.9-1,3.4c0,1.3,0.3,2.2,0.8,3.4c1.8-1.1,4.7-2,7.9-2
	c3.1,0,5.9,0.6,7.7,1.6c0.5-1.1,0.8-1.7,0.8-3c0-1.5-0.4-3.4-1-3.4H299.6z"/>
<path id="XMLID_31_" class="st21" d="M314.8,152.4h1.9c0-3-2.7-5.1-6-5.1c-0.6,0-1.1,0.4-1.6,0.5
	C311.6,148.3,313.6,149.4,314.8,152.4z"/>
<path id="XMLID_28_" class="st21" d="M305.4,147.5c-0.5-0.1-1.1,0.1-1.6,0.1c-3.3,0-6,1.8-6,4.8h1.9
	C300.8,149.4,302.9,148,305.4,147.5z"/>
<path id="XMLID_25_" class="st21" d="M309.1,147.5c-0.7,0.1-1.3,0.1-1.8,0.3c-0.5-0.3-1.2,0-1.8-0.2c-2.5,0.5-4.6,1.7-5.8,4.7h15.2
	C313.6,149.4,311.6,148,309.1,147.5z"/>
<path id="XMLID_24_" class="st21" d="M307.2,163.6c3.5,0,6.5-2,7.8-4.9c-1.8-1.1-4.6-1.7-7.7-1.7c-3.2,0-6.1,0.7-7.9,1.8
	C300.8,161.6,303.8,163.6,307.2,163.6z"/>
<rect id="XMLID_23_" x="297.8" y="150.5" class="st17" width="18.9" height="3.2"/>
<path id="XMLID_22_" class="st27" d="M324.8,78.8c0-0.4,0-0.8,0-1.1c-6.2-4.9-13.6-7.7-21.6-7.7c-17.4,0-32.2,13.6-37.8,32.5
	c4.8,1,10,1.6,15.4,1.6C305,104.1,324.8,92.8,324.8,78.8z"/>
<g id="XMLID_141_">
	<path id="XMLID_142_" class="st19" d="M252.6,208.5L252.6,208.5c-3.2-2.2-3.9-6.6-1.7-9.8l12-17.1c2.2-3.2,6.6-3.9,9.8-1.7l0,0
		c3.2,2.2,3.9,6.6,1.7,9.8l-12,17.1C260.2,209.9,255.8,210.7,252.6,208.5z"/>
	<circle id="XMLID_143_" class="st24" cx="274.9" cy="176.3" r="9.6"/>
	<path id="XMLID_144_" class="st19" d="M251,211L251,211c-1.1-0.8-1.4-2.4-0.6-3.5l0,0c0.8-1.1,2.4-1.4,3.5-0.6l0,0
		c1.1,0.8,1.4,2.4,0.6,3.5l0,0C253.8,211.5,252.2,211.8,251,211z"/>
</g>
<path id="XMLID_156_" class="st21" d="M151.1,39.4C151.2,39.3,151.2,39.4,151.1,39.4L151.1,39.4c-0.4-2-3-3-6.1-3
	c-1.1,0-2.2-0.3-3.1,0c-0.9-0.2-1.9,0.2-3,0.2c-3.4,0-6.2,0.8-6.5,2.8l0,0l0,0l0,0l0,0c0.2,2,3.6,5.3,9.3,5.3
	C147.4,44.7,150.9,41.4,151.1,39.4L151.1,39.4C151.2,39.4,151.2,39.5,151.1,39.4z"/>
<path id="XMLID_155_" class="st17" d="M150.9,37.6c0,1.8-4,4.1-9.1,4.1c-5.2,0-9.3-2-9.3-3.8c0,0,3.4,0.2,9.3,0.2
	C147.3,38.1,150.9,37.6,150.9,37.6z"/>
</svg>
