<?xml version="1.0" encoding="utf-8"?>
<!-- Generator: Adobe Illustrator 19.0.0, SVG Export Plug-In . SVG Version: 6.00 Build 0)  -->
<svg version="1.1" xmlns="http://www.w3.org/2000/svg" xmlns:xlink="http://www.w3.org/1999/xlink" x="0px" y="0px"
	 viewBox="0 0 318.6 270.2" style="enable-background:new 0 0 318.6 270.2;" xml:space="preserve">
<style type="text/css">
	.st0{display:none;}
	.st1{display:inline;}
	.st2{fill:#325C80;}
	.st3{fill:#F9F2B4;}
	.st4{fill:#CCCCCC;}
	.st5{fill:#4178BE;}
	.st6{fill:#754C24;}
	.st7{fill:#C69C6D;}
	.st8{fill:#4D4D4D;}
	.st9{fill:#666666;}
	.st10{fill:#DD3744;}
	.st11{fill:#FFFFFF;}
	.st12{fill:none;stroke:#B3B3B3;stroke-miterlimit:10;}
	.st13{fill:#00B4A0;}
	.st14{fill:#F2F2F2;}
	.st15{fill:#E6E6E6;}
	.st16{fill:#B3B3B3;}
	.st17{fill:#8CC63F;}
	.st18{font-family:'AndaleMono';}
	.st19{font-size:2.0366px;}
	.st20{fill:#DBDBDB;}
	.st21{fill:#C1272D;}
	.st22{fill:#F2CBA0;}
	.st23{fill:#E8B282;}
	.st24{fill:#603813;}
	.st25{fill:#42210B;}
	.st26{fill-opacity:5.000000e-02;}
	.st27{fill:#A67C52;}
	.st28{fill:#22B573;}
	.st29{fill:#AF6EE8;}
	.st30{fill:#F7931E;}
	.st31{fill:none;}
	.st32{fill:#ED1E79;}
	.st33{fill:#333333;}
</style>
<g id="Layer_1" class="st0">
	<g id="XMLID_17_" class="st1">
		<g id="XMLID_15_">
			<path id="XMLID_3_" class="st2" d="M311.6,206.4l-55.5-37.8l2.3-120.7c0,0,42.1-8.3,35.8-17.9c-7.2-10.9-79.6,2.9-68.8,15.6
				c3.1,3.7,19.9,1.5,24.8,3.2l-2.8,119.8l-15.1,7.7l0.9,3.3h5.5L208,224.2l8.7,3.4l34.8-47.1l50.4,27.5L311.6,206.4z"/>
			<path id="XMLID_14_" class="st3" d="M257.2,51.4c0,0,58.5-16.4,46.5-26.1c-12-9.7-107.5,12.6-87.5,19.9
				c17.8,6.5,27.9,5.2,30.6,7.1"/>
		</g>
		<path id="XMLID_4_" class="st2" d="M104.3,182.4c0,0,0-61.3,53.6-62.9c53.6-1.6,59.5,56.3,59.5,56.3s9.5,61.9-48.2,68.6
			C108.5,251.3,104.3,182.4,104.3,182.4z"/>
		<path id="XMLID_6_" class="st4" d="M152.4,122.7l3.3-29.2l-8-2.5l4-12.8c0,0,6.6,4.3,16.9,0l3.8,13.4l-8,1.8l3.2,29.2H152.4z"/>
		<path id="XMLID_7_" class="st5" d="M155.3,66.1l-14.8,50.5c0,0-42.6,16.7-58.5-18l15.2-44.8C97.2,53.8,128.6,40.9,155.3,66.1z"/>
		<path id="XMLID_5_" class="st5" d="M109.3,182.9c0,0,0-55.8,48.8-57.3c48.8-1.5,54.2,51.3,54.2,51.3s8.7,56.4-43.9,62.5
			C113.2,245.7,109.3,182.9,109.3,182.9z"/>
		<path id="XMLID_9_" class="st2" d="M94.7,61.3c0,0,25.3-11.5,58.1,13.4l2.5-8.6c0,0-22.4-25.6-58.1-12.3L94.7,61.3z"/>
		<path id="XMLID_10_" class="st2" d="M82,98.6c0,0,25.5-12.6,59.4,17l1.9-8.5c0,0-21.9-28.4-58.3-17.3L82,98.6z"/>
		<path id="XMLID_12_" class="st5" d="M164.8,68.7l14.1,48.2c0,0,40.6,15.9,55.7-17.2L220.2,57C220.2,57,190.3,44.6,164.8,68.7z"/>
		<path id="XMLID_11_" class="st2" d="M222.6,64.1c0,0-24.1-11-55.4,12.8l-2.4-8.2c0,0,21.3-24.4,55.4-11.7L222.6,64.1z"/>
		<path id="XMLID_8_" class="st2" d="M234.6,99.7c0,0-24.3-12-56.6,16.2l-1.8-8.1c0,0,20.9-27.1,55.5-16.5L234.6,99.7z"/>
		<g id="XMLID_2_">
			<path id="XMLID_13_" class="st2" d="M6.2,226.5L71,182.3L68.4,41.3c0,0-53.6-14.4-41.8-20.9s99.4,13.9,80.4,18.2
				c-17,3.8-26.3,2.5-28.9,3.7l3.2,140l17.7,9.2l-1.1,4.1h-6.4l35.9,51.8l-10.2,3.8l-40.7-55.1l-58.9,32.1L6.2,226.5z"/>
			<path id="XMLID_16_" class="st3" d="M66.8,42.6c0,0-61-16.5-47.6-23.8s113.2,15.9,91.6,20.8c-19.4,4.4-29.9,2.8-33,4.3"/>
		</g>
		<path id="XMLID_181_" class="st6" d="M91.2,161.8L91.2,161.8c0.8-1.8,0-3.9-1.8-4.7l-7.3-3.3c-1.8-0.8-3.9,0-4.7,1.8l0,0
			c-0.8,1.8,0,3.9,1.8,4.7l7.3,3.3C88.2,164.4,90.4,163.6,91.2,161.8z"/>
	</g>
	<g id="XMLID_26_" class="st1">
		<path id="XMLID_188_" class="st7" d="M296.6,16.4L296.6,16.4c0.5,1.5-0.4,3.2-1.9,3.6L227,38.6c-1.5,0.5-2.1,1.2-2.6-0.3v0
			c-0.5-1.5,0.4-1.2,2-1.7L293,14.4C294.5,14,296.1,14.8,296.6,16.4z"/>
		<circle id="XMLID_189_" class="st4" cx="224.6" cy="38.2" r="2"/>
	</g>
	<g id="XMLID_25_" class="st1">
		<path id="XMLID_198_" class="st7" d="M221.2,26.9L221.2,26.9c0.1-1.6,1.5-2.8,3.1-2.6l69.8,7.8c1.6,0.1,2.4-0.3,2.3,1.2v0
			c-0.1,1.6-0.9,1-2.4,0.8L223.8,30C222.2,29.9,221,28.5,221.2,26.9z"/>
		<circle id="XMLID_197_" class="st4" cx="295.1" cy="32.9" r="2"/>
	</g>
	<g id="XMLID_141_" class="st1">
		<path id="XMLID_142_" class="st8" d="M80.7,33.8L80.7,33.8c-1.6,3.5-5.9,5-9.4,3.4l-18.9-8.9c-3.5-1.6-5-5.9-3.4-9.4l0,0
			c1.6-3.5,5.9-5,9.4-3.4l18.9,8.9C80.8,26.1,82.3,30.3,80.7,33.8z"/>
		<circle id="XMLID_143_" class="st9" cx="45.1" cy="17.4" r="9.6"/>
		<path id="XMLID_144_" class="st8" d="M83.4,34.9L83.4,34.9c-0.6,1.3-2.1,1.8-3.4,1.2l0,0c-1.3-0.6-1.8-2.1-1.2-3.4v0
			c0.6-1.3,2.1-1.8,3.4-1.2v0C83.5,32.1,84,33.6,83.4,34.9z"/>
	</g>
	<g id="XMLID_88_" class="st1">
		<path id="XMLID_101_" class="st10" d="M30.2,236.8c0,0-0.6-9.3,8-18.9c8.6-9.6,10.9-9.6,10.4-24.6c-0.5-15.1,5.8-27.1,9.6-23.3
			c3.8,3.8-2.6,19,12.1,14.9l24.7-78.1l-3.7-6.3l13.1-24.2l9.6-1.2l-2.2,29.4c0,0,0,0-9.5,2l-24.7,91c0,0,3.5,10.2,12.2,3.3
			c0,0,10.9-18.1,9.1,3.8c0,0-13.8,14.7-10.4,27.7c3.4,13-0.8,33.4-16,31.7C57.1,262.1,32.9,255.5,30.2,236.8z"/>
		<path id="XMLID_100_" class="st11" d="M52.5,221.1c3.7-5.6,6.4-11.1,6-22c-0.4-10.9,6.6-12,7.6-8.3c0.8,3.2,3.4,4.7,3.4,4.7
			l6.1,5.6c0,0,6.3,8.3,12.5,3.3c0,0,10.3-16.4,9-0.6c0,0-14.9,18-12.5,27.4s-12,8.9-22.9,6C56.5,235.8,50,224.8,52.5,221.1z"/>
		<g id="XMLID_90_">
			<g id="XMLID_93_">
				<line id="XMLID_99_" class="st12" x1="57.8" y1="225.4" x2="65.8" y2="201.8"/>
				<line id="XMLID_98_" class="st12" x1="59.7" y1="226.1" x2="67.7" y2="202.5"/>
				<line id="XMLID_97_" class="st12" x1="61.5" y1="226.9" x2="69.5" y2="203.3"/>
				<line id="XMLID_96_" class="st12" x1="63.4" y1="227.7" x2="71.4" y2="204.1"/>
				<line id="XMLID_95_" class="st12" x1="65.2" y1="228.5" x2="73.2" y2="204.9"/>
				<line id="XMLID_94_" class="st12" x1="67.1" y1="229.2" x2="75.1" y2="205.6"/>
			</g>
			
				<rect id="XMLID_92_" x="61" y="220.7" transform="matrix(0.3878 -0.9217 0.9217 0.3878 -171.6918 197.3399)" class="st8" width="3.5" height="14.5"/>
			
				<rect id="XMLID_91_" x="68.9" y="195.7" transform="matrix(0.3878 -0.9217 0.9217 0.3878 -143.8303 189.3458)" class="st8" width="3.5" height="14.5"/>
		</g>
		<polygon id="XMLID_89_" class="st7" points="70.2,184.8 79.1,191.3 102.2,106.3 94.9,106.7 		"/>
	</g>
	<g id="XMLID_24_" class="st1">
		<g id="XMLID_1_">
			<path id="XMLID_19_" class="st13" d="M183.5,109.6l6.3-3.6l18.6,92.4c0,0,7.7,7.5,12.4-2.5c0,0,1.6-21,9.8-0.6
				c0,0-5.8,19.3,3.1,29.4c8.9,10.1,14.2,30.2-0.2,35.5c-14.4,5.3-39,10.2-49.7-5.3c0,0-4.7-8.1-1.3-20.5s5.5-13.4-1.7-26.7
				c-7.2-13.3-6.9-26.8-1.8-25.2s6.2,18.2,17.4,7.9L183.5,109.6"/>
			<path id="XMLID_48_" class="st11" d="M196.7,230.9c0.9-6.7,0.8-12.8-4.4-22.3c-5.2-9.6,0.6-13.7,3.1-10.8
				c2.2,2.5,5.2,2.6,5.2,2.6l7.9,2.3c0,0,9.3,4.6,12.7-2.6c0,0,1.9-19.3,7.8-4.6c0,0-5.3,22.8,1.1,30.1c2.1,2.4,16.2,19.1,4.4,29.7
				c-3.7,3.4,4.4-33.8-22.3-14.1C207.8,244.4,196.1,235.3,196.7,230.9z"/>
			<g id="XMLID_58_">
				<g id="XMLID_57_">
					<line id="XMLID_51_" class="st12" x1="203.4" y1="232.3" x2="200" y2="207.7"/>
					<line id="XMLID_52_" class="st12" x1="205.4" y1="232.2" x2="202" y2="207.5"/>
					<line id="XMLID_53_" class="st12" x1="207.4" y1="232.1" x2="204" y2="207.4"/>
					<line id="XMLID_54_" class="st12" x1="209.4" y1="231.9" x2="206" y2="207.3"/>
					<line id="XMLID_55_" class="st12" x1="211.4" y1="231.8" x2="208" y2="207.1"/>
					<line id="XMLID_56_" class="st12" x1="213.4" y1="231.7" x2="210" y2="207"/>
				</g>
				
					<rect id="XMLID_49_" x="207.1" y="225.2" transform="matrix(-6.497433e-02 -0.9979 0.9979 -6.497433e-02 -9.4961 456.007)" class="st8" width="3.5" height="14.5"/>
				
					<rect id="XMLID_50_" x="203.1" y="199.3" transform="matrix(-6.497433e-02 -0.9979 0.9979 -6.497433e-02 11.9789 424.3781)" class="st8" width="3.5" height="14.5"/>
			</g>
			<polygon id="XMLID_59_" class="st7" points="196.3,190.5 207.2,192.4 189.8,106 183.5,109.6 			"/>
		</g>
		<polygon id="XMLID_18_" class="st13" points="183.5,109.6 189.8,106 188.6,78 180.6,72.6 169.3,99.8 176.9,105.8 		"/>
		<circle id="XMLID_20_" class="st14" cx="173.4" cy="98.3" r="1.3"/>
		<circle id="XMLID_21_" class="st14" cx="176" cy="92.1" r="1.3"/>
		<circle id="XMLID_22_" class="st14" cx="178.6" cy="85.9" r="1.3"/>
		<circle id="XMLID_23_" class="st14" cx="181.2" cy="79.7" r="1.3"/>
	</g>
</g>
<g id="Layer_2">
	<path id="XMLID_132_" class="st15" d="M-23.5-54.8V38v267.2h364V38v-92.8H-23.5z M-8.2,38v-75.8h334.5V38H-8.2z"/>
	<rect id="XMLID_131_" x="-23.5" y="185.3" class="st7" width="364" height="16.5"/>
	<rect id="XMLID_130_" x="171.4" y="201.8" class="st8" width="14.9" height="103.9"/>
	<rect id="XMLID_129_" x="-15.8" y="201.8" class="st8" width="14.9" height="103.9"/>
	<g id="XMLID_125_">
		<path id="XMLID_128_" class="st16" d="M208.7,179.4h-6.2c2.4-1,4.2-3.2,4.2-5.9V136c0-3.4-2.8-5.9-6.2-5.9h-66.3
			c-3.4,0-6,2.5-6,5.9v37.6c0,2.7,1.6,4.8,4,5.9h-6.2c-1.6,0-3,1.2-3,2.8s1.3,2.8,3,2.8h82.6c1.6,0,3-1.2,3-2.8
			S210.3,179.4,208.7,179.4z"/>
		<path id="XMLID_127_" class="st8" d="M196.8,175.8h-58.4c-3.4,0-6.1-2.7-6.1-6.1V140c0-3.4,2.7-6.1,6.1-6.1h58.4
			c3.4,0,6.1,2.7,6.1,6.1v29.7C202.9,173,200.1,175.8,196.8,175.8z"/>
		<text id="XMLID_140_" transform="matrix(1.7729 0 0 1 138.2546 140.257)" class="st17 st18 st19">djkandfljnaldjfalsczzz</text>
		<text id="XMLID_139_" transform="matrix(1.7729 0 0 1 138.2546 146.8761)" class="st17 st18 st19">asdfdasf</text>
		<text id="XMLID_138_" transform="matrix(1.7729 0 0 1 138.2546 153.4953)" class="st17 st18 st19">adfasdfsdafasdfz</text>
		<text id="XMLID_137_" transform="matrix(1.7729 0 0 1 138.2546 160.1134)" class="st17 st18 st19">dsfasdfv</text>
		<text id="XMLID_136_" transform="matrix(1.7729 0 0 1 138.2546 166.7326)" class="st17 st18 st19">asdfadfdsfasdfasdf</text>
	</g>
	<rect id="XMLID_124_" x="340.3" y="24.6" class="st20" width="12.8" height="280"/>
	<path id="XMLID_182_" class="st21" d="M92.9,123.9H68.5c-7.9,0-14,6.8-14,15v49.6v3.2v15.1h14h24.4h14.5v-15.1v-3.3v-49.7
		C107.4,130.7,100.8,123.9,92.9,123.9z"/>
	<path id="XMLID_183_" class="st21" d="M113.4,132.7c-3.1-7-9.5-11-14.2-8.9s-6,9.5-2.9,16.5c0.2,0.3,0.4,0.6,0.5,0.9
		c0.1,0.3,0.3,0.5,0.4,0.7l16.3,36.6c1.6,3.6,4.8,5.8,7.2,4.7l8.3-3.7c2.4-1.1,3-4.9,1.4-8.6l-16.3-36.6c-0.1-0.3-0.2-0.5-0.3-0.7
		C113.6,133.4,113.6,133,113.4,132.7z"/>
	<g id="XMLID_122_">
		<path id="XMLID_179_" class="st21" d="M131.5,176.3c-0.9,5.1-5.7,8.5-10.8,7.6c-5.1-0.9-8.5-5.7-7.6-10.8c0.1-0.3,0.2-0.5,0.2-0.7
			c0-0.2,0.1-0.3,0.1-0.5l4.6-26.6c0.5-2.6,2.9-4.5,5.4-4l9,1.5c2.6,0.5,4.3,3,3.8,5.6l-4.6,26.6c-0.1,0.2,0,0.4-0.1,0.5
			C131.5,175.8,131.5,176.1,131.5,176.3z"/>
		<path id="XMLID_180_" class="st22" d="M132.8,125.2l-3.8-0.7c-3.3-0.6-6.5,1.7-7.1,5l-1.5,8.7c-0.6,3.3,1.7,6.5,5,7.1l3.8,0.7
			c3.3,0.6,6.5-1.7,7.1-5l1.5-8.7C138.3,129,136.1,125.8,132.8,125.2z"/>
		<path id="XMLID_123_" class="st23" d="M118.3,130.5l-0.4,0.2c-1.6,0.7-2.2,2.6-1.5,4.2l3.4,7.1c0.7,1.6,2.6,2.2,4.2,1.5l0.4-0.2
			c1.6-0.7,2.2-2.6,1.5-4.2l-3.4-7.1C121.7,130.5,119.9,129.8,118.3,130.5z"/>
	</g>
	<g id="XMLID_176_">
		<path id="XMLID_173_" class="st22" d="M84.9,129.9h-8.6c-3.4,0-6.1-2.7-6.1-6.1v-8.5c0-3.4,2.7-6.1,6.1-6.1h8.6
			c3.4,0,6.1,2.7,6.1,6.1v8.5C91,127.1,88.2,129.9,84.9,129.9z"/>
		<ellipse id="XMLID_174_" class="st23" cx="80.5" cy="112.1" rx="10.4" ry="7.5"/>
		<path id="XMLID_175_" class="st22" d="M91,125.3c0,4.2-4.7,7.5-10.4,7.5c-5.8,0-10.4-3.4-10.4-7.5s4.7-3.1,10.4-3.1
			C86.3,122.3,91,121.2,91,125.3z"/>
	</g>
	<g id="XMLID_119_">
		<g id="XMLID_157_">
			<ellipse id="XMLID_159_" class="st22" cx="115.8" cy="69.3" rx="7.2" ry="7.8"/>
			<ellipse id="XMLID_158_" class="st23" cx="115.8" cy="69.3" rx="4" ry="4.5"/>
		</g>
		<g id="XMLID_154_">
			<ellipse id="XMLID_156_" class="st22" cx="46.3" cy="70.5" rx="7.2" ry="7.8"/>
			<ellipse id="XMLID_155_" class="st23" cx="46.3" cy="70.5" rx="4" ry="4.5"/>
		</g>
		<ellipse id="XMLID_153_" class="st22" cx="80.6" cy="70.5" rx="36.3" ry="43.9"/>
		<path id="XMLID_152_" class="st24" d="M105.6,27.8c0.4-2.2,22.1,12.6,15.8,34.7C111.9,95.9,105.2,30.2,105.6,27.8z"/>
		<path id="XMLID_151_" class="st6" d="M40.5,53.9c0,0,1.5,31.5,9.7,14.1s5.8-30.2,5.8-30.2s56.4,20.9,59.2,3.9
			c2.9-17.1-11.4-13-11.4-13l-51.4-5.2L40.5,53.9z"/>
		<path id="XMLID_150_" class="st24" d="M42.6,67.1c0,0-10.6-17.7-4.2-42.8c4.1-15.8,51.1-0.9,51.1-0.9l-6.2-4.9
			c0,0,20-3.7,24.3,9.3s-5.5,6.8-5.5,6.8S68.2,43.7,57,30.9S42.6,67.1,42.6,67.1z"/>
		<g id="XMLID_147_">
			<circle id="XMLID_149_" class="st25" cx="68.3" cy="69.7" r="4"/>
			<circle id="XMLID_148_" class="st25" cx="93.4" cy="69.4" r="3.7"/>
		</g>
		<path id="XMLID_146_" class="st23" d="M80.6,88.4L80.6,88.4c-2.6,0-4.8-2.1-4.8-4.8V63.8c0-2.6,2.1-4.8,4.8-4.8l0,0
			c2.6,0,4.8,2.1,4.8,4.8v19.8C85.4,86.2,83.3,88.4,80.6,88.4z"/>
		<path id="XMLID_145_" class="st23" d="M85.1,85.5h-8.9c-2.4,0-4.4-2-4.4-4.4l0,0c0-2.4,2-4.4,4.4-4.4h8.9c2.4,0,4.4,2,4.4,4.4l0,0
			C89.5,83.5,87.5,85.5,85.1,85.5z"/>
		<path id="XMLID_121_" class="st11" d="M90.9,93.2c0,3.7-4.6,6.7-10.3,6.7c-5.7,0-10.3-3-10.3-6.7s4.6,2.3,10.3,2.3
			C86.3,95.5,90.9,89.5,90.9,93.2z"/>
		<path id="XMLID_120_" class="st23" d="M90.9,95.2c0,3.7-4.6,6.7-10.3,6.7c-5.7,0-10.3-3-10.3-6.7s4.6,2.3,10.3,2.3
			C86.3,97.5,90.9,91.5,90.9,95.2z"/>
	</g>
	<path id="XMLID_194_" class="st5" d="M54.4,206.9v29.2v0.4v63.1c0,2.6,1.9,4.5,4.6,4.5h14.2c2.6,0,4.6-1.8,4.6-4.5v-62.1
		c1,0.2,1.8,0.3,2.7,0.3c1,0,2.4-0.1,2.9-0.3v62.2c0,2.6,2,4.5,4.7,4.5h14.3c2.6,0,5-1.8,5-4.5v-63.1v-0.4v-29.2H54.4z"/>
	<rect id="XMLID_190_" x="50.2" y="148.1" class="st26" width="2.4" height="156.3"/>
	<polygon id="XMLID_191_" class="st26" points="83.5,237.4 85.9,236.7 85.9,301.6 83.5,301.6 	"/>
	<path id="XMLID_195_" class="st27" d="M60.3,289.5c-8.3,0-15.1,7-15.1,15.1h30.2C75.3,296.5,68.6,289.5,60.3,289.5z"/>
	<path id="XMLID_192_" class="st27" d="M93.6,289.5c8.3,0,15.1,7,15.1,15.1H78.4C78.4,296.5,85.2,289.5,93.6,289.5z"/>
	<path id="XMLID_187_" class="st21" d="M47.7,129.2c5.8-5,13.2-5.9,16.6-2c3.4,3.9,1.4,11.2-4.4,16.2c-0.3,0.2-0.6,0.4-0.9,0.6
		c-0.2,0.2-0.4,0.3-0.6,0.5l-30.3,26.2c-3,2.6-6.8,3.2-8.6,1.2l-5.9-6.9c-1.7-2-0.6-5.7,2.4-8.3l30.3-26.2c0.2-0.2,0.4-0.4,0.6-0.5
		C47.2,129.7,47.4,129.5,47.7,129.2z"/>
	<g id="XMLID_116_">
		<path id="XMLID_186_" class="st21" d="M24.1,155.7c-3.8-3.5-9.7-3.3-13.2,0.5s-3.3,9.7,0.5,13.2c0.2,0.2,0.4,0.3,0.6,0.4
			c0.1,0.2,0.3,0.2,0.4,0.3L32,188.5c1.9,1.8,4.9,1.8,6.8-0.1l6.2-6.7c1.8-1.9,1.6-4.9-0.4-6.8l-19.8-18.4c-0.1-0.1-0.2-0.3-0.4-0.4
			C24.4,156.1,24.2,155.9,24.1,155.7z"/>
		<path id="XMLID_185_" class="st23" d="M54.7,186.3l-0.2,0.4c-0.7,1.6-2.6,2.2-4.1,1.5l-7.1-3.3c-1.6-0.7-2.2-2.6-1.5-4.1l0.2-0.4
			c0.7-1.6,2.6-2.2,4.1-1.5l7.1,3.3C54.7,182.9,55.4,184.8,54.7,186.3z"/>
		<path id="XMLID_184_" class="st22" d="M56,195.6l-2.6,2.9c-2.3,2.4-6.2,2.6-8.7,0.3l-6.4-6c-2.4-2.3-2.6-6.2-0.3-8.7l2.6-2.9
			c2.3-2.4,6.2-2.6,8.7-0.3l6.4,6C58.2,189.2,58.3,193.1,56,195.6z"/>
	</g>
	<polygon id="XMLID_114_" class="st26" points="118.3,144.3 114.7,164.5 113.3,160.8 117.4,142 	"/>
	<path id="XMLID_294_" class="st28" d="M249.2,124.9h-19.1c-6.2,0-11.2,6.6-11.2,14.9v49.7v3.2v15.2h11.2h19.1h11.4v-15.2v-3.2
		v-49.7C260.6,131.6,255.4,124.9,249.2,124.9z"/>
	<path id="XMLID_293_" class="st28" d="M264.3,130.9c-4.5-5-10.4-5.9-13-2c-2.6,3.9-1.1,11.2,3.5,16.2c0.2,0.2,0.5,0.4,0.7,0.6
		c0.2,0.2,0.3,0.3,0.5,0.5l23.8,26.2c2.3,2.6,5.3,3.2,6.7,1.2l4.7-6.9c1.4-2,0.5-5.7-1.9-8.3l-23.8-26.2c-0.2-0.2-0.3-0.4-0.5-0.5
		C264.7,131.4,264.6,131.1,264.3,130.9z"/>
	<path id="XMLID_292_" class="st28" d="M279.7,157.4c3-3.5,7.6-3.3,10.4,0.5s2.6,9.7-0.4,13.2c-0.2,0.2-0.3,0.3-0.5,0.4
		c-0.1,0.2-0.2,0.2-0.3,0.3l-15.5,18.4c-1.5,1.8-3.9,1.8-5.3-0.1l-4.8-6.7c-1.4-1.9-1.2-4.9,0.3-6.8l15.5-18.4
		c0.1-0.1,0.2-0.3,0.3-0.4C279.5,157.8,279.6,157.6,279.7,157.4z"/>
	<path id="XMLID_291_" class="st23" d="M255.5,187.4l0.6,1.5c0.5,1.2,1.6,1.8,2.5,1.2l6.6-3.8c1-0.6,1.4-2,1-3.3l-0.6-1.5
		c-0.5-1.2-1.6-1.8-2.5-1.2l-6.6,3.8C255.5,184.7,255.1,186.2,255.5,187.4z"/>
	<path id="XMLID_290_" class="st22" d="M254,196.3l3.5,4.7c1.4,1.9,3.8,2,5.3,0.3l6.5-7.7c1.5-1.8,1.6-4.9,0.2-6.8L266,182
		c-1.4-1.9-3.8-2-5.3-0.3l-6.5,7.7C252.6,191.3,252.5,194.3,254,196.3z"/>
	<path id="XMLID_273_" class="st29" d="M242.2,230.8l-0.3,69.5c0,2.6,1.5,4.8,3.6,4.8h11.2c2.1,0,3.9-2,3.9-4.6v-63.1V237v-29.1
		h-41.7V237v0.4v63.1c0,2.6,1.7,4.6,3.8,4.6h11.2c2.1,0,3.7-2.2,3.7-4.8l0.3-69.5H242.2z"/>
	<rect id="XMLID_285_" x="218.9" y="149" class="st26" width="1.9" height="156.3"/>
	<polygon id="XMLID_282_" class="st26" points="242.3,231.1 244.1,230.3 244.2,302.5 242.3,302.5 	"/>
	<path id="XMLID_281_" class="st4" d="M222.8,290.1c-6.6,0-11.9,6.7-11.9,15.1h23.7C234.6,296.7,229.3,290.1,222.8,290.1z"/>
	<path id="XMLID_280_" class="st4" d="M248.9,290.1c6.6,0,11.9,6.7,11.9,15.1h-23.7C237.1,296.7,242.4,290.1,248.9,290.1z"/>
	<g id="XMLID_269_">
		<path id="XMLID_272_" class="st22" d="M243.3,127.6h-8.6c-3.4,0-6.1-2.7-6.1-6.1v-5.6c0-3.4,2.7-6.1,6.1-6.1h8.6
			c3.4,0,6.1,2.7,6.1,6.1v5.6C249.4,124.9,246.7,127.6,243.3,127.6z"/>
		<ellipse id="XMLID_271_" class="st23" cx="239" cy="112.4" rx="10.4" ry="6.5"/>
		<path id="XMLID_270_" class="st22" d="M249.4,123.4c0,3.6-4.7,6.5-10.4,6.5s-10.4-2.9-10.4-6.5s4.7-2.6,10.4-2.6
			S249.4,119.8,249.4,123.4z"/>
	</g>
	<g id="XMLID_224_">
		<path id="XMLID_255_" class="st30" d="M277.5,61.9c0-20.5-17.4-37.1-38.8-37.1s-38.8,16.6-38.8,37.1c0,1,0.1,2.1,0.2,3.1
			c-0.1,0.3-0.1,0.7-0.1,1v28.7c0,2.2,1.7,4.2,4,4.2h31c1.2,0,2.4,0.2,3.7,0.2c1.3,0,2.5-0.2,3.7-0.2h31c2.2,0,4.1-2,4.1-4.2V66
			c0-0.4-0.1-0.7-0.1-1C277.4,64,277.5,63,277.5,61.9z"/>
		<g id="XMLID_252_">
			<ellipse id="XMLID_254_" class="st22" cx="207.5" cy="71.5" rx="6.2" ry="6.6"/>
			<ellipse id="XMLID_253_" class="st23" cx="207.5" cy="71.5" rx="3.4" ry="3.8"/>
		</g>
		<g id="XMLID_241_">
			<ellipse id="XMLID_251_" class="st22" cx="270.5" cy="71.2" rx="6.2" ry="6.6"/>
			<ellipse id="XMLID_242_" class="st23" cx="270.5" cy="71.2" rx="3.4" ry="3.8"/>
		</g>
		<ellipse id="XMLID_240_" class="st22" cx="239.1" cy="76.6" rx="31.5" ry="38.8"/>
		<path id="XMLID_239_" class="st23" d="M239.1,86.9L239.1,86.9c-1.7,0-3.1-1.4-3.1-3.1V69.5c0-1.7,1.4-3.1,3.1-3.1l0,0
			c1.7,0,3.1,1.4,3.1,3.1v14.4C242.2,85.5,240.8,86.9,239.1,86.9z"/>
		<g id="XMLID_229_">
			<path id="XMLID_238_" class="st31" d="M222.7,83.2c6.5,0,11.7-5.2,11.7-11.7c0-4-2-7.6-5.1-9.7l-17.9,12.7
				C212.8,79.6,217.3,83.2,222.7,83.2z"/>
			<path id="XMLID_237_" class="st31" d="M212.3,66.2L221,60C217.2,60.5,214,62.9,212.3,66.2z"/>
			<circle id="XMLID_236_" class="st31" cx="254.9" cy="71.5" r="11.7"/>
			<path id="XMLID_235_" class="st14" d="M221,60l-8.7,6.2c-0.8,1.6-1.3,3.5-1.3,5.4c0,1.1,0.2,2.1,0.4,3.1l17.9-12.7
				c-1.9-1.3-4.1-2-6.6-2C222.1,59.9,221.6,59.9,221,60z"/>
			<path id="XMLID_231_" class="st32" d="M253,56.7V57c-5.6,0.7-11.4,5.4-12.6,11.6c-0.1,0,0.1-0.2,0-0.2h-2.5
				c-0.3,0-0.5,0.2-0.7,0.3c-0.7-3.6-2.6-6.6-5.3-8.8c-1.9-1.5-4.2-2.6-6.7-3c-0.8-0.2-1.6-0.3-2.4-0.3h-15v12.5v4.3h0.5
				c0.1,1,0.4,2,0.8,3.1c2,5.7,7.4,9.7,13.8,9.7c7.2,0,13.1-5.1,14.4-11.9c0.2,0.1,0.5,0.2,0.7,0.2h2.5c0.1,0,0.1-0.1,0.1-0.1
				c1.3,6.7,7.1,11.8,14.3,11.8c8.1,0,14.6-6.6,14.6-14.7V56.7H253z M222.7,83.2c-5.4,0-10-3.7-11.3-8.7c-0.3-1-0.4-2-0.4-3.1
				c0-1.9,0.5-3.8,1.3-5.4c1.7-3.3,4.9-5.7,8.7-6.2c0.6-0.1,1.1-0.1,1.7-0.1c2.4,0,4.7,0.8,6.6,2c3.1,2.1,5.1,5.7,5.1,9.7
				C234.4,78,229.2,83.2,222.7,83.2z M254.9,83.2c-6.5,0-11.7-5.2-11.7-11.7c0-6.5,5.2-11.7,11.7-11.7s11.7,5.2,11.7,11.7
				C266.5,78,261.3,83.2,254.9,83.2z"/>
			<path id="XMLID_230_" class="st14" d="M253.1,60l-8.7,6.2c-0.8,1.6-1.3,3.5-1.3,5.4c0,1.1,0.2,2.1,0.4,3.1l17.9-12.7
				c-1.9-1.3-4.1-2-6.6-2C254.3,59.9,253.7,59.9,253.1,60z"/>
		</g>
		<g id="XMLID_226_">
			<circle id="XMLID_228_" class="st33" cx="228.3" cy="71.6" r="5.3"/>
			<circle id="XMLID_227_" class="st33" cx="250.2" cy="71.3" r="5.3"/>
		</g>
		<path id="XMLID_225_" class="st32" d="M238.9,101.5c4.8,0,8.9-1.3,10.2-3.2c-2.3-0.8-6.1-1.3-10.2-1.3s-7.9,0.5-10.2,1.3
			C230,100.1,234.1,101.5,238.9,101.5z"/>
	</g>
	<path id="XMLID_111_" class="st28" d="M213,135.3c2.5-7,7.5-11,11.3-8.9c3.8,2.1,4.8,9.5,2.3,16.5c-0.1,0.3-0.3,0.6-0.4,0.9
		c-0.1,0.3-0.2,0.5-0.3,0.7l-13,36.6c-1.3,3.6-3.8,5.8-5.8,4.7l-6.6-3.7c-1.9-1.1-2.3-4.9-1.1-8.6l13-36.6c0.1-0.3,0.2-0.5,0.2-0.7
		C212.8,135.9,212.9,135.6,213,135.3z"/>
	<path id="XMLID_110_" class="st28" d="M198.6,178.9c0.7,5.1,4.5,8.5,8.6,7.6s6.8-5.7,6.1-10.8c-0.1-0.3-0.1-0.5-0.2-0.7
		c0-0.2-0.1-0.3-0.1-0.5l-3.7-26.6c-0.4-2.6-2.2-4.5-4.3-4l-7.1,1.5c-2.1,0.5-3.4,3-3.1,5.6l3.7,26.6c0,0.2,0,0.4,0.1,0.5
		C198.6,178.3,198.6,178.6,198.6,178.9z"/>
	<path id="XMLID_109_" class="st22" d="M197.5,127.8l3.1-0.7c2.6-0.6,5.2,1.7,5.6,5l1.2,8.7c0.5,3.3-1.3,6.5-4,7.1l-3.1,0.7
		c-2.6,0.6-5.2-1.7-5.6-5l-1.2-8.7C193.1,131.6,194.9,128.3,197.5,127.8z"/>
	<path id="XMLID_108_" class="st23" d="M209.1,133.1l0.3,0.2c1.2,0.7,1.8,2.6,1.2,4.2l-2.6,7.1c-0.6,1.6-2.1,2.2-3.3,1.5l-0.3-0.2
		c-1.2-0.7-1.8-2.6-1.2-4.2l2.6-7.1C206.4,133,207.8,132.4,209.1,133.1z"/>
	<polygon id="XMLID_106_" class="st26" points="209.1,146.8 212,167.1 213,163.3 209.8,144.5 	"/>
	<rect id="XMLID_105_" x="-40.3" y="24.9" class="st20" width="12.8" height="279.8"/>
</g>
</svg>
