<?xml version="1.0" encoding="utf-8"?>
<!-- Generator: Adobe Illustrator 19.0.0, SVG Export Plug-In . SVG Version: 6.00 Build 0)  -->
<svg version="1.1" id="Layer_1" xmlns="http://www.w3.org/2000/svg" xmlns:xlink="http://www.w3.org/1999/xlink" x="0px" y="0px"
	 viewBox="-349 401 300 200" style="enable-background:new -349 401 300 200;" xml:space="preserve">
<style type="text/css">
	.st0{fill:#F2CBA0;}
	.st1{fill:#E8B282;}
	.st2{fill:#FF7BAC;}
	.st3{fill:#ED5F98;}
	.st4{fill:none;}
	.st5{fill:#F2F2F2;}
	.st6{fill:#42210B;}
	.st7{fill:#ED1E79;}
	.st8{fill:#FFFFFF;}
	.st9{fill:#C69C6D;}
	.st10{fill:#CEAC8A;}
</style>
<g id="XMLID_41_">
	<g id="XMLID_7_">
		<g id="XMLID_130_">
			<ellipse id="XMLID_132_" class="st0" cx="-152.1" cy="490.3" rx="8.9" ry="9.5"/>
			<ellipse id="XMLID_131_" class="st1" cx="-152.1" cy="490.3" rx="4.9" ry="5.5"/>
		</g>
		<path id="XMLID_125_" class="st2" d="M-139.9,472.5c0-27.3-25.9-49.4-57.8-49.4s-57.7,22.1-57.7,49.4c0,0.9,0.6,1.8,0.6,2.7
			c-0.1,0.2,0.5,0.3,0.5,0.5v45.5c0,1.7,1.5,3.9,4.8,3.9h103.8c3.2,0,5.5-2.1,5.5-3.9v-45.5c0-0.2,0.2-0.3,0.1-0.5
			C-140.1,474.3-139.9,473.4-139.9,472.5z"/>
		<g id="XMLID_119_">
			<ellipse id="XMLID_128_" class="st0" cx="-242.6" cy="490.8" rx="8.9" ry="9.5"/>
			<ellipse id="XMLID_124_" class="st1" cx="-242.6" cy="490.8" rx="4.9" ry="5.5"/>
		</g>
		<ellipse id="XMLID_120_" class="st0" cx="-197.6" cy="495.9" rx="43.7" ry="54"/>
		<path id="XMLID_134_" class="st3" d="M-185.9,430l-3.1,1.3c-6.5-5.1-17.3-8.6-34.5-2.6c-34.6,12.2-26.4,45.7-26.4,45.7
			c27.8,0.3,50.7-15,61.9-24.3c5.6,8.4-2.5-0.5,6.1-0.1C-164.9,450.9-185.9,430-185.9,430z"/>
		<path id="XMLID_123_" class="st1" d="M-197.3,511.2h-0.9c-2.8,0-5.2-2.3-5.2-5.2v-19.1c0-2.8,2.3-5.2,5.2-5.2h0.8
			c2.8,0,5.2,2.3,5.2,5.2V506C-192,508.9-194.4,511.2-197.3,511.2z"/>
		<g id="XMLID_1_">
			<path id="XMLID_103_" class="st4" d="M-221.8,511.3c9.8,0,17.8-8,17.8-17.8c0-6.1-3.1-11.6-7.8-14.8l-27.2,19.4
				C-237,505.7-230,511.3-221.8,511.3z"/>
			<path id="XMLID_104_" class="st4" d="M-237.6,485.3l13.2-9.4C-230.3,476.7-235,480.3-237.6,485.3z"/>
			<circle id="XMLID_105_" class="st4" cx="-172.9" cy="493.5" r="17.8"/>
			<path id="XMLID_116_" class="st5" d="M-224.4,475.9l-13.2,9.4c-1.3,2.5-2,5.2-2,8.2c0,1.6,0.2,3.1,0.6,4.6l27.2-19.4
				c-2.8-1.9-6.3-3-10-3C-222.7,475.7-223.6,475.7-224.4,475.9z"/>
			<path id="XMLID_110_" d="M-175.3,470v1.3c-9,1.1-17.6,8.3-19.4,17.8l-0.2-0.1h-3.9c-0.4,0-0.7,0.2-1.1,0.3
				c-1-5.4-3.9-10.1-8.1-13.4c-2.9-2.3-6.4-4.4-10.2-5.1c-1.2-0.2-2.4-0.8-3.7-0.8h-21.5v19.9v6.1h-0.7c0.2,2,0.6,3.3,1.1,4.9
				c3.1,8.7,11.3,14.8,21,14.8c10.9,0,20-7.7,21.9-18.1c0.3,0.2,0.7,0.3,1.1,0.3h3.9c0.1,0,0.1-0.1,0.2-0.1
				c2,10.2,11.2,17.9,22,17.9c12.3,0,22.5-10,22.5-22.3V470L-175.3,470L-175.3,470z M-221.8,511.3c-8.2,0-15.2-5.6-17.2-13.2
				c-0.4-1.5-0.6-3-0.6-4.6c0-3,0.7-5.7,2-8.2c2.6-5,7.4-8.6,13.2-9.4c0.9-0.1,1.7-0.2,2.6-0.2c3.7,0,7.1,1.1,10,3
				c4.7,3.2,7.8,8.6,7.8,14.8C-204,503.3-212,511.3-221.8,511.3z M-172.9,511.3c-9.8,0-17.8-8-17.8-17.8s8-17.8,17.8-17.8
				s17.8,8,17.8,17.8S-163.1,511.3-172.9,511.3z"/>
			<path id="XMLID_106_" class="st5" d="M-175.5,475.9l-13.2,9.4c-1.3,2.5-2,5.2-2,8.2c0,1.6,0.2,3.1,0.6,4.6l27.2-19.4
				c-2.8-1.9-6.3-3-10-3C-173.8,475.7-174.7,475.7-175.5,475.9z"/>
		</g>
		<path id="XMLID_129_" class="st2" d="M-179.5,437.4l-3.1,1.3c-6.5-5.1-17.3-8.6-34.5-2.6c-34.6,12.1-26.4,45.6-26.4,45.6
			c27.8,0.3,50.7-15,61.9-24.3c5.6,8.4,13.5,17.1,22.1,17.6C-142.5,475.9-179.5,437.4-179.5,437.4z"/>
		<g id="XMLID_122_">
			<circle id="XMLID_126_" class="st6" cx="-215.1" cy="490.8" r="4.9"/>
			<circle id="XMLID_127_" class="st6" cx="-179.8" cy="490.4" r="4.5"/>
		</g>
		<path id="XMLID_139_" class="st7" d="M-180.4,524.1C-180.4,523.9-180.4,524-180.4,524.1L-180.4,524.1c-0.7-3.1-5.5-4.8-11.2-4.8
			c-2.1,0-4-0.1-5.7,0.4c-1.6-0.3-3.5-0.1-5.5-0.1c-6.3,0-11.5,1.5-12,4.5l0,0c0,0,0,0,0,0.1c0,0.1,0-0.1,0-0.1l0,0
			c0.3,5,6.7,9.8,17.2,9.8C-187.3,533.8-180.9,529-180.4,524.1L-180.4,524.1C-180.4,524-180.4,524.2-180.4,524.1z"/>
		<path id="XMLID_136_" class="st8" d="M-197.6,523.9"/>
		<path id="XMLID_135_" class="st8" d="M-180.8,522.4c0,3.4-7.3,7.5-16.8,7.5s-17.1-3.7-17.1-7.1c0,0,6.3,0.3,17.1,0.3
			C-187.4,523.2-180.8,522.4-180.8,522.4z"/>
		<path id="XMLID_137_" class="st3" d="M-181.3,457.6l1.4-5.8c0,0-45.5,33.5-65.8,26.2C-245.6,478-243.9,502.1-181.3,457.6z"/>
	</g>
	<g id="XMLID_5_">
		<path id="XMLID_3_" d="M-312.5,573.8l0.2-5.4l36.7-23.3l76.9,3.3l74.7-9.4l38.9,33.4l-0.2,5.4l-98.7,7c0,0-13.3-8.8-27.2-1.2
			L-312.5,573.8z"/>
		<path id="XMLID_2_" class="st9" d="M-312.1,568.4c0,0,8.9-4.5,10.8-15.2l26-13.4l76.9,3.3l75-9.4l27.5,22.7
			c3.4,10.1,11.5,16.2,11.5,16.2l-99,6.9c0,0-13.4-8.8-27.3-1.2L-312.1,568.4z"/>
		<path id="XMLID_4_" class="st10" d="M-197.9,562.2c0,0-47.7-15.6-103.4-9.1l26-13.4l76.9,3.3l75-9.4l27.5,22.7
			C-150.9,546.6-197.9,562.2-197.9,562.2l14.5,17.2c0,0-13.4-8.8-27.3-1.2L-197.9,562.2z"/>
		<polygon id="XMLID_6_" points="-210.6,578.2 -197.9,562.2 -183.3,579.4 		"/>
	</g>
</g>
</svg>
