<?xml version="1.0" encoding="utf-8"?>
<!-- Generator: Adobe Illustrator 19.0.0, SVG Export Plug-In . SVG Version: 6.00 Build 0)  -->
<svg version="1.1" id="Layer_1" xmlns="http://www.w3.org/2000/svg" xmlns:xlink="http://www.w3.org/1999/xlink" x="0px" y="0px"
	 viewBox="0 0 1920 874.1" style="enable-background:new 0 0 1920 874.1;" xml:space="preserve">
<style type="text/css">
	.st0{fill:#5E311D;}
	.st1{fill:#754C24;}
	.st2{fill:#666666;}
	.st3{fill:#325C80;}
	.st4{fill-opacity:5.000000e-02;}
	.st5{fill:#8C6239;}
	.st6{fill:#00B4A0;}
	.st7{fill:#FFFFFF;}
	.st8{fill:none;stroke:#B3B3B3;stroke-miterlimit:10;}
	.st9{fill:#4D4D4D;}
	.st10{fill:#C69C6D;}
	.st11{fill:#CCCCCC;}
	.st12{fill:#999999;}
	.st13{fill:#333333;}
	.st14{fill:#22B573;}
	.st15{fill:#E8B282;}
	.st16{fill:#F2CBA0;}
	.st17{fill:#AF6EE8;}
	.st18{fill:#E6E6E6;}
	.st19{fill:#F7931E;}
	.st20{fill:none;}
	.st21{fill:#F2F2F2;}
	.st22{fill:#ED1E79;}
	.st23{fill:#FF77A0;}
	.st24{fill:#190036;}
	.st25{fill:#6F2E00;}
	.st26{fill:#FCEE21;}
	.st27{fill:#F7E641;}
	.st28{fill:#1A1A1A;}
	.st29{fill:#C1272D;}
	.st30{fill:#603813;}
	.st31{fill:#42210B;}
	.st32{fill:#4178BE;}
	.st33{fill:#A67C52;}
	.st34{fill:#F15A24;}
	.st35{fill:#EDC9AB;}
	.st36{fill:#9E005D;}
	.st37{fill:#9855D4;}
	.st38{fill:#29ABE2;}
	.st39{fill:#331707;}
	.st40{fill:#82766E;}
</style>
<ellipse id="XMLID_719_" class="st0" cx="306.3" cy="309.3" rx="13.6" ry="20.1"/>
<path id="XMLID_718_" class="st1" d="M78.9,296.4c0-71,40.9-128.5,91.3-128.5c50.4,0,91.3,57.5,91.3,128.5c0,2.3,0.2,4.6,0.1,6.9
	c0.1,0.4,0.4,0.9,0.4,1.3v118.2c0,4.5-4.7,8.4-9.9,8.4H88.2c-5.1,0-8.2-3.9-8.2-8.4V304.6c0-0.5-0.5-0.9-0.4-1.3
	C79.5,301,78.9,298.7,78.9,296.4z"/>
<path id="XMLID_717_" class="st2" d="M1543.3,374.3h-51c-16.5,0-29.3,13.5-29.3,30.7v103.8v6.7v31.7h29.3h51h30.7v-31.7v-6.7V405
	C1574,387.7,1559.8,374.3,1543.3,374.3z"/>
<path id="XMLID_716_" class="st3" d="M1463,547.3v61v0.8v131.9c0,5.5,4,8.2,9.6,8.2h29.7c5.5,0,9.7-2.7,9.7-8.2V611.1
	c3,0.4,3.4,0.6,5.3,0.6c2.1,0,4.7-0.2,5.7-0.7v130c0,5.5,4.9,8.2,10.4,8.2h29.8c5.5,0,10.8-2.7,10.8-8.2V609.1v-0.8v-61H1463z"/>
<path id="XMLID_715_" class="st2" d="M1583.5,386.4c-12.1-10.5-27.7-12.4-34.8-4.2c-7.1,8.2-3,23.3,9.2,33.8
	c0.5,0.5,1.2,0.8,1.8,1.3c0.4,0.4,0.9,0.6,1.3,1l63.4,54.8c6.2,5.4,14.2,6.7,17.9,2.5l12.4-14.4c3.6-4.2,1.2-12-5-17.3l-63.4-54.8
	c-0.4-0.4-0.7-0.8-1.2-1.1C1584.5,387.4,1584.1,386.9,1583.5,386.4z"/>
<rect id="XMLID_712_" x="1462.5" y="424.2" class="st4" width="5" height="326.7"/>
<path id="XMLID_711_" class="st2" d="M1638.7,480.3c-10.7-1.2-18.5-10.8-17.4-21.5c1.2-10.7,10.8-18.5,21.5-17.4
	c0.5,0.1,0.9,0.3,1.4,0.4c0.4,0,0.7,0.2,1.1,0.2l56.1,6c5.5,0.6,9.7,5.3,9.1,10.8l-2,18.9c-0.6,5.5-5.7,9.3-11.2,8.7l-56.1-6
	c-0.4,0-0.7,0-1.1-0.1C1639.7,480.3,1639.2,480.4,1638.7,480.3z"/>
<path id="XMLID_710_" class="st5" d="M1744.9,480.4l1.8-16.3c0.5-4.7-2.9-9-7.6-9.5l-26.6-2.9c-4.7-0.5-9,2.9-9.5,7.6l-1.8,16.3
	c-0.5,4.7,2.9,9,7.6,9.5l26.6,2.9C1740.2,488.6,1744.4,485.1,1744.9,480.4z"/>
<path id="XMLID_709_" class="st5" d="M1539,352.1c0-10.9-9.4-19.8-21.3-19.8h-0.2c-11.9,0-22.4,8.9-22.4,19.8v17.4
	c0,0.7,0.4,1.4,0.5,2c-0.1,0.4,0.1,0.9,0.1,1.4c0,8,9.9,14.4,21.9,14.4s21.8-6.5,21.8-14.4c0-0.5-0.2-1-0.3-1.4c0.1-0.6,0-1.3,0-2
	V352.1z"/>
<ellipse id="XMLID_708_" class="st1" cx="1517.5" cy="349" rx="21.8" ry="15.7"/>
<path id="XMLID_707_" class="st6" d="M1440.7,443.5c0,0,16.3-8.2,40.2,0s25.5,12.4,52.2,0s53.2-10.1,49.3-0.3
	c-3.9,9.8-36.2,9.8-17.6,33l159.3-14.7l8.5-11.4l53.6,5.2l9.5,16.3l-54.5,18.3c0,0,0,0-10.8-15.7l-182.5,24.5c0,0-15.7,14,3.3,24.5
	c0,0,40.8,5.9,0,19.3c0,0-36.9-13.7-57.8,2.3c-20.9,16-60.7,23.8-69.2-4.9C1415.5,511.1,1409,462.4,1440.7,443.5z"/>
<path id="XMLID_706_" class="st7" d="M1485.9,471.7c12.9,2.5,24.8,3.2,44.1-5.8c19.3-8.9,26.7,2.8,20.6,7.4
	c-5.2,3.9-5.8,9.8-5.8,9.8l-5.4,15.2c0,0-10.1,17.6,3.5,25.1c0,0,37.3,6.1,7.9,15.8c0,0-43.8-13.2-58.8-1.7s-25.2-14.8-28.1-36.7
	C1462.5,490.1,1477.3,470,1485.9,471.7z"/>
<g id="XMLID_696_">
	<g id="XMLID_699_">
		<line id="XMLID_705_" class="st8" x1="1482.2" y1="484.6" x2="1530.8" y2="481.1"/>
		<line id="XMLID_704_" class="st8" x1="1482.2" y1="488.5" x2="1530.8" y2="485"/>
		<line id="XMLID_703_" class="st8" x1="1482.2" y1="492.4" x2="1530.8" y2="488.9"/>
		<line id="XMLID_702_" class="st8" x1="1482.2" y1="496.3" x2="1530.8" y2="492.9"/>
		<line id="XMLID_701_" class="st8" x1="1482.2" y1="500.2" x2="1530.8" y2="496.8"/>
		<line id="XMLID_700_" class="st8" x1="1482.2" y1="504.1" x2="1530.8" y2="500.7"/>
	</g>
	<rect id="XMLID_698_" x="1477.9" y="481.1" class="st9" width="6.8" height="28.4"/>
	<rect id="XMLID_697_" x="1528.9" y="476.5" class="st9" width="6.8" height="28.4"/>
</g>
<polygon id="XMLID_695_" class="st10" points="1564.8,476.2 1559.7,497.1 1730.3,474.2 1724.1,461.5 "/>
<path id="XMLID_694_" class="st2" d="M1461,378.5c14.5-6.8,30-4.4,34.6,5.4c4.6,9.8-3.5,23.2-18,30c-0.7,0.3-1.4,0.5-2,0.7
	c-0.5,0.3-1,0.4-1.5,0.6l-75.9,35.5c-7.5,3.5-15.5,2.6-17.9-2.4l-8-17.2c-2.3-5,2.1-11.8,9.5-15.3l75.9-35.5
	c0.5-0.2,0.9-0.5,1.4-0.7C1459.8,379.2,1460.4,378.8,1461,378.5z"/>
<path id="XMLID_693_" class="st2" d="M1400.7,451c9.8-4.5,14.2-16.1,9.7-25.9c-4.5-9.8-16.1-14.2-25.9-9.7c-0.4,0.2-0.8,0.6-1.2,0.8
	c-0.3,0.1-0.6,0.4-0.9,0.5l-51.4,23.3c-5,2.3-7.5,8.1-5.2,13.1l7.8,17.3c2.3,5,8.3,7,13.3,4.7l51.4-23.3c0.3-0.1,0.7-0.2,1-0.4
	C1399.8,451.2,1400.3,451.2,1400.7,451z"/>
<path id="XMLID_692_" class="st5" d="M1299.9,484.3l-6.8-15c-2-4.3,0-9.4,4.3-11.4l24.3-11c4.3-2,9.4,0,11.4,4.3l6.8,15
	c2,4.3,0,9.4-4.3,11.4l-24.3,11C1306.9,490.5,1301.8,488.6,1299.9,484.3z"/>
<path id="XMLID_691_" class="st1" d="M1301.5,450.4l0.8-6.7c0.2-1.9,2-3.3,3.9-3.1l22.3,2.7c1.9,0.2,3.3,2,3.1,3.9l-0.8,6.7
	c-0.2,1.9-2,3.3-3.9,3.1l-22.3-2.7C1302.6,454.1,1301.2,452.3,1301.5,450.4z"/>
<g id="XMLID_688_">
	<ellipse id="XMLID_690_" class="st5" cx="1434.3" cy="253.2" rx="14.8" ry="22"/>
	<ellipse id="XMLID_689_" class="st5" cx="1434.3" cy="253.2" rx="8.2" ry="12.7"/>
</g>
<g id="XMLID_685_">
	<ellipse id="XMLID_687_" class="st5" cx="1598.5" cy="253.2" rx="14.8" ry="22"/>
	<ellipse id="XMLID_686_" class="st5" cx="1598.5" cy="253.2" rx="8.2" ry="12.7"/>
</g>
<path id="XMLID_684_" class="st5" d="M1516.6,153.6c-41.6,0-75.4,44.3-75.4,98.9c0,13.3,2,26,5.7,37.6
	c13.6-15.6,39.6-26.2,69.5-26.2c30.1,0,56.3,10.7,69.8,26.5c3.7-11.7,5.8-24.5,5.8-38C1592,197.9,1558.3,153.6,1516.6,153.6z"/>
<path id="XMLID_681_" class="st11" d="M1516.4,146.1c-45.2,0-81.9,46.3-81.9,103.4c0,16.2,2.9,31.5,8.2,45.1
	c13.2,34.5,41.2,58.2,73.5,58.3c0.1,0,0.1,0,0.2,0c0.2,0,0.3,0,0.5,0c31.8-0.2,59.3-23.4,72.7-57c5.6-14,8.7-29.7,8.7-46.4
	C1598.3,192.4,1561.6,146.1,1516.4,146.1z M1515.9,259.7c-28.4,0-53.2,9.7-66.1,24c-3.5-10.6-5.4-22.2-5.4-34.4
	c0-50,32.1-90.5,71.6-90.5c39.6,0,71.6,40.5,71.6,90.5c0,12.3-1.9,24-5.5,34.7C1569.4,269.5,1544.5,259.7,1515.9,259.7z"/>
<ellipse id="XMLID_680_" class="st12" cx="1516.7" cy="318.8" rx="49" ry="41.4"/>
<ellipse id="XMLID_679_" class="st5" cx="1516.8" cy="304.7" rx="31.8" ry="14.3"/>
<g id="XMLID_676_">
	<circle id="XMLID_678_" class="st13" cx="1484.9" cy="239.1" r="10.6"/>
	<circle id="XMLID_677_" class="st13" cx="1548.4" cy="239.1" r="10.6"/>
</g>
<g id="XMLID_673_">
	<path id="XMLID_675_" class="st1" d="M1522.9,285.4h-12.4c-2.6,0-4.8-2.1-4.8-4.8v-54.3c0-2.6,2.1-4.8,4.8-4.8h12.4
		c2.6,0,4.8,2.1,4.8,4.8v54.3C1527.6,283.3,1525.5,285.4,1522.9,285.4z"/>
	<path id="XMLID_674_" class="st1" d="M1526.8,282.3h-20.3c-2.5,0-4.5-2-4.5-4.5v-11.6c0-2.5,2-4.5,4.5-4.5h20.3
		c2.5,0,4.5,2,4.5,4.5v11.6C1531.3,280.3,1529.3,282.3,1526.8,282.3z"/>
</g>
<g id="XMLID_670_">
	<path id="XMLID_672_" class="st1" d="M1529.8,306.4h-26.2c-0.8,0-1.5-0.7-1.5-1.5v-4c0-0.8,0.7-1.5,1.5-1.5h26.2
		c0.8,0,1.5,0.7,1.5,1.5v4C1531.3,305.7,1530.6,306.4,1529.8,306.4z"/>
	<path id="XMLID_671_" class="st1" d="M1529.8,312.2h-26.2c-0.8,0-1.5-0.7-1.5-1.5v-4c0-0.8,0.7-1.5,1.5-1.5h26.2
		c0.8,0,1.5,0.7,1.5,1.5v4C1531.3,311.5,1530.6,312.2,1529.8,312.2z"/>
</g>
<g id="XMLID_628_">
	<path id="XMLID_669_" class="st14" d="M1100.1,374.3h39.1c12.6,0,24.8,14.3,24.8,31.1v101.4v6.6v30.9h-24.8h-39.1H1076v-30.9v-6.6
		V405.4C1076,388.5,1087.5,374.3,1100.1,374.3z"/>
	<path id="XMLID_668_" class="st14" d="M1068.7,389.8c7.5-11.6,19-15.4,25.6-8.4c6.6,7,5.9,22.1-1.6,33.7c-0.3,0.5-0.8,0.9-1.1,1.4
		c-0.2,0.4-0.5,0.7-0.8,1.1l-39.2,60.7c-3.9,6-9.7,8.2-13.1,4.6l-11.7-12.3c-3.4-3.6-2.8-11.4,1-17.3l39.2-60.7
		c0.3-0.4,0.4-0.8,0.7-1.2C1068.1,390.9,1068.4,390.3,1068.7,389.8z"/>
	<path id="XMLID_667_" class="st14" d="M1055.2,453c-2.2-9.1-10.8-13-19.3-8.7c-8.5,4.3-13.7,15.3-11.5,24.4
		c0.1,0.4,0.3,0.8,0.4,1.1c0,0.3,0.2,0.6,0.3,0.9l11.3,47.7c1.1,4.7,5.4,6.9,9.8,4.7l15-7.6c4.4-2.2,6.8-7.9,5.7-12.6l-11.3-47.7
		c-0.1-0.3-0.1-0.6-0.2-0.9C1055.3,453.9,1055.3,453.4,1055.2,453z"/>
	<path id="XMLID_666_" class="st15" d="M1071.6,530l-2.4,2.3c-1.9,1.8-4.5,1.8-5.8-0.1l-8.4-13c-1.2-1.9-0.7-5,1.3-6.8l2.4-2.3
		c1.9-1.8,4.5-1.8,5.8,0.1l8.4,13C1074.1,525.1,1073.6,528.1,1071.6,530z"/>
	<path id="XMLID_665_" class="st16" d="M1066.3,547.6l-10.6,5.4c-4.4,2.2-8.8,0.2-10-4.5l-4.8-20.1c-1.1-4.7,1.6-10.3,5.9-12.6
		l10.6-5.4c4.4-2.2,8.8-0.2,10,4.5l4.8,20.1C1073.3,539.7,1070.7,545.3,1066.3,547.6z"/>
	<path id="XMLID_664_" class="st17" d="M1114.3,591.3l0.5,141c0,5.4-3,9-7.2,9h-22.8c-4.2,0-8.8-2.4-8.8-7.8V604.7v-0.8v-59.6h88
		v59.6v0.8v128.8c0,5.4-5.5,7.8-9.8,7.8h-22.7c-4.2,0-7.6-3.6-7.6-9l-0.5-141H1114.3z"/>
	<polygon id="XMLID_661_" class="st4" points="1114.2,591.7 1110.5,590 1110.4,737.5 1114.2,737.5 	"/>
	<path id="XMLID_660_" class="st18" d="M1145.9,720.4c13.4,0,24.2,13.8,24.2,30.8h-48.4C1121.7,734.3,1132.6,720.4,1145.9,720.4z"/>
	<path id="XMLID_659_" class="st18" d="M1092.6,720.4c-13.4,0-24.2,13.8-24.2,30.8h48.4C1116.8,734.3,1105.9,720.4,1092.6,720.4z"/>
	<path id="XMLID_658_" class="st14" d="M1163.7,379.8c-12.6-5.7-24.3-2.6-26,6.9c-1.8,9.5,7.1,21.7,19.7,27.4
		c0.6,0.3,1.2,0.4,1.7,0.6c0.4,0.2,0.8,0.3,1.3,0.5l65.9,29.5c6.5,2.9,12.6,1.6,13.5-3.2l3.1-16.7c0.9-4.9-3.8-11.1-10.3-14
		l-65.9-29.5c-0.4-0.2-0.8-0.5-1.2-0.6C1164.9,380.4,1164.3,380,1163.7,379.8z"/>
	<path id="XMLID_657_" class="st16" d="M1103,360.6c0-8.9,7.6-18.3,17.3-18.3h0.2c9.7,0,19.5,9.4,19.5,18.3v14.2c0,0.6-1,1.1-1,1.6
		c0.1,0.4-0.4,0.7-0.4,1.2c0,6.5-8.2,11.7-18,11.7c-9.8,0-17.9-5.3-17.9-11.7c0-0.4,0.1-0.8,0.2-1.2c-0.1-0.5,0-1,0-1.6V360.6z"/>
	<ellipse id="XMLID_656_" class="st15" cx="1120.4" cy="358" rx="17.8" ry="12.8"/>
	<path id="XMLID_655_" class="st14" d="M1217,434c-0.1,9.4,7.4,15.2,16.7,13c9.3-2.2,16.9-11.6,16.9-21c0-0.4-0.1-0.8-0.2-1.2
		c0-0.3-0.1-0.6-0.1-0.9l0.3-49.1c0-4.8-3.6-8-8.4-6.9l-16.3,3.9c-4.8,1.1-8.5,6.1-8.5,10.9l-0.3,49.1c0,0.3-0.1,0.6-0.1,0.9
		C1217.1,433.1,1217,433.6,1217,434z"/>
	<path id="XMLID_654_" class="st16" d="M1228.5,339.5l11.6-2.8c4.8-1.1,8.6,1.9,8.6,6.7l-0.1,20.7c0,4.8-3.9,9.7-8.7,10.8l-11.6,2.8
		c-4.8,1.1-8.6-1.9-8.6-6.7l0.1-20.7C1219.8,345.5,1223.7,340.6,1228.5,339.5z"/>
	<path id="XMLID_653_" class="st15" d="M1219.1,355.3l2.9-1.7c2.3-1.3,4.8-0.7,5.6,1.5l5.1,14.6c0.8,2.2-0.5,5-2.8,6.3l-2.9,1.7
		c-2.3,1.3-4.8,0.7-5.6-1.5l-5.1-14.6C1215.5,359.5,1216.8,356.6,1219.1,355.3z"/>
	<g id="XMLID_629_">
		<path id="XMLID_652_" class="st19" d="M1042.4,254.2c0-41.8,35.4-75.7,79.2-75.7s79.2,33.9,79.2,75.7c0,2.1,0.5,4.2,0.3,6.3
			c0.2,0.7,0.9,1.4,0.9,2.1v58.6c0,4.6-5,8.1-9.6,8.1h-63.2c-2.5,0-5,0.3-7.6,0.3s-5.1-0.3-7.6-0.3h-63.2c-4.6,0-6.8-3.5-6.8-8.1
			v-58.6c0-0.7-0.7-1.4-0.5-2.1C1043.3,258.4,1042.4,256.3,1042.4,254.2z"/>
		<g id="XMLID_649_">
			<ellipse id="XMLID_651_" class="st16" cx="1185.2" cy="273.8" rx="12.6" ry="13.5"/>
			<ellipse id="XMLID_650_" class="st15" cx="1185.2" cy="273.8" rx="7" ry="7.8"/>
		</g>
		<g id="XMLID_646_">
			<ellipse id="XMLID_648_" class="st16" cx="1056.8" cy="273.1" rx="12.6" ry="13.5"/>
			<ellipse id="XMLID_647_" class="st15" cx="1056.8" cy="273.1" rx="7" ry="7.8"/>
		</g>
		<ellipse id="XMLID_645_" class="st16" cx="1120.7" cy="284.2" rx="64.2" ry="79.3"/>
		<path id="XMLID_644_" class="st15" d="M1117.6,305.2h6.3c1.7,0,3.1-1.4,3.1-3.1v-35.7c0-1.7-1.4-3.1-3.1-3.1h-6.3
			c-1.7,0-3.1,1.4-3.1,3.1v35.7C1114.5,303.8,1115.9,305.2,1117.6,305.2z"/>
		<g id="XMLID_634_">
			<path id="XMLID_643_" class="st20" d="M1154.2,297.7c-13.2,0-23.9-10.7-23.9-23.9c0-8.2,4.2-15.5,10.5-19.8l36.4,26
				C1174.6,290.2,1165.3,297.7,1154.2,297.7z"/>
			<path id="XMLID_642_" class="st20" d="M1175.4,262.9l-17.7-12.6C1165.4,251.4,1172,256.2,1175.4,262.9z"/>
			<circle id="XMLID_641_" class="st20" cx="1088.6" cy="273.8" r="23.9"/>
			<path id="XMLID_640_" class="st21" d="M1157.7,250.2l17.7,12.6c1.7,3.3,2.7,7,2.7,11c0,2.1-0.3,4.2-0.8,6.2l-36.4-26
				c3.8-2.6,8.4-4.1,13.4-4.1C1155.4,250,1156.6,250.1,1157.7,250.2z"/>
			<path id="XMLID_636_" class="st22" d="M1061,243.3v30.5c0,16.5,12.2,30.2,28.8,30.2c14.5,0,26-10.8,28.8-24.6
				c0.1,0-0.4-0.2-0.3-0.2h5.2c0.5,0,1,0.1,1.5-0.1c2.6,13.9,14.8,24.1,29.4,24.1c13,0,24.1-8.4,28.2-20c0.7-2.1,1.3-3.9,1.5-6.8
				l0,0v-7.4v-25.8h-29.8c-1.7,0-3.3,0.3-4.9,0.6c-5.1,0.8-9.8,3-13.7,6.1c-5.5,4.4-9.5,10.1-10.8,17.4c-0.4-0.2-0.9-1.1-1.4-1.1
				h-5.2c-0.1,0,0.4,0.9,0.3,0.9c-2.5-12.7-13.5-21.7-25.5-23.1v-0.8H1061z M1130.3,273.9c0-8.2,4.2-15.5,10.5-19.8
				c3.8-2.6,8.4-4.1,13.4-4.1c1.2,0,2.4,0.1,3.5,0.3c7.7,1.1,14.2,6,17.7,12.6c1.7,3.3,2.7,7,2.7,11c0,2.1-0.3,4.2-0.8,6.2
				c-2.7,10.2-12,17.7-23.1,17.7C1141,297.7,1130.3,287,1130.3,273.9z M1064.7,273.8c0-13.2,10.7-23.9,23.9-23.9
				c13.2,0,23.9,10.7,23.9,23.9c0,13.2-10.7,23.9-23.9,23.9C1075.4,297.7,1064.7,287,1064.7,273.8z"/>
			<path id="XMLID_635_" class="st21" d="M1092.1,250.2l17.7,12.6c1.7,3.3,2.7,7,2.7,11c0,2.1-0.3,4.2-0.8,6.2l-36.4-26
				c3.8-2.6,8.4-4.1,13.4-4.1C1089.8,250,1091,250.1,1092.1,250.2z"/>
		</g>
		<g id="XMLID_631_">
			<circle id="XMLID_633_" class="st13" cx="1142.8" cy="274" r="10.9"/>
			<circle id="XMLID_632_" class="st13" cx="1098.1" cy="273.3" r="10.9"/>
		</g>
		<path id="XMLID_630_" class="st22" d="M1121.2,334.9c-9.8,0-18.2-2.7-20.9-6.4c4.8-1.6,12.4-2.6,20.9-2.6c8.5,0,16.1,1,20.9,2.6
			C1139.3,332.2,1131,334.9,1121.2,334.9z"/>
	</g>
</g>
<path id="XMLID_627_" class="st23" d="M1744.7,374.3h-39.1c-12.6,0-23.6,14.3-23.6,31.1v101.4v6.6v30.9h23.6h39.1h24.3v-30.9v-6.6
	V405.4C1769,388.5,1757.3,374.3,1744.7,374.3z"/>
<path id="XMLID_626_" class="st23" d="M1759.4,376.4c-10.7-2.6-19.3,3.1-19.3,12.7c0.1,9.6,8.8,19.5,19.5,22.1
	c0.5,0.1,1,0.1,1.4,0.2c0.3,0.1,0.7,0.1,1.1,0.2l55.9,13.5c5.5,1.3,10.1-1.3,10-6.3l-0.1-16.9c0-4.9-4.7-9.9-10.2-11.2l-55.9-13.5
	c-0.4-0.1-0.7-0.3-1.1-0.3C1760.3,376.7,1759.8,376.5,1759.4,376.4z"/>
<path id="XMLID_625_" class="st24" d="M1730.5,591.3l-0.5,141c0,5.4,3,9,7.2,9h22.8c4.2,0,9-2.4,9-7.8V604.7v-0.8v-59.6h-87v59.6
	v0.8v128.8c0,5.4,4.3,7.8,8.5,7.8h22.7c4.2,0,7.6-3.6,7.6-9l0.5-141H1730.5z"/>
<path id="XMLID_624_" class="st25" d="M1698.9,720.4c-13.4,0-24.2,13.8-24.2,30.8h48.4C1723.1,734.3,1712.2,720.4,1698.9,720.4z"/>
<path id="XMLID_623_" class="st25" d="M1752.2,720.4c13.4,0,24.2,13.8,24.2,30.8H1728C1728,734.3,1738.9,720.4,1752.2,720.4z"/>
<path id="XMLID_622_" class="st23" d="M1672.4,385.6c9.3-10.2,21.2-12.1,26.6-4.1c5.4,8,2.3,22.8-7,33c-0.4,0.5-0.9,0.8-1.3,1.2
	c-0.3,0.4-0.7,0.6-1,1l-48.5,53.5c-4.8,5.3-10.9,6.5-13.7,2.4l-9.5-14c-2.8-4.1-0.9-11.7,3.8-16.9l48.5-53.5
	c0.3-0.3,0.6-0.8,0.9-1.1C1671.6,386.6,1671.9,386,1672.4,385.6z"/>
<path id="XMLID_621_" class="st23" d="M1640.9,439.7c-6.1-7.2-15.5-6.7-21.2,1c-5.6,7.7-5.3,19.8,0.8,27c0.3,0.3,0.6,0.5,0.9,0.8
	c0.2,0.3,0.4,0.4,0.6,0.7l31.6,37.5c3.1,3.7,7.9,3.7,10.8-0.2l9.9-13.6c2.9-4,2.5-10.1-0.6-13.8l-31.6-37.5
	c-0.2-0.2-0.4-0.5-0.6-0.8C1641.4,440.4,1641.2,440,1640.9,439.7z"/>
<path id="XMLID_620_" class="st26" d="M1789.2,286c0-0.9,0-1.8,0-2.7c0-26.3-11.9-49.5-29.9-62.7c0,0.6,0.1,1.1,0.1,1.7
	c0,21.2-31.8,38.3-71,38.3c-8.7,0-17.1-0.8-24.8-2.4c-2.4,7.8-3.8,16.3-3.8,25c0,1.4-0.4,2.8-0.3,4.2c-0.1,0.3-0.5,0.7-0.5,1v72.6
	c0,2.9,3.3,6.1,6.3,6.1h118.9c3,0,5.7-3.3,5.7-6.1v-72.6C1790,287.6,1789.6,286.7,1789.2,286z"/>
<path id="XMLID_619_" class="st16" d="M1744,358.6c0-8.9-9.8-17.4-19.5-17.4h-0.2c-9.7,0-18.3,8.5-18.3,17.4v14.2
	c0,0.6,0.3,1.1,0.4,1.6c-0.1,0.4,0.1,0.7,0.1,1.2c0,6.5,8,11.7,17.8,11.7c9.8,0,17.8-5.3,17.8-11.7c0-0.4,0.9-0.8,0.9-1.2
	c0.1-0.5,1.1-1,1.1-1.6V358.6z"/>
<ellipse id="XMLID_618_" class="st15" cx="1724.4" cy="361.9" rx="17.8" ry="12.8"/>
<path id="XMLID_617_" class="st15" d="M1690.4,500.9l-1.1,3.1c-0.9,2.5-3.3,3.6-5.2,2.5l-13.4-7.8c-2-1.1-2.8-4.1-1.9-6.7l1.1-3.1
	c0.9-2.5,3.3-3.6,5.2-2.5l13.4,7.8C1690.4,495.4,1691.3,498.4,1690.4,500.9z"/>
<path id="XMLID_616_" class="st16" d="M1693.5,519l-7,9.6c-2.9,4-7.8,4.2-10.9,0.5l-13.3-15.8c-3.1-3.7-3.3-9.9-0.4-13.9l7-9.6
	c2.9-4,7.8-4.2,10.9-0.5l13.3,15.8C1696.2,508.8,1696.4,515.1,1693.5,519z"/>
<g id="XMLID_613_">
	<ellipse id="XMLID_615_" class="st16" cx="1778.5" cy="292.7" rx="12.7" ry="13.7"/>
	<ellipse id="XMLID_614_" class="st15" cx="1778.5" cy="292.7" rx="7.1" ry="8"/>
</g>
<g id="XMLID_610_">
	<ellipse id="XMLID_612_" class="st16" cx="1670.1" cy="292.7" rx="12.7" ry="13.7"/>
	<ellipse id="XMLID_611_" class="st15" cx="1670.1" cy="292.7" rx="7.1" ry="8"/>
</g>
<ellipse id="XMLID_609_" class="st16" cx="1724.8" cy="299" rx="55" ry="67.2"/>
<path id="XMLID_608_" class="st27" d="M1759.4,222.5c0-0.6,0-1.2-0.1-1.8c-10-7.9-22-12.4-34.8-12.4c-28.1,0-52,21.9-60.9,52.4
	c7.7,1.6,16.1,2.5,24.8,2.5C1727.6,263.2,1759.4,244.9,1759.4,222.5z"/>
<g id="XMLID_605_">
	<circle id="XMLID_607_" class="st13" cx="1703.9" cy="293.3" r="9"/>
	<circle id="XMLID_606_" class="st13" cx="1745.8" cy="293.3" r="9"/>
</g>
<path id="XMLID_604_" class="st15" d="M1727.1,319h-4.5c-1.3,0-2.4-1.1-2.4-2.4v-23.4c0-1.3,1.1-2.4,2.4-2.4h4.5
	c1.3,0,2.4,1.1,2.4,2.4v23.4C1729.5,318,1728.4,319,1727.1,319z"/>
<path id="XMLID_603_" class="st28" d="M1712.4,336.3c-1.1,2-1.7,3.7-1.7,6c0,2.1,0.5,3.9,1.4,5.7c3-1.8,7.6-3.1,12.7-3.1
	c5,0,9.4,1,12.4,2.7c0.8-1.7,1.3-3.2,1.3-5.3c0-2.4-0.6-4-1.7-6H1712.4z"/>
<path id="XMLID_602_" class="st22" d="M1736.9,336.3h3c0-4-4.3-7.6-9.7-7.6c-0.9,0-1.8,0.4-2.6,0.5
	C1731.6,330,1735,332.3,1736.9,336.3z"/>
<path id="XMLID_601_" class="st22" d="M1721.7,328.9c-0.8-0.2-1.7-0.1-2.7-0.1c-5.3,0-9.7,3.4-9.7,7.4h3
	C1714.3,332.3,1717.7,329.8,1721.7,328.9z"/>
<path id="XMLID_600_" class="st22" d="M1727.6,328.9c-1.1,0.2-2.1,0.4-2.9,0.8c-0.9-0.5-1.9-0.5-2.9-0.7c-4,0.8-7.4,3.2-9.3,7.2
	h24.5C1735,332.3,1731.6,329.8,1727.6,328.9z"/>
<path id="XMLID_599_" class="st22" d="M1724.6,355.4c5.6,0,10.4-3.2,12.6-7.9c-3-1.7-7.4-2.8-12.4-2.8c-5.2,0-9.8,1.2-12.7,3
	C1714.3,352.3,1719.1,355.4,1724.6,355.4z"/>
<rect id="XMLID_598_" x="1709.4" y="334.4" class="st7" width="30.5" height="5.1"/>
<path id="XMLID_597_" class="st26" d="M1752.9,218.8c0-0.6,0-1.2-0.1-1.8c-10-7.9-22-12.4-34.8-12.4c-28.1,0-52,21.9-60.9,52.4
	c7.7,1.6,16.1,2.5,24.8,2.5C1721.1,259.5,1752.9,241.3,1752.9,218.8z"/>
<path id="XMLID_596_" class="st29" d="M1335.4,407.3h-46.1c-14.9,0-25.4,15.2-25.4,30.8v93.8v6.1v29.4h25.4h46.1h28.6v-29.4v-6.1
	V438C1364,422.4,1350.3,407.3,1335.4,407.3z"/>
<path id="XMLID_595_" class="st29" d="M1371.7,421.2c-11-9.5-25-11.2-31.4-3.8c-6.4,7.4-2.7,21,8.3,30.5c0.5,0.4,1.1,0.7,1.6,1.1
	c0.3,0.3,0.8,0.6,1.1,0.9l57.2,49.5c5.6,4.9,12.8,6,16.1,2.3l11.2-13c3.3-3.8,1.1-10.8-4.5-15.7l-57.2-49.5c-0.4-0.3-0.7-0.7-1-1
	C1372.6,422.2,1372.2,421.6,1371.7,421.2z"/>
<g id="XMLID_591_">
	<path id="XMLID_594_" class="st29" d="M1408.8,471.2c7.1-6.6,18.3-6.2,25,0.9c6.6,7.1,6.2,18.3-0.9,25c-0.3,0.3-0.7,0.5-1.1,0.8
		c-0.2,0.2-0.5,0.4-0.8,0.6l-37.3,34.7c-3.7,3.4-9.3,3.5-12.8-0.2l-11.7-12.5c-3.4-3.7-3-9.4,0.7-12.8l37.3-34.7
		c0.2-0.2,0.4-0.5,0.7-0.7C1408.2,471.9,1408.4,471.5,1408.8,471.2z"/>
	<path id="XMLID_593_" class="st15" d="M1349.9,526.5l2.5,5.5c0.7,1.6,2.6,2.3,4.2,1.6l18.4-8.4c1.6-0.7,2.3-2.6,1.6-4.2l-2.5-5.5
		c-0.7-1.6-2.6-2.3-4.2-1.6l-18.4,8.4C1349.9,523,1349.2,524.9,1349.9,526.5z"/>
	<path id="XMLID_592_" class="st16" d="M1345.9,543.6l10.1,10.9c2.9,3.1,7.9,3.3,11,0.4l17.7-16.4c3.1-2.9,3.3-7.9,0.4-11
		l-10.1-10.9c-2.9-3.1-7.9-3.3-11-0.4l-17.7,16.4C1343.1,535.6,1343,540.5,1345.9,543.6z"/>
</g>
<g id="XMLID_587_">
	<path id="XMLID_590_" class="st16" d="M1321.8,421h-19.3c-5.5,0-10-4.5-10-10v-19.1c0-5.5,4.5-10,10-10h19.3c5.5,0,10,4.5,10,10
		V411C1331.9,416.5,1327.4,421,1321.8,421z"/>
	<ellipse id="XMLID_589_" class="st15" cx="1312.2" cy="387.4" rx="19.7" ry="14.2"/>
	<path id="XMLID_588_" class="st16" d="M1331.9,412.4c0,7.8-8.8,14.2-19.7,14.2s-19.7-6.4-19.7-14.2c0-7.8,8.8-5.8,19.7-5.8
		S1331.9,404.6,1331.9,412.4z"/>
</g>
<g id="XMLID_569_">
	<g id="XMLID_584_">
		<ellipse id="XMLID_586_" class="st16" cx="1378.7" cy="306.6" rx="13.6" ry="14.7"/>
		<ellipse id="XMLID_585_" class="st15" cx="1378.7" cy="306.6" rx="7.6" ry="8.5"/>
	</g>
	<g id="XMLID_581_">
		<ellipse id="XMLID_583_" class="st16" cx="1247.7" cy="308.9" rx="13.6" ry="14.7"/>
		<ellipse id="XMLID_582_" class="st15" cx="1247.7" cy="308.9" rx="7.6" ry="8.5"/>
	</g>
	<ellipse id="XMLID_580_" class="st16" cx="1312.4" cy="308.9" rx="68.5" ry="82.9"/>
	<path id="XMLID_579_" class="st30" d="M1359.5,228.3c0.6-4.1,41.8,23.7,29.9,65.4C1371.3,356.8,1358.8,232.8,1359.5,228.3z"/>
	<path id="XMLID_578_" class="st1" d="M1236.6,277.6c0,0,2.8,59.5,18.3,26.7c15.5-32.9,11-57.1,11-57.1s106.3,39.5,111.7,7.3
		s-21.4-24.5-21.4-24.5l-97-9.9L1236.6,277.6z"/>
	<path id="XMLID_577_" class="st30" d="M1240.6,302.4c0,0-20-33.3-7.9-80.7c7.6-29.9,96.4-1.7,96.4-1.7l-11.6-9.2
		c0,0,37.7-6.9,45.8,17.5c8.2,24.4-10.4,12.9-10.4,12.9s-64,17.2-85.2-7.1C1246.5,209.9,1240.6,302.4,1240.6,302.4z"/>
	<g id="XMLID_574_">
		<circle id="XMLID_576_" class="st31" cx="1289" cy="307.4" r="7.6"/>
		<circle id="XMLID_575_" class="st31" cx="1336.4" cy="306.8" r="7"/>
	</g>
	<path id="XMLID_573_" class="st15" d="M1316.8,342.6h-8.8c-2.5,0-4.6-2.1-4.6-4.6v-46.1c0-2.5,2.1-4.6,4.6-4.6h8.8
		c2.5,0,4.6,2.1,4.6,4.6V338C1321.4,340.6,1319.3,342.6,1316.8,342.6z"/>
	<path id="XMLID_572_" class="st15" d="M1324.8,337.2H1300c-2.3,0-4.3-1.9-4.3-4.3v-8.1c0-2.3,1.9-4.3,4.3-4.3h24.8
		c2.3,0,4.3,1.9,4.3,4.3v8.1C1329.1,335.3,1327.2,337.2,1324.8,337.2z"/>
	<path id="XMLID_571_" class="st7" d="M1331.7,351.7c0,7-8.7,12.6-19.4,12.6c-10.7,0-19.4-5.7-19.4-12.6s8.7,4.4,19.4,4.4
		C1323,356.1,1331.7,344.7,1331.7,351.7z"/>
	<path id="XMLID_570_" class="st15" d="M1331.7,355.5c0,7-8.7,12.6-19.4,12.6c-10.7,0-19.4-5.7-19.4-12.6s8.7,4.4,19.4,4.4
		C1323,359.9,1331.7,348.5,1331.7,355.5z"/>
</g>
<path id="XMLID_568_" class="st32" d="M1264,567.3v54.3v0.8v119.1c0,5,2.6,7.9,7.6,7.9h26.8c5,0,10.6-2.9,10.6-7.9V624.1
	c3,0.3,2.1,0.5,3.8,0.5c1.9,0,1.2-0.2,4.2-0.6v117.4c0,5,4.5,7.9,9.5,7.9h26.9c5,0,10.6-2.9,10.6-7.9V622.3v-0.8v-54.3H1264z"/>
<path id="XMLID_567_" class="st33" d="M1281.4,722.8c-15.7,0-28.5,10.5-28.5,28.5h57C1309.9,733.3,1297.2,722.8,1281.4,722.8z"/>
<path id="XMLID_566_" class="st33" d="M1344.3,722.8c15.7,0,28.5,10.5,28.5,28.5h-57C1315.8,733.3,1328.5,722.8,1344.3,722.8z"/>
<path id="XMLID_565_" class="st29" d="M1250.5,428.5c5-13.6,16.5-21.9,25.6-18.5c9.2,3.4,12.5,17.1,7.5,30.7
	c-0.2,0.6-0.6,1.2-0.8,1.8c-0.1,0.5-0.4,0.9-0.6,1.3l-26.1,71c-2.6,7-8.3,11.5-13,9.8l-16.1-5.9c-4.7-1.7-6.2-8.9-3.6-15.9l26.1-71
	c0.2-0.5,0.2-0.9,0.4-1.4C1250.2,429.8,1250.3,429.1,1250.5,428.5z"/>
<g id="XMLID_561_">
	<path id="XMLID_564_" class="st29" d="M1256.6,508.6c-2.5-9.4-12.2-15.1-21.6-12.6c-9.4,2.5-15.1,12.1-12.6,21.6
		c0.1,0.4,0.4,0.8,0.5,1.2c0,0.3,0.2,0.6,0.3,0.9l13,49.2c1.3,4.8,6.1,7.9,10.9,6.6l16.6-4.4c4.8-1.3,7.5-6.3,6.2-11.2l-13-49.2
		c-0.1-0.3-0.1-0.6-0.2-0.9C1256.7,509.5,1256.7,509,1256.6,508.6z"/>
	<path id="XMLID_563_" class="st15" d="M1276.8,586.8l-5.1,3.3c-1.5,1-3.5,0.5-4.4-0.9l-11.1-16.9c-1-1.5-0.5-3.5,0.9-4.4l5.1-3.3
		c1.5-1,3.5-0.5,4.4,0.9l11.1,16.9C1278.7,583.9,1278.3,585.9,1276.8,586.8z"/>
	<path id="XMLID_562_" class="st16" d="M1271.1,603.4l-14.3,3.8c-4.1,1.1-8.4-1.4-9.5-5.5l-6.2-23.3c-1.1-4.1,1.4-8.4,5.5-9.5
		l14.3-3.8c4.1-1.1,8.4,1.4,9.5,5.5l6.2,23.3C1277.7,598.1,1275.3,602.3,1271.1,603.4z"/>
</g>
<path id="XMLID_559_" class="st31" d="M1484,720c-17.4,0-31.6,13.4-31.6,31.6h63.1C1515.6,733.3,1501.5,720,1484,720z"/>
<path id="XMLID_558_" class="st31" d="M1551.4,720c17.4,0,31.6,13.4,31.6,31.6h-63.1C1519.8,733.3,1534,720,1551.4,720z"/>
<path id="XMLID_557_" class="st34" d="M607.4,377.3h-51c-16.5,0-30.4,13.2-30.4,30.5v103.8v6.7v32h30.4h51H638v-32v-6.7V407.7
	C638,390.5,623.9,377.3,607.4,377.3z"/>
<path id="XMLID_556_" class="st32" d="M526,550.3V611v0.8v131.9c0,5.5,5.2,8.5,10.7,8.5h29.7c5.5,0,9.6-2.9,9.6-8.5V613.9
	c3,0.4,3.9,0.6,5.8,0.6c2.1,0,5.2-0.2,6.2-0.7v130c0,5.5,4,8.5,9.6,8.5h29.8c5.5,0,10.7-2.9,10.7-8.5V611.9V611v-60.7H526z"/>
<path id="XMLID_555_" class="st34" d="M647.6,389.1c-12.1-10.5-27.7-12.4-34.8-4.2c-7.1,8.2-3,23.3,9.2,33.8
	c0.5,0.5,1.2,0.8,1.8,1.3c0.4,0.4,0.9,0.6,1.3,1l63.4,54.8c6.2,5.4,14.2,6.7,17.9,2.5l12.4-14.4c3.6-4.2,1.2-12-5-17.3l-63.4-54.8
	c-0.4-0.4-0.7-0.8-1.2-1.1C648.6,390.2,648.2,389.6,647.6,389.1z"/>
<rect id="XMLID_552_" x="526.6" y="427" class="st4" width="5" height="326.7"/>
<path id="XMLID_551_" class="st34" d="M702.8,483c-10.7-1.2-18.5-10.8-17.4-21.5c1.2-10.7,10.8-18.5,21.5-17.4
	c0.5,0.1,0.9,0.3,1.4,0.4c0.4,0,0.7,0.2,1.1,0.2l56.1,6c5.5,0.6,9.7,5.3,9.1,10.8l-2,18.9c-0.6,5.5-5.7,9.3-11.2,8.7l-56.1-6
	c-0.4,0-0.7,0-1.1-0.1C703.8,483,703.3,483.1,702.8,483z"/>
<path id="XMLID_550_" class="st5" d="M809.1,483.1l1.8-16.3c0.5-4.7-2.9-9-7.6-9.5l-26.6-2.9c-4.7-0.5-9,2.9-9.5,7.6l-1.8,16.3
	c-0.5,4.7,2.9,9,7.6,9.5l26.6,2.9C804.3,491.3,808.5,487.9,809.1,483.1z"/>
<path id="XMLID_549_" class="st35" d="M558.9,381.4c0,6.3,10.7,11.5,22.7,11.5c12,0,22.1-5,22.1-11.3c0-0.4,0.3-2.6,0.3-2.6l0,0
	v-13.7c0-8.6-10.3-15-22.2-15h-0.2c-11.9,0-22.6,6.4-22.6,15v16"/>
<ellipse id="XMLID_548_" class="st15" cx="581.1" cy="361.7" rx="21.8" ry="15.7"/>
<path id="XMLID_547_" class="st34" d="M525.2,381.2c14.5-6.8,30-4.4,34.6,5.4c4.6,9.8-3.5,23.2-18,30c-0.7,0.3-1.4,0.5-2,0.7
	c-0.5,0.3-1,0.4-1.5,0.6l-75.9,35.5c-7.5,3.5-15.5,2.6-17.9-2.4l-8-17.2c-2.3-5,2.1-11.8,9.5-15.3l75.9-35.5
	c0.5-0.2,0.9-0.5,1.4-0.7C523.9,381.9,524.5,381.5,525.2,381.2z"/>
<path id="XMLID_543_" class="st34" d="M464.9,453.7c9.8-4.5,14.2-16.1,9.7-25.9c-4.5-9.8-16-14.2-25.9-9.7c-0.4,0.2-0.8,0.6-1.2,0.8
	c-0.3,0.1-0.6,0.4-0.9,0.5l-51.4,23.3c-5,2.3-7.5,8.1-5.2,13.1l7.8,17.3c2.3,5,8.3,7,13.3,4.7l51.4-23.3c0.3-0.1,0.7-0.2,1-0.4
	C463.9,454,464.4,453.9,464.9,453.7z"/>
<path id="XMLID_542_" class="st5" d="M364,487l-6.8-15c-2-4.3,0-9.4,4.3-11.4l24.3-11c4.3-2,9.4,0,11.4,4.3l6.8,15
	c2,4.3,0,9.4-4.3,11.4l-24.3,11C371.1,493.3,365.9,491.3,364,487z"/>
<path id="XMLID_536_" class="st1" d="M365.6,453.1l0.8-6.7c0.2-1.9,2-3.3,3.9-3.1l22.3,2.7c1.9,0.2,3.3,2,3.1,3.9l-0.8,6.7
	c-0.2,1.9-2,3.3-3.9,3.1l-22.3-2.7C366.8,456.8,365.4,455.1,365.6,453.1z"/>
<path id="XMLID_535_" class="st18" d="M150.2,377.3h39.1c12.6,0,24.7,14,24.7,30.9v101.4v6.6v31.2h-24.7h-39.1H127v-31.2v-6.6V408.1
	C127,391.3,137.6,377.3,150.2,377.3z"/>
<path id="XMLID_534_" class="st18" d="M118.8,392.5c7.5-11.6,19-15.4,25.6-8.4c6.6,7,5.9,22.1-1.6,33.7c-0.3,0.5-0.8,0.9-1.1,1.4
	c-0.2,0.4-0.5,0.7-0.8,1.1L101.7,481c-3.9,6-9.7,8.2-13.1,4.6L77,473.4c-3.4-3.6-2.8-11.4,1-17.3l39.2-60.7c0.3-0.4,0.4-0.8,0.7-1.2
	C118.2,393.6,118.5,393,118.8,392.5z"/>
<path id="XMLID_500_" class="st18" d="M105.3,455.8c-2.2-9.1-10.8-13-19.3-8.7c-8.5,4.3-13.7,15.3-11.5,24.4
	c0.1,0.4,0.3,0.8,0.4,1.1c0,0.3,0.2,0.6,0.3,0.9l11.3,47.7c1.1,4.7,5.4,6.9,9.8,4.7l15-7.6c4.4-2.2,6.8-7.9,5.7-12.6L105.6,458
	c-0.1-0.3-0.1-0.6-0.2-0.9C105.4,456.6,105.4,456.2,105.3,455.8z"/>
<path id="XMLID_499_" class="st15" d="M121.7,532.7l-2.4,2.3c-1.9,1.8-4.5,1.8-5.8-0.1l-8.4-13c-1.2-1.9-0.7-5,1.3-6.8l2.4-2.3
	c1.9-1.8,4.5-1.8,5.8,0.1l8.4,13C124.3,527.8,123.7,530.9,121.7,532.7z"/>
<path id="XMLID_498_" class="st16" d="M116.4,550.3l-10.6,5.4c-4.4,2.2-8.8,0.2-10-4.5l-4.8-20.1c-1.1-4.7,1.6-10.3,5.9-12.6
	l10.6-5.4c4.4-2.2,8.8-0.2,10,4.5l4.8,20.1C123.4,542.4,120.8,548.1,116.4,550.3z"/>
<path id="XMLID_497_" class="st36" d="M164.4,594.3l0.5,141c0,5.4-3,9-7.2,9h-22.8c-4.2,0-7.9-2.6-7.9-8V607.4v-0.8v-59.3h87v59.3
	v0.8v128.8c0,5.4-5.4,8-9.6,8h-22.7c-4.2,0-7.6-3.6-7.6-9l-0.5-141H164.4z"/>
<polygon id="XMLID_494_" class="st4" points="164.3,594.4 160.6,592.7 160.5,740.2 164.3,740.2 "/>
<path id="XMLID_493_" class="st18" d="M196,723.4c13.4,0,24.2,13.5,24.2,30.8h-48.4C171.8,737,182.7,723.4,196,723.4z"/>
<path id="XMLID_491_" class="st18" d="M142.7,723.4c-13.4,0-24.2,13.5-24.2,30.8h48.4C166.9,737,156,723.4,142.7,723.4z"/>
<path id="XMLID_472_" class="st18" d="M210.9,381.6c-10.9-5.1-21.2-1.6-23.1,7.8c-1.9,9.4,5.4,21.2,16.3,26.3c0.5,0.2,1,0.3,1.5,0.5
	c0.3,0.2,0.7,0.3,1.1,0.4l56.8,26.7c5.6,2.6,11,1.1,12-3.7l3.3-16.6c1-4.8-3-10.8-8.5-13.4L213.4,383c-0.4-0.2-0.7-0.4-1.1-0.6
	C211.9,382.2,211.4,381.8,210.9,381.6z"/>
<path id="XMLID_471_" class="st18" d="M258,431.3c-0.1,9.4,7.4,15.2,16.7,13c9.3-2.2,16.9-11.6,16.9-21c0-0.4-0.1-0.8-0.2-1.2
	c0-0.3-0.1-0.6-0.1-0.9l0.3-49.1c0-4.8-3.6-8-8.4-6.9l-16.3,3.9c-4.8,1.1-8.5,6.1-8.5,10.9l-0.3,49.1c0,0.3-0.1,0.6-0.1,0.9
	C258.1,430.4,258,430.8,258,431.3z"/>
<path id="XMLID_470_" class="st16" d="M269.5,336.7l11.6-2.8c4.8-1.1,8.6,1.9,8.6,6.7l-0.1,20.7c0,4.8-3.9,9.7-8.7,10.8l-11.6,2.8
	c-4.8,1.1-8.6-1.9-8.6-6.7l0.1-20.7C260.8,342.7,264.7,337.9,269.5,336.7z"/>
<path id="XMLID_466_" class="st15" d="M260.1,352.6l2.9-1.7c2.3-1.3,4.8-0.7,5.6,1.5l5.1,14.6c0.8,2.2-0.5,5-2.8,6.3L268,375
	c-2.3,1.3-4.8,0.7-5.6-1.5l-5.1-14.6C256.6,356.8,257.8,353.9,260.1,352.6z"/>
<path id="XMLID_465_" class="st37" d="M808.8,377.3h-39.1c-12.6,0-22.7,14-22.7,30.9v101.4v6.6v31.2h22.7h39.1H833v-31.2v-6.6V408.1
	C833,391.3,821.4,377.3,808.8,377.3z"/>
<path id="XMLID_464_" class="st37" d="M839.6,390c-9.3-10.2-21.2-12.1-26.6-4.1c-5.4,8-2.3,22.8,7,33c0.4,0.5,0.9,0.8,1.3,1.2
	c0.3,0.4,0.7,0.6,1,1l48.5,53.5c4.8,5.3,10.9,6.5,13.7,2.4l9.5-14c2.8-4.1,0.9-11.7-3.8-16.9l-48.5-53.5c-0.3-0.3-0.6-0.8-0.9-1.1
	C840.4,391,840,390.4,839.6,390z"/>
<path id="XMLID_463_" class="st37" d="M871.1,444c6.1-7.2,15.5-6.7,21.2,1c5.6,7.7,5.3,19.8-0.8,27c-0.3,0.3-0.6,0.5-0.9,0.8
	c-0.2,0.3-0.4,0.4-0.6,0.7L858.3,511c-3.1,3.7-7.9,3.7-10.8-0.2l-9.9-13.6c-2.9-4-2.5-10.1,0.6-13.8l31.6-37.5
	c0.2-0.2,0.4-0.5,0.6-0.8C870.6,444.8,870.8,444.4,871.1,444z"/>
<path id="XMLID_456_" class="st15" d="M821.6,505.3l1.1,3.1c0.9,2.5,3.3,3.6,5.2,2.5l13.4-7.8c2-1.1,2.8-4.1,1.9-6.7l-1.1-3.1
	c-0.9-2.5-3.3-3.6-5.2-2.5l-13.4,7.8C821.6,499.8,820.7,502.8,821.6,505.3z"/>
<path id="XMLID_455_" class="st16" d="M818.5,523.4l7,9.6c2.9,4,7.8,4.2,10.9,0.5l13.3-15.8c3.1-3.7,3.3-9.9,0.4-13.9l-7-9.6
	c-2.9-4-7.8-4.2-10.9-0.5l-13.3,15.8C815.7,513.2,815.6,519.4,818.5,523.4z"/>
<path id="XMLID_454_" class="st38" d="M794.6,594.3l-0.5,141c0,5.4,3,9,7.2,9h22.8c4.2,0,8.9-2.6,8.9-8V607.4v-0.8v-59.3h-86v59.3
	v0.8v128.8c0,5.4,3.4,8,7.7,8h22.7c4.2,0,7.6-3.6,7.6-9l0.5-141H794.6z"/>
<path id="XMLID_453_" class="st25" d="M763,723.4c-13.4,0-24.2,13.5-24.2,30.8h48.4C787.2,737,776.4,723.4,763,723.4z"/>
<path id="XMLID_452_" class="st25" d="M816.3,723.4c13.4,0,24.2,13.5,24.2,30.8h-48.4C792.2,737,803,723.4,816.3,723.4z"/>
<path id="XMLID_451_" class="st37" d="M736.5,388.3c9.3-10.2,21.2-12.1,26.6-4.1c5.4,8,2.3,22.8-7,33c-0.4,0.5-0.9,0.8-1.3,1.2
	c-0.3,0.4-0.7,0.6-1,1l-48.5,53.5c-4.8,5.3-10.9,6.5-13.7,2.4l-9.5-14c-2.8-4.1-0.9-11.7,3.8-16.9l48.5-53.5
	c0.3-0.3,0.6-0.8,0.9-1.1C735.7,389.3,736.1,388.8,736.5,388.3z"/>
<path id="XMLID_450_" class="st30" d="M853.3,288.7c0-0.9,0-1.8,0-2.7c0-26.3-11.9-49.5-29.9-62.7c0,0.6,0.1,1.1,0.1,1.7
	c0,21.2-31.8,38.3-71,38.3c-8.7,0-17.1-0.8-24.8-2.4c-2.4,7.8-3.8,16.3-3.8,25c0,1.4-0.4,2.8-0.4,4.2c-0.1,0.3-0.6,0.7-0.6,1v72.6
	c0,2.9,3.4,5.4,6.5,5.4h118.9c3,0,5.6-2.5,5.6-5.4v-72.6C854,290.3,853.7,289.4,853.3,288.7z"/>
<path id="XMLID_449_" class="st16" d="M807,361.4c0-8.9-8.7-18.1-18.4-18.1h-0.2c-9.7,0-18.4,9.2-18.4,18.1v14.2
	c0,0.6,0.4,1.1,0.5,1.6c-0.1,0.4,0.1,0.7,0.1,1.2c0,6.5,8,11.7,17.8,11.7s17.8-5.3,17.8-11.7c0-0.4,0.4-0.8,0.3-1.2
	c0.1-0.5,0.5-1,0.5-1.6V361.4z"/>
<ellipse id="XMLID_448_" class="st15" cx="788.5" cy="364.7" rx="17.8" ry="12.8"/>
<g id="XMLID_445_">
	<ellipse id="XMLID_447_" class="st16" cx="842.6" cy="295.4" rx="12.7" ry="13.7"/>
	<ellipse id="XMLID_446_" class="st15" cx="842.6" cy="295.4" rx="7.1" ry="8"/>
</g>
<g id="XMLID_442_">
	<ellipse id="XMLID_444_" class="st16" cx="734.2" cy="295.4" rx="12.7" ry="13.7"/>
	<ellipse id="XMLID_443_" class="st15" cx="734.2" cy="295.4" rx="7.1" ry="8"/>
</g>
<ellipse id="XMLID_441_" class="st16" cx="788.9" cy="301.8" rx="55" ry="67.2"/>
<path id="XMLID_440_" class="st17" d="M823.5,225.2c0-0.6,0-1.2-0.1-1.8c-10-7.9-22-12.4-34.8-12.4c-28.1,0-52,21.9-60.9,52.4
	c7.7,1.6,16.1,2.5,24.8,2.5C791.7,265.9,823.5,247.7,823.5,225.2z"/>
<g id="XMLID_434_">
	<circle id="XMLID_437_" class="st13" cx="768" cy="296.1" r="9"/>
	<circle id="XMLID_435_" class="st13" cx="809.9" cy="296.1" r="9"/>
</g>
<path id="XMLID_433_" class="st15" d="M791.2,321.8h-4.5c-1.3,0-2.4-1.1-2.4-2.4V296c0-1.3,1.1-2.4,2.4-2.4h4.5
	c1.3,0,2.4,1.1,2.4,2.4v23.4C793.6,320.7,792.5,321.8,791.2,321.8z"/>
<path id="XMLID_432_" class="st28" d="M776.5,339.3c-1.1,2-1.7,3.5-1.7,5.9c0,2.1,0.5,3.8,1.4,5.6c3-1.8,7.6-3.1,12.7-3.1
	c5,0,9.4,1,12.4,2.7c0.8-1.7,1.3-3.1,1.3-5.1c0-2.4-0.6-3.9-1.7-5.9H776.5z"/>
<path id="XMLID_431_" class="st22" d="M801,339.3h3c0-4-4.3-7.8-9.7-7.8c-0.9,0-1.8,0.4-2.6,0.6C795.7,333,799.1,335.3,801,339.3z"
	/>
<path id="XMLID_430_" class="st22" d="M785.8,331.8c-0.8-0.2-1.7,0-2.7,0c-5.3,0-9.7,3.5-9.7,7.5h3
	C778.4,335.3,781.8,332.6,785.8,331.8z"/>
<path id="XMLID_429_" class="st22" d="M791.7,331.8c-1.1,0.2-2.1,0.3-2.9,0.8c-0.9-0.5-1.9-0.4-2.9-0.6c-4,0.8-7.4,3.3-9.3,7.3H801
	C799.1,335.3,795.7,332.7,791.7,331.8z"/>
<path id="XMLID_428_" class="st22" d="M788.7,358.2c5.6,0,10.4-3.2,12.6-7.9c-3-1.7-7.4-2.8-12.4-2.8c-5.2,0-9.8,1.2-12.7,3
	C778.5,355,783.2,358.2,788.7,358.2z"/>
<rect id="XMLID_427_" x="773.6" y="337.1" class="st7" width="30.5" height="5.1"/>
<path id="XMLID_426_" class="st30" d="M817,221.5c0-0.6,0-1.2-0.1-1.8c-10-7.9-22-12.4-34.8-12.4c-28.1,0-52,21.9-60.9,52.4
	c7.7,1.6,16.1,2.5,24.8,2.5C785.2,262.2,817,244,817,221.5z"/>
<path id="XMLID_425_" class="st3" d="M399.6,410.3h-46.1c-14.9,0-24.5,14.9-24.5,30.5v93.8v6.1v29.7h24.5h46.1H428v-29.7v-6.1v-93.8
	C428,425.2,414.4,410.3,399.6,410.3z"/>
<path id="XMLID_424_" class="st3" d="M435.9,423.9c-11-9.5-25-11.2-31.4-3.8c-6.4,7.4-2.7,21,8.3,30.5c0.5,0.4,1.1,0.7,1.6,1.1
	c0.3,0.3,0.8,0.6,1.1,0.9l57.2,49.5c5.6,4.9,12.8,6,16.1,2.3l11.2-13c3.3-3.8,1.1-10.8-4.5-15.7l-57.2-49.5c-0.4-0.3-0.7-0.7-1-1
	C436.8,424.9,436.3,424.4,435.9,423.9z"/>
<path id="XMLID_423_" class="st32" d="M329,570.3v54v0.8v119.1c0,5,1.7,8.1,6.7,8.1h26.8c5,0,10.5-3.1,10.5-8.1V626.8
	c3,0.3,2.1,0.5,3.8,0.5c1.9,0,2.2-0.2,4.2-0.6v117.4c0,5,4.7,8.1,9.7,8.1h26.9c5,0,10.5-3.1,10.5-8.1V625v-0.8v-54H329z"/>
<path id="XMLID_422_" class="st33" d="M345.5,725.8c-15.7,0-28.5,10.3-28.5,28.5h57C374,736.1,361.3,725.8,345.5,725.8z"/>
<path id="XMLID_421_" class="st33" d="M408.4,725.8c15.7,0,28.5,10.3,28.5,28.5h-57C379.9,736.1,392.7,725.8,408.4,725.8z"/>
<path id="XMLID_420_" class="st3" d="M314.3,422.4c11-9.5,25-11.2,31.4-3.8c6.4,7.4,2.7,21-8.3,30.5c-0.5,0.4-1.1,0.7-1.6,1.1
	c-0.3,0.3-0.8,0.6-1.1,0.9l-57.2,49.5c-5.6,4.9-12.8,6-16.1,2.3l-11.2-13c-3.3-3.8-1.1-10.8,4.5-15.7l57.2-49.5c0.4-0.3,0.7-0.7,1-1
	C313.4,423.4,313.8,422.9,314.3,422.4z"/>
<path id="XMLID_419_" class="st3" d="M277.2,472.4c-7.1-6.6-18.3-6.2-25,0.9c-6.6,7.1-6.2,18.3,0.9,25c0.3,0.3,0.7,0.5,1.1,0.8
	c0.2,0.2,0.5,0.4,0.8,0.6l37.3,34.7c3.7,3.4,9.3,3.5,12.8-0.2l11.7-12.5c3.4-3.7,3-9.4-0.7-12.8l-37.3-34.7
	c-0.2-0.2-0.4-0.5-0.7-0.7C277.8,473.1,277.6,472.7,277.2,472.4z"/>
<path id="XMLID_418_" class="st39" d="M337.9,527.8l-2.5,5.5c-0.7,1.6-2.6,2.3-4.2,1.6l-18.4-8.4c-1.6-0.7-2.3-2.6-1.6-4.2l2.5-5.5
	c0.7-1.6,2.6-2.3,4.2-1.6l18.4,8.4C337.9,524.3,338.6,526.2,337.9,527.8z"/>
<path id="XMLID_417_" class="st0" d="M340.1,544.9L330,555.7c-2.9,3.1-7.9,3.3-11,0.4l-17.7-16.4c-3.1-2.9-3.3-7.9-0.4-11l10.1-10.9
	c2.9-3.1,7.9-3.3,11-0.4l17.7,16.4C342.9,536.8,343.1,541.7,340.1,544.9z"/>
<path id="XMLID_416_" class="st31" d="M548.1,722.7c-17.4,0-31.6,13.4-31.6,31.6h63.1C579.7,736.1,565.6,722.7,548.1,722.7z"/>
<path id="XMLID_415_" class="st31" d="M615.5,722.7c17.4,0,31.6,13.4,31.6,31.6h-63.1C583.9,736.1,598.1,722.7,615.5,722.7z"/>
<ellipse id="XMLID_414_" class="st35" cx="656.9" cy="283.2" rx="14.3" ry="15.5"/>
<ellipse id="XMLID_413_" class="st15" cx="656.9" cy="283.2" rx="8" ry="9"/>
<ellipse id="XMLID_412_" class="st35" cx="506.9" cy="283.2" rx="14.3" ry="15.5"/>
<ellipse id="XMLID_411_" class="st15" cx="506.9" cy="283.2" rx="8" ry="9"/>
<path id="XMLID_410_" class="st26" d="M516.4,205.6c-9.3,13.2-14.7,29.3-14.7,46.7c0,44.6,35.9,80.8,80.2,80.8
	c44.3,0,80.2-36.2,80.2-80.8c0-17.3-5.4-33.3-14.6-46.5c-16.6,5.6-39.7,9.1-65.2,9.1C556.4,215,533.1,211.4,516.4,205.6z"/>
<ellipse id="XMLID_409_" class="st35" cx="581.8" cy="278.3" rx="75.3" ry="90"/>
<path id="XMLID_408_" class="st26" d="M581.8,171.5c-27,0-50.9,13.5-65.4,34.1c16.7,5.8,40,9.3,65.8,9.3c25.5,0,48.6-3.5,65.2-9.1
	C632.8,185.1,608.9,171.5,581.8,171.5z"/>
<path id="XMLID_407_" class="st15" d="M584.1,310.9h-4.5c-3.6,0-6.6-3-6.6-6.6v-45.5c0-3.6,3-6.6,6.6-6.6h4.5c3.6,0,6.6,3,6.6,6.6
	v45.5C590.7,308,587.7,310.9,584.1,310.9z"/>
<path id="XMLID_403_" d="M633.8,258.3h-45.3c-2.3,0-4.4,2.4-4.4,4.7v7.3h-5V263c0-2.3-1.1-4.7-3.4-4.7h-45.3c-2.3,0-4.3,2.4-4.3,4.7
	v23.5c0,2.3,2,3.8,4.3,3.8h45.3c2.3,0,3.4-1.5,3.4-3.8v-12.2h5v12.2c0,2.3,2.2,3.8,4.4,3.8h45.3c2.3,0,4.2-1.5,4.2-3.8V263
	C638,260.7,636.1,258.3,633.8,258.3z M575,280.1c0,2.3-1.9,4.2-4.2,4.2h-37.7c-2.3,0-4.2-1.9-4.2-4.2v-14.7c0-2.3,1.9-4.2,4.2-4.2
	h37.7c2.3,0,4.2,1.9,4.2,4.2V280.1z M634,280.1c0,2.3-1.9,4.2-4.2,4.2h-37.7c-2.3,0-4.2-1.9-4.2-4.2v-14.7c0-2.3,1.9-4.2,4.2-4.2
	h37.7c2.3,0,4.2,1.9,4.2,4.2V280.1z"/>
<g id="XMLID_400_">
	<ellipse id="XMLID_402_" class="st13" cx="555.4" cy="273.7" rx="10.8" ry="10.4"/>
	<ellipse id="XMLID_401_" class="st13" cx="608.3" cy="273.1" rx="10.8" ry="10.4"/>
</g>
<path id="XMLID_399_" class="st13" d="M564.4,341.5c4.1-3.3,10.3-5.4,17.3-5.4c7,0,13.3,2.1,17.4,5.4c3.5-3.5,5.8-7.3,6.2-13.3h-47
	C558.7,334.3,560.9,338,564.4,341.5z"/>
<path id="XMLID_398_" class="st22" d="M564.4,341.6c4.3,4.4,10.5,7.2,17.4,7.2c6.8,0,13-2.7,17.3-7.1c-4.1-3.4-10.4-5.5-17.4-5.5
	C574.7,336.2,568.5,338.3,564.4,341.6z"/>
<path id="XMLID_397_" class="st7" d="M605.7,328.3v-1.6c0,0.6-0.4,0.6-0.4,1.6H605.7z"/>
<path id="XMLID_396_" class="st7" d="M558.7,328.3h-0.4c0-1,0.4-1,0.4-1.6V328.3z"/>
<path id="XMLID_395_" class="st7" d="M606,325.8v-9.5h-3.3h-41.8H559v8.2c0,0.8-0.5,1.4-0.5,2.2c0,0.6-0.3,0.6-0.3,1.6h47
	c0-1,0.4-1,0.4-1.6C605.7,326.3,606,326.1,606,325.8z"/>
<path id="XMLID_394_" class="st16" d="M152.2,380.2c0,5.1,8.8,9.2,18.5,9.2c9.7,0,18-4.1,18-9.2c0-0.3,0.3-2.2,0.3-2.2l0,0V367
	c0-7-8.4-12.7-18-12.7h-0.2c-9.6,0-18.8,5.7-18.8,12.7v13.3"/>
<ellipse id="XMLID_393_" class="st15" cx="170.4" cy="364.1" rx="17.6" ry="12.7"/>
<g id="XMLID_386_">
	<ellipse id="XMLID_389_" class="st16" cx="98.2" cy="274.1" rx="14" ry="15.1"/>
	<ellipse id="XMLID_387_" class="st15" cx="98.2" cy="274.1" rx="7.8" ry="8.7"/>
</g>
<g id="XMLID_383_">
	<ellipse id="XMLID_385_" class="st16" cx="241.2" cy="274.9" rx="14" ry="15.1"/>
	<ellipse id="XMLID_384_" class="st15" cx="241.2" cy="274.9" rx="7.8" ry="8.7"/>
</g>
<ellipse id="XMLID_382_" class="st16" cx="170.2" cy="282.9" rx="69" ry="85.3"/>
<path id="XMLID_381_" class="st5" d="M151.6,178.8l4.9,2.1c10.2-8,27.3-13.6,54.5-4.1c54.7,19.1,41.7,72,41.7,72
	c-44,0.4-80-23.7-97.9-38.4c-8.8,13.2,4-0.9-9.7-0.1C118.4,211.9,151.6,178.8,151.6,178.8z"/>
<path id="XMLID_380_" class="st1" d="M141.5,190.5l4.9,2.1c10.2-8,27.3-13.6,54.5-4.1c54.7,19.1,41.7,72,41.7,72
	c-44,0.4-80-23.7-97.9-38.4c-8.8,13.2-21.2,27-35,27.8C83.1,251.4,141.5,190.5,141.5,190.5z"/>
<path id="XMLID_379_" class="st15" d="M170.2,307.1L170.2,307.1c4.9,0,8.8-4,8.8-8.8v-28.9c0-4.9-4-8.8-8.8-8.8h0
	c-4.9,0-8.8,4-8.8,8.8v28.9C161.3,303.1,165.3,307.1,170.2,307.1z"/>
<g id="XMLID_376_">
	<circle id="XMLID_378_" class="st31" cx="197.7" cy="274.9" r="7.8"/>
	<circle id="XMLID_377_" class="st31" cx="142" cy="274.3" r="7.2"/>
</g>
<path id="XMLID_375_" class="st22" d="M142.9,326.9c0-0.2,0-0.6,0-0.6h0.1c1-5,8.5-6.9,17.6-6.9c3.3,0,6.4,0.2,9,0.8
	c2.6-0.5,5.6-0.6,8.7-0.6c10,0,18.1,2.7,18.9,6.7h0.1c0,0,0,0.4,0,0.6c0,0.1,0,0.4,0,0.4h0c-0.5,8-10.6,15.5-27.2,15.5
	c-16.4,0-26.5-7.5-27.2-15.5h0C142.9,327.3,142.9,327,142.9,326.9z"/>
<path id="XMLID_374_" class="st7" d="M170.2,327.1"/>
<path id="XMLID_373_" class="st7" d="M143.5,324.8c0,5.4,11.6,11.8,26.6,11.8s27-5.8,27-11.2c0,0-10,0.6-27,0.6
	C154,326,143.5,324.8,143.5,324.8z"/>
<path id="XMLID_372_" class="st5" d="M144.3,222.4l-2.3-9.1c0,0,71.9,52.9,103.9,41.4C246,254.7,243.2,292.7,144.3,222.4z"/>
<path id="XMLID_371_" class="st0" d="M358.1,412.6c0,5.1,8.8,9.4,18.5,9.4s18-4,18-9.1c0-0.3,0.4-2.1,0.4-2.1l0,0v-11.1
	c0-7-8.5-12.5-18.1-12.5h-0.2c-9.6,0-18.7,5.5-18.7,12.5v12.5"/>
<ellipse id="XMLID_370_" class="st39" cx="306.3" cy="309.3" rx="7.5" ry="11.6"/>
<ellipse id="XMLID_369_" class="st39" cx="376.3" cy="396.9" rx="17.6" ry="12.7"/>
<ellipse id="XMLID_368_" class="st0" cx="445.2" cy="311.6" rx="13.6" ry="20.1"/>
<ellipse id="XMLID_367_" class="st39" cx="445.2" cy="311.6" rx="7.5" ry="11.6"/>
<path id="XMLID_366_" class="st0" d="M443,226.2c0-5-4.2-9.9-9.2-9.9H319.9c-5,0-8.9,4.9-8.9,9.9v109.5c0,0,0,0.1,0,0.1
	c0,0.1-0.1,0.2-0.1,0.4c0,36.4,29.5,66,65.9,66c36.4,0,66-29.5,66-66c0-0.1,0.1-0.2,0.1-0.4c0,0,0.1-0.1,0.1-0.1V226.2z"/>
<path id="XMLID_365_" d="M430.9,264.1H322.9c-6.6,0-12-5.4-12-12V214c0-6.6,5.4-12,12-12h108.1c6.6,0,12,5.4,12,12v38.1
	C442.9,258.7,437.5,264.1,430.9,264.1z"/>
<rect id="XMLID_364_" x="291.4" y="254.4" width="170.9" height="27.3"/>
<g id="XMLID_361_">
	<circle id="XMLID_363_" cx="350.9" cy="310" r="8.7"/>
	<circle id="XMLID_362_" cx="402.9" cy="310" r="8.7"/>
</g>
<path id="XMLID_360_" class="st39" d="M376.9,346.5L376.9,346.5c-6,0-10.9-4.9-10.9-10.9v-34.1c0-6,4.9-10.9,10.9-10.9h0
	c6,0,10.9,4.9,10.9,10.9v34.1C387.8,341.6,382.9,346.5,376.9,346.5z"/>
<path id="XMLID_359_" class="st39" d="M384,346.5h-14.1c-5.6,0-10.1-4.5-10.1-10.1l0,0c0-5.6,4.5-10.1,10.1-10.1H384
	c5.6,0,10.1,4.5,10.1,10.1l0,0C394.1,342,389.5,346.5,384,346.5z"/>
<path id="XMLID_358_" class="st22" d="M377,377.6c8.1,0,15.1-3.5,18.3-8.5c-5.1-1.2-11.5-2-18.3-2s-13.2,0.7-18.3,2
	C361.9,374.1,368.9,377.6,377,377.6z"/>
<path id="XMLID_356_" d="M358.7,369.3c5.1-1.2,11.5-2.1,18.3-2.1s13.2,0.9,18.3,2.1c1.2-1.9,1.9-4.1,1.9-6.1h-40.5
	C356.7,365.3,357.4,367.4,358.7,369.3z"/>
<polygon id="XMLID_355_" class="st7" points="393.2,354.3 360.8,354.3 356.6,354.3 356,363.3 356,363.3 356,363.3 397.3,363.3 
	397.3,354.3 "/>
<path id="XMLID_354_" class="st3" d="M471.1,489.3c0.2,11.5,7.9,18.9,17.1,16.4c9.3-2.5,16.6-13.8,16.4-25.4c0-0.5-0.2-1-0.2-1.5
	c0-0.4-0.1-0.7-0.1-1.1l-1-60.2c-0.1-5.9-3.8-9.9-8.6-8.6l-16.3,4.4c-4.8,1.3-8.4,7.2-8.2,13.1l1,60.2c0,0.4-0.1,0.8,0,1.2
	C471.2,488.3,471.1,488.8,471.1,489.3z"/>
<path id="XMLID_353_" class="st0" d="M480.9,380.5l11.6-2.8c4.8-1.1,8.6,1.9,8.6,6.7l-0.1,20.7c0,4.8-3.9,9.7-8.7,10.8l-11.6,2.8
	c-4.8,1.1-8.6-1.9-8.6-6.7l0.1-20.7C472.2,386.5,476.1,381.6,480.9,380.5z"/>
<path id="XMLID_352_" class="st39" d="M471.5,396.3l2.9-1.7c2.3-1.3,4.8-0.7,5.6,1.5l5.1,14.6c0.8,2.2-0.5,5-2.8,6.3l-2.9,1.7
	c-2.3,1.3-4.8,0.7-5.6-1.5l-5.1-14.6C467.9,400.5,469.2,397.6,471.5,396.3z"/>
<path id="XMLID_349_" class="st37" d="M704.5,464.1c0.1,9.4-7.4,15.2-16.7,13c-9.3-2.2-16.9-11.6-16.9-21c0-0.4,0.1-0.8,0.2-1.2
	c0-0.3,0.1-0.6,0.1-0.9l-0.3-49.1c0-4.8,3.6-8,8.4-6.9l16.3,3.9c4.8,1.1,8.5,6.1,8.5,10.9l0.3,49.1c0,0.3,0.1,0.6,0.1,0.9
	C704.3,463.2,704.5,463.6,704.5,464.1z"/>
<path id="XMLID_348_" class="st16" d="M693,369.5l-11.6-2.8c-4.8-1.1-8.6,1.9-8.6,6.7l0.1,20.7c0,4.8,3.9,9.7,8.7,10.8l11.6,2.8
	c4.8,1.1,8.6-1.9,8.6-6.7l-0.1-20.7C701.7,375.6,697.8,370.7,693,369.5z"/>
<path id="XMLID_347_" class="st15" d="M702.3,385.4l-2.9-1.7c-2.3-1.3-4.8-0.7-5.6,1.5l-5.1,14.6c-0.8,2.2,0.5,5,2.8,6.3l2.9,1.7
	c2.3,1.3,4.8,0.7,5.6-1.5l5.1-14.6C705.9,389.6,704.7,386.7,702.3,385.4z"/>
<g id="XMLID_343_">
	<path id="XMLID_346_" class="st23" d="M1813,412.3c-0.1,9.4,7.4,15.2,16.7,13c9.3-2.2,16.9-11.6,16.9-21c0-0.4-0.1-0.8-0.2-1.2
		c0-0.3-0.1-0.6-0.1-0.9l0.3-49.1c0-4.8-3.6-8-8.4-6.9l-16.3,3.9c-4.8,1.1-8.5,6.1-8.5,10.9l-0.3,49.1c0,0.3-0.1,0.6-0.1,0.9
		C1813.1,411.4,1813,411.9,1813,412.3z"/>
	<path id="XMLID_345_" class="st16" d="M1824.4,317.8l11.6-2.8c4.8-1.1,8.6,1.9,8.6,6.7l-0.1,20.7c0,4.8-3.9,9.7-8.7,10.8l-11.6,2.8
		c-4.8,1.1-8.6-1.9-8.6-6.7l0.1-20.7C1815.7,323.8,1819.7,318.9,1824.4,317.8z"/>
	<path id="XMLID_344_" class="st15" d="M1815.1,333.6l2.9-1.7c2.3-1.3,4.8-0.7,5.6,1.5l5.1,14.6c0.8,2.2-0.5,5-2.8,6.3l-2.9,1.7
		c-2.3,1.3-4.8,0.7-5.6-1.5l-5.1-14.6C1811.5,337.8,1812.8,334.9,1815.1,333.6z"/>
</g>
<path id="XMLID_257_" class="st13" d="M983,322.3h-84.9c-27.4,0-47.1,22.7-47.1,47.3v147.9v9.6v47.2h47.1H983h53v-47.2v-9.6V369.6
	C1036,345,1010.4,322.3,983,322.3z"/>
<path id="XMLID_256_" class="st13" d="M1033.3,341.1c-16-13.8-37.7-15-48.5-2.5c-10.8,12.5-6.6,33.8,9.4,47.7
	c0.7,0.6,1.6,1.1,2.3,1.6c0.5,0.5,1.1,0.8,1.7,1.3l83.6,72.3c8.2,7.1,19.3,8.2,24.9,1.8l19-21.9c5.5-6.4,2.9-17.3-5.3-24.4
	l-83.6-72.3c-0.5-0.5-1-1-1.5-1.4C1034.6,342.5,1034,341.7,1033.3,341.1z"/>
<path id="XMLID_190_" class="st16" d="M909.8,323.4c0,9.3,15.9,17,33.8,17s32.9-7.5,32.9-16.8c0-0.6,0.4-3.9,0.4-3.9l0,0v-20.4
	c0-12.8-15.3-21.9-33.1-21.9h-0.3c-17.7,0-33.6,9.1-33.6,21.9v24.1"/>
<ellipse id="XMLID_172_" class="st15" cx="942.9" cy="294" rx="32.4" ry="23.4"/>
<path id="XMLID_250_" class="st13" d="M1085.4,420.9c10.8-10.9,28.5-11,39.4-0.2c10.9,10.8,11,28.5,0.2,39.4
	c-0.5,0.5-1.1,0.8-1.7,1.3c-0.3,0.4-0.8,0.6-1.2,1l-56.6,57c-5.6,5.6-14.5,6-20.1,0.5l-19.2-19c-5.6-5.6-5.3-14.6,0.3-20.2l56.6-57
	c0.4-0.4,0.6-0.8,1-1.1C1084.6,422,1084.9,421.4,1085.4,420.9z"/>
<path id="XMLID_249_" class="st15" d="M995.3,510.2l6,11.9c0.8,1.6,2.7,2.2,4.3,1.4l31.8-16.1c1.6-0.8,2.2-2.7,1.4-4.3l-6-11.9
	c-0.8-1.6-2.7-2.2-4.3-1.4l-31.8,16.1C995.1,506.7,994.5,508.6,995.3,510.2z"/>
<path id="XMLID_248_" class="st16" d="M987.7,535.9l23,22.8c3,3,8,3,11,0l33.1-33.4c3-3,3-8,0-11l-23-22.8c-3-3-8-3-11,0l-33.1,33.4
	C984.6,527.9,984.6,532.9,987.7,535.9z"/>
<g id="XMLID_203_">
	<ellipse id="XMLID_217_" class="st16" cx="1046.6" cy="172.3" rx="21.5" ry="23.2"/>
	<ellipse id="XMLID_204_" class="st15" cx="1046.6" cy="172.3" rx="12" ry="13.4"/>
</g>
<g id="XMLID_196_">
	<ellipse id="XMLID_198_" class="st16" cx="839.8" cy="175.9" rx="21.5" ry="23.2"/>
	<ellipse id="XMLID_197_" class="st15" cx="839.8" cy="175.9" rx="12" ry="13.4"/>
</g>
<ellipse id="XMLID_193_" class="st16" cx="942" cy="175.9" rx="108.1" ry="130.8"/>
<g id="XMLID_107_">
	<circle id="XMLID_133_" class="st31" cx="905.1" cy="173.5" r="12"/>
	<circle id="XMLID_108_" class="st31" cx="979.9" cy="172.5" r="11"/>
</g>
<path id="XMLID_103_" class="st15" d="M949.5,219.2h-12.6c-2.5,0-4.6-2.1-4.6-4.6v-57.7c0-2.5,2.1-4.6,4.6-4.6h12.6
	c2.5,0,4.6,2.1,4.6,4.6v57.7C954.1,217.1,952.1,219.2,949.5,219.2z"/>
<path id="XMLID_102_" class="st15" d="M956.8,214.9h-27.1c-2.3,0-4.3-1.9-4.3-4.3v-9.3c0-2.3,1.9-4.3,4.3-4.3h27.1
	c2.3,0,4.3,1.9,4.3,4.3v9.3C961.1,213,959.2,214.9,956.8,214.9z"/>
<path id="XMLID_101_" class="st7" d="M972.5,243.4c0,11-13.7,19.9-30.7,19.9c-16.9,0-30.7-8.9-30.7-19.9c0-11,13.7,6.9,30.7,6.9
	C958.8,250.3,972.5,232.4,972.5,243.4z"/>
<path id="XMLID_100_" class="st15" d="M972.5,249.4c0,11-13.7,19.9-30.7,19.9c-16.9,0-30.7-8.9-30.7-19.9s13.7,6.9,30.7,6.9
	C958.8,256.3,972.5,238.3,972.5,249.4z"/>
<path id="XMLID_98_" class="st3" d="M852.5,574.3v84.9v1.2v187.9c0,7.9,5.1,13,14.2,13h48.6c9.1,0,19.2-5.1,19.2-13V663.2
	c5,0.5,4,0.8,7.2,0.8c3.4,0,1.8-0.3,7.8-1v185.2c0,7.9,7.7,13,16.8,13h48.7c9.1,0,19.5-5.1,19.5-13V660.4v-1.2v-84.9H852.5z"/>
<path id="XMLID_97_" class="st33" d="M893.1,819.3c-24.8,0-45,16.2-45,45h89.9C938.1,835.5,917.9,819.3,893.1,819.3z"/>
<path id="XMLID_96_" class="st33" d="M992.3,819.3c24.8,0,45,16.2,45,45h-89.9C947.3,835.5,967.5,819.3,992.3,819.3z"/>
<path id="XMLID_95_" class="st13" d="M846.9,338c15.6-13.5,37.7-13.3,49.5,0.4c11.8,13.6,8.8,35.6-6.8,49.1c-0.7,0.6-1.6,1-2.3,1.5
	c-0.5,0.5-1.1,0.8-1.6,1.2l-81.2,70.2c-8,6.9-19.3,7.3-25.4,0.3l-20.7-24c-6.1-7-4-18.2,3.9-25.1l81.2-70.2c0.5-0.5,0.9-1,1.5-1.4
	C845.7,339.4,846.2,338.6,846.9,338z"/>
<path id="XMLID_94_" class="st13" d="M795.3,420.6c-10.4-11.3-28.1-12-39.4-1.5c-11.3,10.4-12,28.1-1.5,39.4
	c0.5,0.5,1.1,0.9,1.6,1.3c0.3,0.4,0.8,0.7,1.1,1l54.5,59c5.4,5.8,14.3,6.6,20.1,1.2l19.9-18.4c5.8-5.4,5.8-14.4,0.4-20.2l-54.5-59
	c-0.3-0.4-0.6-0.8-1-1.2C796.1,421.8,795.8,421.1,795.3,420.6z"/>
<path id="XMLID_93_" class="st15" d="M882.2,513l-6.4,11.7c-0.8,1.5-2.8,2.1-4.3,1.3l-31.2-17.2c-1.5-0.8-2.1-2.8-1.3-4.3l6.4-11.7
	c0.8-1.5,2.8-2.1,4.3-1.3l31.2,17.2C882.5,509.5,883.1,511.5,882.2,513z"/>
<path id="XMLID_92_" class="st16" d="M888.9,539l-23.8,22c-3.1,2.9-8.1,2.7-11-0.4L822.3,526c-2.9-3.1-2.7-8.1,0.4-11l23.8-22
	c3.1-2.9,8.1-2.7,11,0.4l31.9,34.5C892.3,531.1,892.1,536.1,888.9,539z"/>
<path id="XMLID_495_" class="st40" d="M1068.1,78.1c-8.5-79.4-190.5-84.5-213.4-39.5c-7.4-1.1-20,1.2-29.6,24.4
	c-14.6,34.9,6.7,103.1,18.6,104.2c17.2,1.6,14.1-58.1,26.1-66c36.8,1.9,93.2,6.1,136.4,3.5c29.6,17,28.5,44.4,28.5,44.4
	s9.1,24.8,15.5,0c5.4-21.3,7.5-39.3,6.9-54.4C1064.7,90.7,1068.9,85.3,1068.1,78.1z"/>
</svg>
