<?xml version="1.0" encoding="utf-8"?>
<!-- Generator: Adobe Illustrator 19.0.0, SVG Export Plug-In . SVG Version: 6.00 Build 0)  -->
<svg version="1.1" xmlns="http://www.w3.org/2000/svg" xmlns:xlink="http://www.w3.org/1999/xlink" x="0px" y="0px"
	 viewBox="0 0 300 300" style="enable-background:new 0 0 300 300;" xml:space="preserve">
<style type="text/css">
	.st0{fill:#AF6EE8;}
	.st1{fill:#FCEE21;}
	.st2{fill:#F2CBA0;}
	.st3{fill:#E8B282;}
	.st4{fill:#F7E641;}
	.st5{fill:#333333;}
	.st6{fill:#1A1A1A;}
	.st7{fill:#ED1E79;}
	.st8{fill:#FFFFFF;}
</style>
<g id="Layer_1">
	<path id="XMLID_314_" class="st0" d="M236.9,294.3l-12.1-35.5c-0.4-0.4-0.8-0.5-1.2-0.8c-0.5-0.5-1-1-1.6-1.5
		c-8.4-7.3-18.4-10.6-26.4-9.6c-4.8-3.2-10.4-5.1-16.3-5.1h-54.2c-5.6,0-10.7,1.7-15.1,4.5c-8.5-3.3-20.9-0.2-31,8.6
		c-0.6,0.5-1.1,1.1-1.6,1.6c-0.4,0.3-0.8,0.1-1.2,0.5l-16.2,37.3H236.9z"/>
</g>
<g id="Layer_2">
	<path id="XMLID_67_" class="st1" d="M242.2,120.8c0-1.3,0.1-2.5,0.1-3.8c0-37.2-16.8-69.8-42.1-88.4c0.1,0.8,0.1,1.6,0.1,2.4
		c0,29.9-44.9,54.1-100.2,54.1c-12.3,0-24.1-1.2-34.9-3.4c-3.4,11-5.3,22.9-5.3,35.3c0,2,0.1,4,0.2,5.9c-0.1,0.5-0.1,0.9-0.1,1.4
		v102.5c0,4,3.3,8.1,7.6,8.1h167.9c4.3,0,7.5-4,7.5-8.1V124.4C243,123.1,242.8,121.9,242.2,120.8z"/>
	<g id="XMLID_349_">
		<path id="XMLID_351_" class="st2" d="M177.7,243.5l-0.2-27h-50l0.4,27.9c0,8.5,11.1,15.2,24.9,15.2c13.7,0,24.9-7,24.9-15.5
			C177.7,244,177.7,243.5,177.7,243.5L177.7,243.5z"/>
		<ellipse id="XMLID_350_" class="st3" cx="152.8" cy="217.8" rx="24.9" ry="15.4"/>
	</g>
	<g id="XMLID_332_">
		<ellipse id="XMLID_348_" class="st2" cx="77.6" cy="120.3" rx="14.7" ry="15.8"/>
		<ellipse id="XMLID_336_" class="st3" cx="77.6" cy="120.3" rx="8.2" ry="9.2"/>
	</g>
	<g id="XMLID_329_">
		<ellipse id="XMLID_331_" class="st2" cx="227.9" cy="119.5" rx="14.7" ry="15.8"/>
		<ellipse id="XMLID_330_" class="st3" cx="227.9" cy="119.5" rx="8.2" ry="9.2"/>
	</g>
	<path id="XMLID_328_" class="st2" d="M228.2,132.4c0,51.2-33.6,92.7-75.1,92.7s-75.1-41.5-75.1-92.7s33.6-65.1,75.1-65.1
		S228.2,81.2,228.2,132.4z"/>
	<path id="XMLID_70_" class="st4" d="M200.3,31.2c0-0.9,0-1.7-0.1-2.6c-14.2-11.1-31-17.5-49.1-17.5c-39.6,0-73.3,30.8-86,73.9
		c10.9,2.3,22.7,3.6,35,3.6C155.5,88.7,200.3,62.9,200.3,31.2z"/>
	<path id="XMLID_72_" class="st1" d="M191.2,26c0-0.9,0-1.7-0.1-2.6c-14.2-11.1-31-17.5-49.1-17.5c-39.6,0-73.3,30.8-86,73.9
		c10.9,2.3,22.7,3.6,35,3.6C146.4,83.5,191.2,57.7,191.2,26z"/>
	<path id="XMLID_327_" class="st3" d="M158.9,151.3c0,3.7-3,6.7-6.7,6.7l0,0c-3.7,0-6.7-3-6.7-6.7v-36c0-3.7,3-6.7,6.7-6.7l0,0
		c3.7,0,6.7,3,6.7,6.7V151.3z"/>
	<g id="XMLID_324_">
		<circle id="XMLID_326_" class="st5" cx="127.3" cy="120.5" r="12.7"/>
		<circle id="XMLID_325_" class="st5" cx="179.5" cy="119.7" r="12.7"/>
	</g>
	<g id="XMLID_316_">
		<path id="XMLID_322_" class="st6" d="M136.4,178.3c-1.5,4.5-2.3,5.9-2.3,9.1c0,2.9,0.7,5.8,1.9,8.3c4.1-2.5,10.5-4.1,17.7-4.1
			c6.9,0,13.1,1.5,17.3,3.9c1.1-2.4,1.8-5.2,1.8-8.1c0-3.3-0.8-4.6-2.3-9.1H136.4z"/>
		<path id="XMLID_321_" class="st7" d="M153.4,206.5c7.8,0,14.5-4.5,17.5-11c-4.1-2.4-10.3-3.9-17.3-3.9c-7.2,0-13.6,1.6-17.7,4.1
			C139.1,202.1,145.7,206.5,153.4,206.5z"/>
		<rect id="XMLID_320_" x="131.9" y="176.1" class="st8" width="42.7" height="9"/>
		<path id="XMLID_317_" class="st7" d="M160.7,168.5c-1.3,0-2.5,0.5-3.7,0.8c-1.4,0.3-2.7,0.8-3.9,1.4c-1.2-0.6-2.4-0.9-3.8-1.2
			c-1.2-0.3-2.4-1-3.7-1c-6.5,0-11.9,3.1-13.2,7.6h20.6h20.8C172.6,171.6,167.2,168.5,160.7,168.5z M153.1,170.7
			C153.1,170.7,153.1,170.7,153.1,170.7C153.1,170.7,153.1,170.7,153.1,170.7L153.1,170.7z"/>
	</g>
</g>
</svg>
