<?xml version="1.0" encoding="utf-8"?>
<!-- Generator: Adobe Illustrator 19.0.0, SVG Export Plug-In . SVG Version: 6.00 Build 0)  -->
<svg version="1.1" xmlns="http://www.w3.org/2000/svg" xmlns:xlink="http://www.w3.org/1999/xlink" x="0px" y="0px"
	 viewBox="0 0 318.6 270.2" style="enable-background:new 0 0 318.6 270.2;" xml:space="preserve">
<style type="text/css">
	.st0{display:none;}
	.st1{display:inline;}
	.st2{fill:#325C80;}
	.st3{fill:#F9F2B4;}
	.st4{fill:#CCCCCC;}
	.st5{fill:#4178BE;}
	.st6{fill:#754C24;}
	.st7{fill:#C69C6D;}
	.st8{fill:#4D4D4D;}
	.st9{fill:#666666;}
	.st10{fill:#DD3744;}
	.st11{fill:#FFFFFF;}
	.st12{fill:none;stroke:#B3B3B3;stroke-miterlimit:10;}
	.st13{fill:#00B4A0;}
	.st14{fill:#F2F2F2;}
	.st15{fill:#9855D4;}
	.st16{fill:#F2CBA0;}
	.st17{fill:#E8B282;}
	.st18{fill:#333333;}
	.st19{fill:#F2E17C;}
	.st20{fill:#1A1A1A;}
	.st21{fill:#ED1E79;}
	.st22{fill:#C1272D;}
	.st23{fill:#D6995C;}
	.st24{fill:#CE894A;}
	.st25{fill:#42210B;}
	.st26{fill:#603813;}
	.st27{fill:#F15A24;}
</style>
<g id="Layer_1" class="st0">
	<g id="XMLID_17_" class="st1">
		<g id="XMLID_15_">
			<path id="XMLID_3_" class="st2" d="M311.6,206.4l-55.5-37.8l2.3-120.7c0,0,42.1-8.3,35.8-17.9c-7.2-10.9-79.6,2.9-68.8,15.6
				c3.1,3.7,19.9,1.5,24.8,3.2l-2.8,119.8l-15.1,7.7l0.9,3.3h5.5L208,224.2l8.7,3.4l34.8-47.1l50.4,27.5L311.6,206.4z"/>
			<path id="XMLID_14_" class="st3" d="M257.2,51.4c0,0,58.5-16.4,46.5-26.1c-12-9.7-107.5,12.6-87.5,19.9
				c17.8,6.5,27.9,5.2,30.6,7.1"/>
		</g>
		<path id="XMLID_4_" class="st2" d="M104.3,182.4c0,0,0-61.3,53.6-62.9c53.6-1.6,59.5,56.3,59.5,56.3s9.5,61.9-48.2,68.6
			C108.5,251.3,104.3,182.4,104.3,182.4z"/>
		<path id="XMLID_6_" class="st4" d="M152.4,122.7l3.3-29.2l-8-2.5l4-12.8c0,0,6.6,4.3,16.9,0l3.8,13.4l-8,1.8l3.2,29.2H152.4z"/>
		<path id="XMLID_7_" class="st5" d="M155.3,66.1l-14.8,50.5c0,0-42.6,16.7-58.5-18l15.2-44.8C97.2,53.8,128.6,40.9,155.3,66.1z"/>
		<path id="XMLID_5_" class="st5" d="M109.3,182.9c0,0,0-55.8,48.8-57.3c48.8-1.5,54.2,51.3,54.2,51.3s8.7,56.4-43.9,62.5
			C113.2,245.7,109.3,182.9,109.3,182.9z"/>
		<path id="XMLID_9_" class="st2" d="M94.7,61.3c0,0,25.3-11.5,58.1,13.4l2.5-8.6c0,0-22.4-25.6-58.1-12.3L94.7,61.3z"/>
		<path id="XMLID_10_" class="st2" d="M82,98.6c0,0,25.5-12.6,59.4,17l1.9-8.5c0,0-21.9-28.4-58.3-17.3L82,98.6z"/>
		<path id="XMLID_12_" class="st5" d="M164.8,68.7l14.1,48.2c0,0,40.6,15.9,55.7-17.2L220.2,57C220.2,57,190.3,44.6,164.8,68.7z"/>
		<path id="XMLID_11_" class="st2" d="M222.6,64.1c0,0-24.1-11-55.4,12.8l-2.4-8.2c0,0,21.3-24.4,55.4-11.7L222.6,64.1z"/>
		<path id="XMLID_8_" class="st2" d="M234.6,99.7c0,0-24.3-12-56.6,16.2l-1.8-8.1c0,0,20.9-27.1,55.5-16.5L234.6,99.7z"/>
		<g id="XMLID_2_">
			<path id="XMLID_13_" class="st2" d="M6.2,226.5L71,182.3L68.4,41.3c0,0-53.6-14.4-41.8-20.9s99.4,13.9,80.4,18.2
				c-17,3.8-26.3,2.5-28.9,3.7l3.2,140l17.7,9.2l-1.1,4.1h-6.4l35.9,51.8l-10.2,3.8l-40.7-55.1l-58.9,32.1L6.2,226.5z"/>
			<path id="XMLID_16_" class="st3" d="M66.8,42.6c0,0-61-16.5-47.6-23.8s113.2,15.9,91.6,20.8c-19.4,4.4-29.9,2.8-33,4.3"/>
		</g>
		<path id="XMLID_181_" class="st6" d="M91.2,161.8L91.2,161.8c0.8-1.8,0-3.9-1.8-4.7l-7.3-3.3c-1.8-0.8-3.9,0-4.7,1.8l0,0
			c-0.8,1.8,0,3.9,1.8,4.7l7.3,3.3C88.2,164.4,90.4,163.6,91.2,161.8z"/>
	</g>
	<g id="XMLID_26_" class="st1">
		<path id="XMLID_188_" class="st7" d="M296.6,16.4L296.6,16.4c0.5,1.5-0.4,3.2-1.9,3.6L227,38.6c-1.5,0.5-2.1,1.2-2.6-0.3v0
			c-0.5-1.5,0.4-1.2,2-1.7L293,14.4C294.5,14,296.1,14.8,296.6,16.4z"/>
		<circle id="XMLID_189_" class="st4" cx="224.6" cy="38.2" r="2"/>
	</g>
	<g id="XMLID_25_" class="st1">
		<path id="XMLID_198_" class="st7" d="M221.2,26.9L221.2,26.9c0.1-1.6,1.5-2.8,3.1-2.6l69.8,7.8c1.6,0.1,2.4-0.3,2.3,1.2v0
			c-0.1,1.6-0.9,1-2.4,0.8L223.8,30C222.2,29.9,221,28.5,221.2,26.9z"/>
		<circle id="XMLID_197_" class="st4" cx="295.1" cy="32.9" r="2"/>
	</g>
	<g id="XMLID_141_" class="st1">
		<path id="XMLID_142_" class="st8" d="M80.7,33.8L80.7,33.8c-1.6,3.5-5.9,5-9.4,3.4l-18.9-8.9c-3.5-1.6-5-5.9-3.4-9.4l0,0
			c1.6-3.5,5.9-5,9.4-3.4l18.9,8.9C80.8,26.1,82.3,30.3,80.7,33.8z"/>
		<circle id="XMLID_143_" class="st9" cx="45.1" cy="17.4" r="9.6"/>
		<path id="XMLID_144_" class="st8" d="M83.4,34.9L83.4,34.9c-0.6,1.3-2.1,1.8-3.4,1.2l0,0c-1.3-0.6-1.8-2.1-1.2-3.4v0
			c0.6-1.3,2.1-1.8,3.4-1.2v0C83.5,32.1,84,33.6,83.4,34.9z"/>
	</g>
	<g id="XMLID_88_" class="st1">
		<path id="XMLID_101_" class="st10" d="M30.2,236.8c0,0-0.6-9.3,8-18.9c8.6-9.6,10.9-9.6,10.4-24.6c-0.5-15.1,5.8-27.1,9.6-23.3
			c3.8,3.8-2.6,19,12.1,14.9l24.7-78.1l-3.7-6.3l13.1-24.2l9.6-1.2l-2.2,29.4c0,0,0,0-9.5,2l-24.7,91c0,0,3.5,10.2,12.2,3.3
			c0,0,10.9-18.1,9.1,3.8c0,0-13.8,14.7-10.4,27.7c3.4,13-0.8,33.4-16,31.7C57.1,262.1,32.9,255.5,30.2,236.8z"/>
		<path id="XMLID_100_" class="st11" d="M52.5,221.1c3.7-5.6,6.4-11.1,6-22c-0.4-10.9,6.6-12,7.6-8.3c0.8,3.2,3.4,4.7,3.4,4.7
			l6.1,5.6c0,0,6.3,8.3,12.5,3.3c0,0,10.3-16.4,9-0.6c0,0-14.9,18-12.5,27.4s-12,8.9-22.9,6C56.5,235.8,50,224.8,52.5,221.1z"/>
		<g id="XMLID_90_">
			<g id="XMLID_93_">
				<line id="XMLID_99_" class="st12" x1="57.8" y1="225.4" x2="65.8" y2="201.8"/>
				<line id="XMLID_98_" class="st12" x1="59.7" y1="226.1" x2="67.7" y2="202.5"/>
				<line id="XMLID_97_" class="st12" x1="61.5" y1="226.9" x2="69.5" y2="203.3"/>
				<line id="XMLID_96_" class="st12" x1="63.4" y1="227.7" x2="71.4" y2="204.1"/>
				<line id="XMLID_95_" class="st12" x1="65.2" y1="228.5" x2="73.2" y2="204.9"/>
				<line id="XMLID_94_" class="st12" x1="67.1" y1="229.2" x2="75.1" y2="205.6"/>
			</g>
			
				<rect id="XMLID_92_" x="61" y="220.7" transform="matrix(0.3878 -0.9217 0.9217 0.3878 -171.6918 197.3399)" class="st8" width="3.5" height="14.5"/>
			
				<rect id="XMLID_91_" x="68.9" y="195.7" transform="matrix(0.3878 -0.9217 0.9217 0.3878 -143.8303 189.3458)" class="st8" width="3.5" height="14.5"/>
		</g>
		<polygon id="XMLID_89_" class="st7" points="70.2,184.8 79.1,191.3 102.2,106.3 94.9,106.7 		"/>
	</g>
	<g id="XMLID_24_" class="st1">
		<g id="XMLID_1_">
			<path id="XMLID_19_" class="st13" d="M183.5,109.6l6.3-3.6l18.6,92.4c0,0,7.7,7.5,12.4-2.5c0,0,1.6-21,9.8-0.6
				c0,0-5.8,19.3,3.1,29.4c8.9,10.1,14.2,30.2-0.2,35.5c-14.4,5.3-39,10.2-49.7-5.3c0,0-4.7-8.1-1.3-20.5s5.5-13.4-1.7-26.7
				c-7.2-13.3-6.9-26.8-1.8-25.2s6.2,18.2,17.4,7.9L183.5,109.6"/>
			<path id="XMLID_48_" class="st11" d="M196.7,230.9c0.9-6.7,0.8-12.8-4.4-22.3c-5.2-9.6,0.6-13.7,3.1-10.8
				c2.2,2.5,5.2,2.6,5.2,2.6l7.9,2.3c0,0,9.3,4.6,12.7-2.6c0,0,1.9-19.3,7.8-4.6c0,0-5.3,22.8,1.1,30.1c2.1,2.4,16.2,19.1,4.4,29.7
				c-3.7,3.4,4.4-33.8-22.3-14.1C207.8,244.4,196.1,235.3,196.7,230.9z"/>
			<g id="XMLID_58_">
				<g id="XMLID_57_">
					<line id="XMLID_51_" class="st12" x1="203.4" y1="232.3" x2="200" y2="207.7"/>
					<line id="XMLID_52_" class="st12" x1="205.4" y1="232.2" x2="202" y2="207.5"/>
					<line id="XMLID_53_" class="st12" x1="207.4" y1="232.1" x2="204" y2="207.4"/>
					<line id="XMLID_54_" class="st12" x1="209.4" y1="231.9" x2="206" y2="207.3"/>
					<line id="XMLID_55_" class="st12" x1="211.4" y1="231.8" x2="208" y2="207.1"/>
					<line id="XMLID_56_" class="st12" x1="213.4" y1="231.7" x2="210" y2="207"/>
				</g>
				
					<rect id="XMLID_49_" x="207.1" y="225.2" transform="matrix(-6.497433e-02 -0.9979 0.9979 -6.497433e-02 -9.4961 456.007)" class="st8" width="3.5" height="14.5"/>
				
					<rect id="XMLID_50_" x="203.1" y="199.3" transform="matrix(-6.497433e-02 -0.9979 0.9979 -6.497433e-02 11.9789 424.3781)" class="st8" width="3.5" height="14.5"/>
			</g>
			<polygon id="XMLID_59_" class="st7" points="196.3,190.5 207.2,192.4 189.8,106 183.5,109.6 			"/>
		</g>
		<polygon id="XMLID_18_" class="st13" points="183.5,109.6 189.8,106 188.6,78 180.6,72.6 169.3,99.8 176.9,105.8 		"/>
		<circle id="XMLID_20_" class="st14" cx="173.4" cy="98.3" r="1.3"/>
		<circle id="XMLID_21_" class="st14" cx="176" cy="92.1" r="1.3"/>
		<circle id="XMLID_22_" class="st14" cx="178.6" cy="85.9" r="1.3"/>
		<circle id="XMLID_23_" class="st14" cx="181.2" cy="79.7" r="1.3"/>
	</g>
</g>
<g id="Layer_2">
	<line id="XMLID_353_" class="st15" x1="52.2" y1="220.5" x2="108.9" y2="220.5"/>
	<path id="XMLID_352_" class="st15" d="M112.3,220.4l15-0.2l-11.7-29.8c-0.2-0.2-0.4-0.5-0.6-0.7c-0.3-0.3-0.5-0.7-0.8-1
		c-4.2-4.7-9.3-6.5-13.2-5.7c-2.2-1.6-4.8-2.4-7.4-2.4H67.4c-2.5,0-4.9,0.6-7,2.1c-4.1-2.3-10.3-0.6-15.3,5c-0.3,0.3-0.5,0.6-0.8,1
		c-0.2,0.2-0.4,0.5-0.6,0.8l-8.4,31.2h10.4"/>
	<g id="XMLID_349_">
		<path id="XMLID_351_" class="st16" d="M93.9,178l-0.1-15.5H65.2l0.2,16c0,4.9,6.4,8.7,14.3,8.7s14.3-4,14.3-8.9
			C93.9,178.3,93.9,178,93.9,178L93.9,178z"/>
		<ellipse id="XMLID_350_" class="st17" cx="79.6" cy="163.3" rx="14.3" ry="8.8"/>
	</g>
	<g id="XMLID_332_">
		<ellipse id="XMLID_348_" class="st16" cx="36.5" cy="107.4" rx="8.4" ry="9.1"/>
		<ellipse id="XMLID_336_" class="st17" cx="36.5" cy="107.4" rx="4.7" ry="5.3"/>
	</g>
	<g id="XMLID_329_">
		<ellipse id="XMLID_331_" class="st16" cx="122.6" cy="106.9" rx="8.4" ry="9.1"/>
		<ellipse id="XMLID_330_" class="st17" cx="122.6" cy="106.9" rx="4.7" ry="5.3"/>
	</g>
	<path id="XMLID_328_" class="st16" d="M122.8,114.4c0,29.3-19.3,53.1-43,53.1s-43-23.8-43-53.1s19.3-37.3,43-37.3
		S122.8,85,122.8,114.4z"/>
	<path id="XMLID_327_" class="st17" d="M83.1,125.2c0,2.1-1.7,3.9-3.9,3.9l0,0c-2.1,0-3.9-1.7-3.9-3.9v-20.6c0-2.1,1.7-3.9,3.9-3.9
		l0,0c2.1,0,3.9,1.7,3.9,3.9V125.2z"/>
	<g id="XMLID_324_">
		<circle id="XMLID_326_" class="st18" cx="65" cy="107.5" r="7.3"/>
		<circle id="XMLID_325_" class="st18" cx="94.9" cy="107.1" r="7.3"/>
	</g>
	<path id="XMLID_323_" class="st19" d="M154.5,86.3c0-9.9-5.9-18.3-14-21.4c0-0.5,0.1-1,0.1-1.5c0-12.4-9.2-22.5-20.6-22.7
		c-2.4-9.8-10.6-17-20.4-17c-4.7,0-9,1.6-12.5,4.4c-3.5-2.8-7.8-4.4-12.5-4.4c-4.9,0-9.4,1.8-12.9,4.8c-1.8-0.5-3.6-0.8-5.5-0.8
		c-6.6,0-12.6,3.3-16.4,8.5c-0.2,0-0.4,0-0.5,0C27.4,36.1,18,46.3,18,58.9c0,2,0.2,3.9,0.7,5.8C10.2,67.6,4,76.2,4,86.3
		c0,5.2,1.6,9.9,4.3,13.7c-2.7,3.8-4.3,8.6-4.3,13.7c0,12.6,9.4,22.7,21.1,22.7s21.1-10.2,21.1-22.7c0-0.4,0-0.8,0-1.1
		c6-4,10-11.2,10-19.3c0-2.2-0.3-4.4-0.9-6.4c4.1-1.5,7.7-4.3,10.2-8.1c3.8,5.6,10,9.3,17,9.3c3.3,0,6.5-0.8,9.3-2.3
		c2.8,4.6,7.1,8,12.1,9.5c0,0.3,0,0.7,0,1c0,5.7,1.9,10.9,5.1,14.9c-0.1,0.9-0.1,1.7-0.1,2.6c0,12.6,9.4,22.7,21.1,22.7
		s21.1-10.2,21.1-22.7c0-4.1-1-8-2.8-11.3C152.1,98.4,154.5,92.6,154.5,86.3z"/>
	<g id="XMLID_316_">
		<path id="XMLID_322_" class="st20" d="M70.2,140.7c-0.8,2.6-1.3,3.4-1.3,5.2c0,1.7,0.4,3.3,1.1,4.7c2.4-1.4,6-2.3,10.1-2.3
			c4,0,7.5,0.9,9.9,2.2c0.7-1.4,1-3,1-4.6c0-1.9-0.5-2.6-1.3-5.2H70.2z"/>
		<path id="XMLID_321_" class="st21" d="M79.9,156.8c4.5,0,8.3-2.6,10-6.3c-2.4-1.4-5.9-2.2-9.9-2.2c-4.1,0-7.8,0.9-10.1,2.4
			C71.8,154.3,75.6,156.8,79.9,156.8z"/>
		<rect id="XMLID_320_" x="67.7" y="139.4" class="st11" width="24.5" height="5.2"/>
		<path id="XMLID_317_" class="st21" d="M84.1,135c-0.7,0-1.4,0.3-2.1,0.4c-0.8,0.2-1.6,0.4-2.2,0.8c-0.7-0.4-1.3-0.5-2.2-0.7
			c-0.7-0.2-1.4-0.6-2.1-0.6c-3.7,0-6.8,1.8-7.5,4.4h11.8h11.9C91,136.8,87.9,135,84.1,135z M79.8,136.3
			C79.8,136.3,79.8,136.3,79.8,136.3C79.8,136.3,79.8,136.3,79.8,136.3L79.8,136.3z"/>
	</g>
	<g id="XMLID_107_">
		<path id="XMLID_314_" class="st22" d="M308.9,214.9l-7.4-21.8c-0.3-0.2-0.5-0.3-0.8-0.5c-0.3-0.3-0.6-0.6-1-0.9
			c-5.2-4.5-11.3-6.5-16.2-5.9c-2.9-2-6.4-3.1-10-3.1h-33.3c-3.4,0-6.6,1-9.3,2.8c-5.2-2-12.8-0.1-19,5.3c-0.4,0.3-0.6,0.7-1,1
			c-0.3,0.2-0.5,0.1-0.8,0.3l-9.9,22.9H308.9z"/>
		<g id="XMLID_310_">
			<path id="XMLID_313_" class="st23" d="M260,191.7h-6.4c-6.1,0-11-4.9-11-11v-6.4c0-6.1,4.9-11,11-11h6.4c6.1,0,11,4.9,11,11v6.4
				C271,186.8,266.1,191.7,260,191.7z"/>
			<ellipse id="XMLID_312_" class="st24" cx="256.7" cy="167.4" rx="14.2" ry="10.3"/>
			<path id="XMLID_311_" class="st23" d="M270.9,185.4c0,5.7-6.4,10.3-14.2,10.3s-14.2-4.6-14.2-10.3s6.4-4.2,14.2-4.2
				S270.9,179.8,270.9,185.4z"/>
		</g>
		<g id="XMLID_307_">
			<ellipse id="XMLID_309_" class="st23" cx="304.8" cy="109" rx="9.9" ry="10.6"/>
			<ellipse id="XMLID_308_" class="st24" cx="304.8" cy="109" rx="5.5" ry="6.1"/>
		</g>
		<ellipse id="XMLID_304_" class="st23" cx="210.1" cy="110.6" rx="9.9" ry="10.6"/>
		<ellipse id="XMLID_303_" class="st24" cx="210.1" cy="110.6" rx="5.5" ry="6.1"/>
		<ellipse id="XMLID_300_" class="st23" cx="256.9" cy="110.6" rx="49.5" ry="59.9"/>
		<path id="XMLID_297_" class="st20" d="M290.9,52.3c0.5-3,30.2,17.1,21.6,47.3C299.4,145.2,290.4,55.6,290.9,52.3z"/>
		<path id="XMLID_295_" class="st18" d="M202.1,88c0,0,2,43,13.2,19.3s7.9-41.3,7.9-41.3s76.8,28.5,80.7,5.3
			c3.9-23.2-15.5-17.7-15.5-17.7l-70.1-7.1L202.1,88z"/>
		<path id="XMLID_289_" class="st20" d="M204.9,105.9c0,0-14.5-24.1-5.7-58.3c5.5-21.6,69.7-1.2,69.7-1.2l-8.4-6.6
			c0,0,27.2-5,33.1,12.6s-7.5,9.3-7.5,9.3s-46.3,12.4-61.6-5.1S204.9,105.9,204.9,105.9z"/>
		<g id="XMLID_286_">
			<circle id="XMLID_288_" class="st25" cx="239.9" cy="109.5" r="5.5"/>
			<circle id="XMLID_287_" class="st25" cx="274.2" cy="109.1" r="5"/>
		</g>
		<path id="XMLID_284_" class="st24" d="M263.2,128.5c0,3.6-2.9,6.4-6.4,6.4l0,0c-3.6,0-6.4-2.9-6.4-6.4v-27.1
			c0-3.6,2.9-6.4,6.4-6.4l0,0c3.6,0,6.4,2.9,6.4,6.4V128.5z"/>
		<path id="XMLID_283_" class="st24" d="M269.7,125.3c0,3.2-2.6,5.8-5.8,5.8H251c-3.2,0-5.8-2.6-5.8-5.8l0,0c0-3.2,2.6-5.8,5.8-5.8
			h12.9C267.1,119.5,269.7,122.1,269.7,125.3L269.7,125.3z"/>
		<path id="XMLID_268_" class="st11" d="M270.8,141.5c0,5-6.3,9.1-14,9.1s-14-4.1-14-9.1c0-5,6.3,3.2,14,3.2
			S270.8,136.5,270.8,141.5z"/>
		<path id="XMLID_267_" class="st24" d="M270.8,144.3c0,5-6.3,9.1-14,9.1s-14-4.1-14-9.1c0-5,6.3,3.2,14,3.2
			S270.8,139.2,270.8,144.3z"/>
		<path id="XMLID_263_" d="M299.1,96.3h-36.7c-1.9,0-4.3,1.1-4.3,3v6h-3.9v-6c0-1.9-0.3-3-2.2-3h-36.7c-1.9,0-3.6,1.1-3.6,3V119
			c0,1.9,1.8,3.1,3.6,3.1H252c1.9,0,2.2-1.2,2.2-3.1v-9.8h3.9v9.8c0,1.9,2.5,3.1,4.3,3.1h36.7c1.9,0,2.8-1.2,2.8-3.1V99.3
			C301.9,97.4,301,96.3,299.1,96.3z M251.6,116.8c0,1.9-0.7,4-2.6,4h-31.1c-1.9,0-3.6-2.1-3.6-4v-14.2c0-1.9,1.8-3.7,3.6-3.7h31.1
			c1.9,0,2.6,1.8,2.6,3.7V116.8z M299.3,116.8c0,1.9-1.3,4-3.2,4H265c-1.9,0-4.3-2.1-4.3-4v-14.2c0-1.9,2.5-3.7,4.3-3.7h31.1
			c1.9,0,3.2,1.8,3.2,3.7V116.8z"/>
	</g>
	<g id="XMLID_196_">
		<path id="XMLID_262_" class="st25" d="M214.4,118.7c0-28-23.7-50.7-53-50.7s-53,22.7-53,50.7c0,1.4,0.1,2.8,0.2,4.2
			c-0.1,0.4-0.2,0.9-0.2,1.4v39.2c0,3.1,2.5,6.5,5.6,6.5h42.4c1.7,0,3.4,0.2,5.1,0.2c1.7,0,3.4-0.2,5.1-0.2h42.4
			c3.1,0,5.2-3.4,5.2-6.5v-39.2c0-0.5,0.1-0.9,0-1.4C214.2,121.5,214.4,120.1,214.4,118.7z"/>
		<g id="XMLID_259_">
			<ellipse id="XMLID_261_" class="st6" cx="118.8" cy="131.8" rx="8.4" ry="9.1"/>
			<ellipse id="XMLID_260_" class="st26" cx="118.8" cy="131.8" rx="4.7" ry="5.3"/>
		</g>
		<line id="XMLID_258_" class="st27" x1="134.1" y1="244.8" x2="190.8" y2="244.8"/>
		<path id="XMLID_257_" class="st27" d="M194.7,244.8h12.1l-9-30c-0.2-0.2-0.4-0.5-0.6-0.7c-0.3-0.3-0.5-0.7-0.8-1
			c-4.2-4.7-9.3-6.6-13.2-5.8c-2.2-1.6-4.8-2.5-7.4-2.5h-26.2c-2.5,0-4.9,0.7-7,2.2c-4.1-2.3-10.3-0.5-15.3,5
			c-0.3,0.3-0.5,0.7-0.8,1c-0.2,0.2-0.4,0.5-0.6,0.7l-9.8,31.1h11.5"/>
		<g id="XMLID_222_">
			<ellipse id="XMLID_256_" class="st6" cx="204.8" cy="131.4" rx="8.4" ry="9.1"/>
			<ellipse id="XMLID_223_" class="st26" cx="204.8" cy="131.4" rx="4.7" ry="5.3"/>
		</g>
		<g id="XMLID_219_">
			<path id="XMLID_221_" class="st6" d="M176.1,202.3l-0.1-15.5h-28.6l0.2,16.1c0,4.9,6.4,8.8,14.3,8.8s14.3-4.1,14.3-9
				C176.1,202.6,176.1,202.3,176.1,202.3L176.1,202.3z"/>
			<ellipse id="XMLID_220_" class="st26" cx="161.8" cy="187.7" rx="14.3" ry="8.8"/>
		</g>
		<path id="XMLID_217_" class="st6" d="M205,138.8c0,29.3-19.3,53.1-43,53.1s-43-23.8-43-53.1s19.3-37.3,43-37.3
			S205,109.5,205,138.8z"/>
		<path id="XMLID_202_" class="st26" d="M165.1,149.4c0,2.1-1.7,3.9-3.9,3.9l0,0c-2.1,0-3.9-1.7-3.9-3.9v-20.6
			c0-2.1,1.7-3.9,3.9-3.9l0,0c2.1,0,3.9,1.7,3.9,3.9V149.4z"/>
		<g id="XMLID_106_">
			<circle id="XMLID_200_" class="st18" cx="147.2" cy="132" r="7.3"/>
			<circle id="XMLID_199_" class="st18" cx="177.1" cy="131.5" r="7.3"/>
		</g>
		<path id="XMLID_105_" class="st21" d="M161.7,172.8c6.6,0,12.2-1.8,14-4.3c-3.2-1.1-8.3-1.8-14-1.8c-5.7,0-10.8,0.7-14,1.8
			C149.5,170.9,155.1,172.8,161.7,172.8z"/>
	</g>
</g>
</svg>
