<?xml version="1.0" encoding="utf-8"?>
<!-- Generator: Adobe Illustrator 19.0.0, SVG Export Plug-In . SVG Version: 6.00 Build 0)  -->
<svg version="1.1" xmlns="http://www.w3.org/2000/svg" xmlns:xlink="http://www.w3.org/1999/xlink" x="0px" y="0px"
	 viewBox="0 0 318.6 270.2" style="enable-background:new 0 0 318.6 270.2;" xml:space="preserve">
<style type="text/css">
	.st0{display:none;}
	.st1{display:inline;}
	.st2{fill:#325C80;}
	.st3{fill:#F9F2B4;}
	.st4{fill:#CCCCCC;}
	.st5{fill:#4178BE;}
	.st6{fill:#754C24;}
	.st7{fill:#C69C6D;}
	.st8{fill:#4D4D4D;}
	.st9{fill:#666666;}
	.st10{fill:#DD3744;}
	.st11{fill:#FFFFFF;}
	.st12{fill:none;stroke:#B3B3B3;stroke-miterlimit:10;}
	.st13{fill:#00B4A0;}
	.st14{fill:#F2F2F2;}
	.st15{fill:#22B573;}
	.st16{fill:#E8B282;}
	.st17{fill:#F2CBA0;}
	.st18{fill:#AF6EE8;}
	.st19{fill-opacity:5.000000e-02;}
	.st20{fill:#E6E6E6;}
	.st21{fill:#F7931E;}
	.st22{fill:none;}
	.st23{fill:#ED1E79;}
	.st24{fill:#333333;}
	.st25{fill:#A67C52;}
	.st26{fill:#8C6239;}
	.st27{fill:#29ABE2;}
	.st28{fill:#808080;}
	.st29{fill:#EA3F4C;}
</style>
<g id="Layer_1" class="st0">
	<g id="XMLID_17_" class="st1">
		<g id="XMLID_15_">
			<path id="XMLID_3_" class="st2" d="M311.6,206.4l-55.5-37.8l2.3-120.7c0,0,42.1-8.3,35.8-17.9c-7.2-10.9-79.6,2.9-68.8,15.6
				c3.1,3.7,19.9,1.5,24.8,3.2l-2.8,119.8l-15.1,7.7l0.9,3.3h5.5L208,224.2l8.7,3.4l34.8-47.1l50.4,27.5L311.6,206.4z"/>
			<path id="XMLID_14_" class="st3" d="M257.2,51.4c0,0,58.5-16.4,46.5-26.1c-12-9.7-107.5,12.6-87.5,19.9
				c17.8,6.5,27.9,5.2,30.6,7.1"/>
		</g>
		<path id="XMLID_4_" class="st2" d="M104.3,182.4c0,0,0-61.3,53.6-62.9c53.6-1.6,59.5,56.3,59.5,56.3s9.5,61.9-48.2,68.6
			C108.5,251.3,104.3,182.4,104.3,182.4z"/>
		<path id="XMLID_6_" class="st4" d="M152.4,122.7l3.3-29.2l-8-2.5l4-12.8c0,0,6.6,4.3,16.9,0l3.8,13.4l-8,1.8l3.2,29.2H152.4z"/>
		<path id="XMLID_7_" class="st5" d="M155.3,66.1l-14.8,50.5c0,0-42.6,16.7-58.5-18l15.2-44.8C97.2,53.8,128.6,40.9,155.3,66.1z"/>
		<path id="XMLID_5_" class="st5" d="M109.3,182.9c0,0,0-55.8,48.8-57.3c48.8-1.5,54.2,51.3,54.2,51.3s8.7,56.4-43.9,62.5
			C113.2,245.7,109.3,182.9,109.3,182.9z"/>
		<path id="XMLID_9_" class="st2" d="M94.7,61.3c0,0,25.3-11.5,58.1,13.4l2.5-8.6c0,0-22.4-25.6-58.1-12.3L94.7,61.3z"/>
		<path id="XMLID_10_" class="st2" d="M82,98.6c0,0,25.5-12.6,59.4,17l1.9-8.5c0,0-21.9-28.4-58.3-17.3L82,98.6z"/>
		<path id="XMLID_12_" class="st5" d="M164.8,68.7l14.1,48.2c0,0,40.6,15.9,55.7-17.2L220.2,57C220.2,57,190.3,44.6,164.8,68.7z"/>
		<path id="XMLID_11_" class="st2" d="M222.6,64.1c0,0-24.1-11-55.4,12.8l-2.4-8.2c0,0,21.3-24.4,55.4-11.7L222.6,64.1z"/>
		<path id="XMLID_8_" class="st2" d="M234.6,99.7c0,0-24.3-12-56.6,16.2l-1.8-8.1c0,0,20.9-27.1,55.5-16.5L234.6,99.7z"/>
		<g id="XMLID_2_">
			<path id="XMLID_13_" class="st2" d="M6.2,226.5L71,182.3L68.4,41.3c0,0-53.6-14.4-41.8-20.9s99.4,13.9,80.4,18.2
				c-17,3.8-26.3,2.5-28.9,3.7l3.2,140l17.7,9.2l-1.1,4.1h-6.4l35.9,51.8l-10.2,3.8l-40.7-55.1l-58.9,32.1L6.2,226.5z"/>
			<path id="XMLID_16_" class="st3" d="M66.8,42.6c0,0-61-16.5-47.6-23.8s113.2,15.9,91.6,20.8c-19.4,4.4-29.9,2.8-33,4.3"/>
		</g>
		<path id="XMLID_181_" class="st6" d="M91.2,161.8L91.2,161.8c0.8-1.8,0-3.9-1.8-4.7l-7.3-3.3c-1.8-0.8-3.9,0-4.7,1.8l0,0
			c-0.8,1.8,0,3.9,1.8,4.7l7.3,3.3C88.2,164.4,90.4,163.6,91.2,161.8z"/>
	</g>
	<g id="XMLID_26_" class="st1">
		<path id="XMLID_188_" class="st7" d="M296.6,16.4L296.6,16.4c0.5,1.5-0.4,3.2-1.9,3.6L227,38.6c-1.5,0.5-2.1,1.2-2.6-0.3v0
			c-0.5-1.5,0.4-1.2,2-1.7L293,14.4C294.5,14,296.1,14.8,296.6,16.4z"/>
		<circle id="XMLID_189_" class="st4" cx="224.6" cy="38.2" r="2"/>
	</g>
	<g id="XMLID_25_" class="st1">
		<path id="XMLID_198_" class="st7" d="M221.2,26.9L221.2,26.9c0.1-1.6,1.5-2.8,3.1-2.6l69.8,7.8c1.6,0.1,2.4-0.3,2.3,1.2v0
			c-0.1,1.6-0.9,1-2.4,0.8L223.8,30C222.2,29.9,221,28.5,221.2,26.9z"/>
		<circle id="XMLID_197_" class="st4" cx="295.1" cy="32.9" r="2"/>
	</g>
	<g id="XMLID_141_" class="st1">
		<path id="XMLID_142_" class="st8" d="M80.7,33.8L80.7,33.8c-1.6,3.5-5.9,5-9.4,3.4l-18.9-8.9c-3.5-1.6-5-5.9-3.4-9.4l0,0
			c1.6-3.5,5.9-5,9.4-3.4l18.9,8.9C80.8,26.1,82.3,30.3,80.7,33.8z"/>
		<circle id="XMLID_143_" class="st9" cx="45.1" cy="17.4" r="9.6"/>
		<path id="XMLID_144_" class="st8" d="M83.4,34.9L83.4,34.9c-0.6,1.3-2.1,1.8-3.4,1.2l0,0c-1.3-0.6-1.8-2.1-1.2-3.4v0
			c0.6-1.3,2.1-1.8,3.4-1.2v0C83.5,32.1,84,33.6,83.4,34.9z"/>
	</g>
	<g id="XMLID_88_" class="st1">
		<path id="XMLID_101_" class="st10" d="M30.2,236.8c0,0-0.6-9.3,8-18.9c8.6-9.6,10.9-9.6,10.4-24.6c-0.5-15.1,5.8-27.1,9.6-23.3
			c3.8,3.8-2.6,19,12.1,14.9l24.7-78.1l-3.7-6.3l13.1-24.2l9.6-1.2l-2.2,29.4c0,0,0,0-9.5,2l-24.7,91c0,0,3.5,10.2,12.2,3.3
			c0,0,10.9-18.1,9.1,3.8c0,0-13.8,14.7-10.4,27.7c3.4,13-0.8,33.4-16,31.7C57.1,262.1,32.9,255.5,30.2,236.8z"/>
		<path id="XMLID_100_" class="st11" d="M52.5,221.1c3.7-5.6,6.4-11.1,6-22c-0.4-10.9,6.6-12,7.6-8.3c0.8,3.2,3.4,4.7,3.4,4.7
			l6.1,5.6c0,0,6.3,8.3,12.5,3.3c0,0,10.3-16.4,9-0.6c0,0-14.9,18-12.5,27.4s-12,8.9-22.9,6C56.5,235.8,50,224.8,52.5,221.1z"/>
		<g id="XMLID_90_">
			<g id="XMLID_93_">
				<line id="XMLID_99_" class="st12" x1="57.8" y1="225.4" x2="65.8" y2="201.8"/>
				<line id="XMLID_98_" class="st12" x1="59.7" y1="226.1" x2="67.7" y2="202.5"/>
				<line id="XMLID_97_" class="st12" x1="61.5" y1="226.9" x2="69.5" y2="203.3"/>
				<line id="XMLID_96_" class="st12" x1="63.4" y1="227.7" x2="71.4" y2="204.1"/>
				<line id="XMLID_95_" class="st12" x1="65.2" y1="228.5" x2="73.2" y2="204.9"/>
				<line id="XMLID_94_" class="st12" x1="67.1" y1="229.2" x2="75.1" y2="205.6"/>
			</g>
			
				<rect id="XMLID_92_" x="61" y="220.7" transform="matrix(0.3878 -0.9217 0.9217 0.3878 -171.6918 197.3399)" class="st8" width="3.5" height="14.5"/>
			
				<rect id="XMLID_91_" x="68.9" y="195.7" transform="matrix(0.3878 -0.9217 0.9217 0.3878 -143.8303 189.3458)" class="st8" width="3.5" height="14.5"/>
		</g>
		<polygon id="XMLID_89_" class="st7" points="70.2,184.8 79.1,191.3 102.2,106.3 94.9,106.7 		"/>
	</g>
	<g id="XMLID_24_" class="st1">
		<g id="XMLID_1_">
			<path id="XMLID_19_" class="st13" d="M183.5,109.6l6.3-3.6l18.6,92.4c0,0,7.7,7.5,12.4-2.5c0,0,1.6-21,9.8-0.6
				c0,0-5.8,19.3,3.1,29.4c8.9,10.1,14.2,30.2-0.2,35.5c-14.4,5.3-39,10.2-49.7-5.3c0,0-4.7-8.1-1.3-20.5s5.5-13.4-1.7-26.7
				c-7.2-13.3-6.9-26.8-1.8-25.2s6.2,18.2,17.4,7.9L183.5,109.6"/>
			<path id="XMLID_48_" class="st11" d="M196.7,230.9c0.9-6.7,0.8-12.8-4.4-22.3c-5.2-9.6,0.6-13.7,3.1-10.8
				c2.2,2.5,5.2,2.6,5.2,2.6l7.9,2.3c0,0,9.3,4.6,12.7-2.6c0,0,1.9-19.3,7.8-4.6c0,0-5.3,22.8,1.1,30.1c2.1,2.4,16.2,19.1,4.4,29.7
				c-3.7,3.4,4.4-33.8-22.3-14.1C207.8,244.4,196.1,235.3,196.7,230.9z"/>
			<g id="XMLID_58_">
				<g id="XMLID_57_">
					<line id="XMLID_51_" class="st12" x1="203.4" y1="232.3" x2="200" y2="207.7"/>
					<line id="XMLID_52_" class="st12" x1="205.4" y1="232.2" x2="202" y2="207.5"/>
					<line id="XMLID_53_" class="st12" x1="207.4" y1="232.1" x2="204" y2="207.4"/>
					<line id="XMLID_54_" class="st12" x1="209.4" y1="231.9" x2="206" y2="207.3"/>
					<line id="XMLID_55_" class="st12" x1="211.4" y1="231.8" x2="208" y2="207.1"/>
					<line id="XMLID_56_" class="st12" x1="213.4" y1="231.7" x2="210" y2="207"/>
				</g>
				
					<rect id="XMLID_49_" x="207.1" y="225.2" transform="matrix(-6.497433e-02 -0.9979 0.9979 -6.497433e-02 -9.4961 456.007)" class="st8" width="3.5" height="14.5"/>
				
					<rect id="XMLID_50_" x="203.1" y="199.3" transform="matrix(-6.497433e-02 -0.9979 0.9979 -6.497433e-02 11.9789 424.3781)" class="st8" width="3.5" height="14.5"/>
			</g>
			<polygon id="XMLID_59_" class="st7" points="196.3,190.5 207.2,192.4 189.8,106 183.5,109.6 			"/>
		</g>
		<polygon id="XMLID_18_" class="st13" points="183.5,109.6 189.8,106 188.6,78 180.6,72.6 169.3,99.8 176.9,105.8 		"/>
		<circle id="XMLID_20_" class="st14" cx="173.4" cy="98.3" r="1.3"/>
		<circle id="XMLID_21_" class="st14" cx="176" cy="92.1" r="1.3"/>
		<circle id="XMLID_22_" class="st14" cx="178.6" cy="85.9" r="1.3"/>
		<circle id="XMLID_23_" class="st14" cx="181.2" cy="79.7" r="1.3"/>
	</g>
</g>
<g id="Layer_2">
	<g id="XMLID_105_">
		<path id="XMLID_294_" class="st15" d="M89.7,103.7H73.3c-5.3,0-9.1,6-9.1,13v42.5v2.8v12.7h9.1h16.4h9.5V162v-2.8v-42.5
			C99.3,109.6,95,103.7,89.7,103.7z"/>
		<path id="XMLID_293_" class="st15" d="M102.7,109.1c-3.9-4.3-8.9-5.1-11.2-1.7c-2.3,3.3-0.9,9.5,3,13.9c0.2,0.2,0.4,0.3,0.6,0.5
			c0.1,0.2,0.3,0.3,0.4,0.4l20.4,22.5c2,2.2,4.6,2.7,5.7,1l4-5.9c1.2-1.7,0.4-4.9-1.6-7.1l-20.4-22.5c-0.1-0.1-0.2-0.3-0.4-0.4
			C103,109.5,102.8,109.3,102.7,109.1z"/>
		<path id="XMLID_292_" class="st15" d="M115.9,131.8c2.5-3,6.5-2.8,8.9,0.4c2.4,3.2,2.2,8.3-0.3,11.3c-0.1,0.1-0.3,0.2-0.4,0.3
			c-0.1,0.1-0.2,0.2-0.3,0.3l-13.3,15.7c-1.3,1.5-3.3,1.6-4.5-0.1l-4.2-5.7c-1.2-1.7-1.1-4.2,0.2-5.8l13.3-15.7
			c0.1-0.1,0.1-0.2,0.2-0.3C115.7,132.1,115.7,131.9,115.9,131.8z"/>
		<path id="XMLID_291_" class="st16" d="M95.1,157.5l0.5,1.3c0.4,1.1,1.4,1.5,2.2,1l5.6-3.3c0.8-0.5,1.2-1.7,0.8-2.8l-0.5-1.3
			c-0.4-1.1-1.4-1.5-2.2-1l-5.6,3.3C95.1,155.2,94.7,156.4,95.1,157.5z"/>
		<path id="XMLID_290_" class="st17" d="M93.8,165.1l3,4c1.2,1.7,3.3,1.8,4.6,0.2l5.6-6.6c1.3-1.5,1.4-4.2,0.2-5.8l-3-4
			c-1.2-1.7-3.3-1.8-4.6-0.2l-5.6,6.6C92.6,160.8,92.6,163.4,93.8,165.1z"/>
		<path id="XMLID_273_" class="st18" d="M83.8,194.7l-0.2,59.2c0,2.3,1.3,3.8,3,3.8h9.6c1.8,0,3.1-1,3.1-3.3v-54.1V200v-25.3h-35
			V200v0.3v54.1c0,2.3,0.9,3.3,2.7,3.3h9.5c1.8,0,3.2-1.5,3.2-3.8l0.2-59.2H83.8z"/>
		<rect id="XMLID_285_" x="63.8" y="124.6" class="st19" width="1.6" height="133.9"/>
		<polygon id="XMLID_282_" class="st19" points="83.8,194.9 85.4,194.2 85.4,256.1 83.8,256.1 		"/>
		<path id="XMLID_281_" class="st20" d="M70.5,245.7c-5.6,0-10.1,5.7-10.1,12.9h20.3C80.7,251.5,76.1,245.7,70.5,245.7z"/>
		<path id="XMLID_280_" class="st20" d="M92.9,245.7c5.6,0,10.1,5.7,10.1,12.9H82.7C82.7,251.5,87.3,245.7,92.9,245.7z"/>
		<path id="XMLID_279_" class="st15" d="M59.4,108.4c3.9-4.3,8.9-5.1,11.2-1.7c2.3,3.3,0.9,9.5-3,13.9c-0.2,0.2-0.4,0.3-0.6,0.5
			c-0.1,0.2-0.3,0.3-0.4,0.4l-20.4,22.5c-2,2.2-4.6,2.7-5.7,1l-4-5.9c-1.2-1.7-0.4-4.9,1.6-7.1l20.4-22.5c0.1-0.1,0.2-0.3,0.4-0.4
			C59.1,108.8,59.2,108.6,59.4,108.4z"/>
		<path id="XMLID_276_" class="st15" d="M46.2,131.1c-2.5-3-6.5-2.8-8.9,0.4c-2.4,3.2-2.2,8.3,0.3,11.3c0.1,0.1,0.3,0.2,0.4,0.3
			c0.1,0.1,0.2,0.2,0.3,0.3l13.3,15.7c1.3,1.5,3.3,1.6,4.5-0.1l4.2-5.7c1.2-1.7,1.1-4.2-0.2-5.8l-13.3-15.7
			c-0.1-0.1-0.1-0.2-0.2-0.3C46.4,131.4,46.3,131.2,46.2,131.1z"/>
		<path id="XMLID_275_" class="st16" d="M66.9,156.8l-0.5,1.3c-0.4,1.1-1.4,1.5-2.2,1l-5.6-3.3c-0.8-0.5-1.2-1.7-0.8-2.8l0.5-1.3
			c0.4-1.1,1.4-1.5,2.2-1l5.6,3.3C66.9,154.5,67.3,155.7,66.9,156.8z"/>
		<path id="XMLID_274_" class="st17" d="M68.3,164.4l-3,4c-1.2,1.7-3.3,1.8-4.6,0.2l-5.6-6.6c-1.3-1.5-1.4-4.2-0.2-5.8l3-4
			c1.2-1.7,3.3-1.8,4.6-0.2l5.6,6.6C69.4,160.1,69.5,162.7,68.3,164.4z"/>
		<g id="XMLID_269_">
			<path id="XMLID_272_" class="st17" d="M82.3,106.2h-2.6c-4.2,0-7.6-3.4-7.6-7.6v0c0-4.2,3.4-7.6,7.6-7.6h2.6
				c4.2,0,7.6,3.4,7.6,7.6v0C89.9,102.8,86.5,106.2,82.3,106.2z"/>
			<ellipse id="XMLID_271_" class="st16" cx="81" cy="93.2" rx="8.9" ry="5.5"/>
			<path id="XMLID_270_" class="st17" d="M89.9,102.6c0,3.1-4,5.5-8.9,5.5s-8.9-2.5-8.9-5.5c0-3.1,4-2.2,8.9-2.2
				S89.9,99.6,89.9,102.6z"/>
		</g>
		<g id="XMLID_224_">
			<path id="XMLID_255_" class="st21" d="M113.9,50c0-17.5-14.9-31.8-33.2-31.8S47.5,32.4,47.5,50c0,0.9-0.1,1.8,0,2.6
				c-0.1,0.3-0.2,0.6-0.2,0.9v24.6c0,1.9,1.8,3.6,3.7,3.6h26.5c1,0,2.1,0.1,3.2,0.1s2.1-0.1,3.2-0.1h26.5c1.9,0,2.9-1.7,2.9-3.6
				V53.5c0-0.3,0.3-0.6,0.2-0.9C113.6,51.7,113.9,50.9,113.9,50z"/>
			<g id="XMLID_252_">
				<ellipse id="XMLID_254_" class="st17" cx="54" cy="58.2" rx="5.3" ry="5.7"/>
				<ellipse id="XMLID_253_" class="st16" cx="54" cy="58.2" rx="2.9" ry="3.3"/>
			</g>
			<g id="XMLID_241_">
				<ellipse id="XMLID_251_" class="st17" cx="107.9" cy="57.9" rx="5.3" ry="5.7"/>
				<ellipse id="XMLID_242_" class="st16" cx="107.9" cy="57.9" rx="2.9" ry="3.3"/>
			</g>
			<ellipse id="XMLID_240_" class="st17" cx="81.1" cy="62.5" rx="27" ry="33.3"/>
			<path id="XMLID_239_" class="st16" d="M81.1,71.4L81.1,71.4c-1.4,0-2.6-1.2-2.6-2.6V56.4c0-1.4,1.2-2.6,2.6-2.6h0
				c1.4,0,2.6,1.2,2.6,2.6v12.3C83.7,70.2,82.5,71.4,81.1,71.4z"/>
			<g id="XMLID_229_">
				<path id="XMLID_238_" class="st22" d="M67,68.2c5.5,0,10-4.5,10-10c0-3.5-1.8-6.5-4.4-8.3L57.3,60.8
					C58.5,65.1,62.4,68.2,67,68.2z"/>
				<path id="XMLID_237_" class="st22" d="M58.1,53.6l7.4-5.3C62.3,48.8,59.6,50.8,58.1,53.6z"/>
				<circle id="XMLID_236_" class="st22" cx="94.6" cy="58.2" r="10"/>
				<path id="XMLID_235_" class="st14" d="M65.5,48.3l-7.4,5.3c-0.7,1.4-1.1,3-1.1,4.6c0,0.9,0.1,1.8,0.3,2.6l15.3-10.9
					c-1.6-1.1-3.5-1.7-5.6-1.7C66.5,48.2,66,48.2,65.5,48.3z"/>
				<path id="XMLID_231_" class="st23" d="M93.3,45.7L93.3,45.7c-5,0.5-9.9,4.7-11,10c0,0-0.1,0-0.2,0H80c-0.2,0-0.4,0.1-0.6,0.2
					c-0.6-3-2.2-5.7-4.5-7.5c-1.6-1.3-3.6-2.2-5.8-2.5c-0.7-0.1-1.4-0.1-2.1-0.1H53.3v10.5v3.5h1.2c0.1,1,0.3,1.9,0.6,2.7
					c1.7,4.9,6.4,8.3,11.8,8.3c6.1,0,11.2-4.4,12.3-10.2c0.2,0.1,0.4,0.1,0.6,0.1h2.2c0,0,0.1,0,0.1,0c1.1,5.8,6.3,10.1,12.4,10.1
					c6.9,0,12.6-5.6,12.6-12.6V45.7H93.3z M67,68.2c-4.6,0-8.5-3.1-9.7-7.4C57.1,60,57,59.1,57,58.2c0-1.7,0.4-3.2,1.1-4.6
					c1.5-2.8,4.2-4.8,7.4-5.3c0.5-0.1,1-0.1,1.5-0.1c2.1,0,4,0.6,5.6,1.7c2.7,1.8,4.4,4.9,4.4,8.3C77,63.8,72.6,68.2,67,68.2z
					 M94.6,68.2c-5.5,0-10-4.5-10-10s4.5-10,10-10s10,4.5,10,10S100.1,68.2,94.6,68.2z"/>
				<path id="XMLID_230_" class="st14" d="M93.1,48.3l-7.4,5.3c-0.7,1.4-1.1,3-1.1,4.6c0,0.9,0.1,1.8,0.3,2.6l15.3-10.9
					c-1.6-1.1-3.5-1.7-5.6-1.7C94.1,48.2,93.6,48.2,93.1,48.3z"/>
			</g>
			<g id="XMLID_226_">
				<circle id="XMLID_228_" class="st24" cx="71.8" cy="58.3" r="4.6"/>
				<circle id="XMLID_227_" class="st24" cx="90.6" cy="58" r="4.6"/>
			</g>
			<path id="XMLID_225_" class="st23" d="M80.9,83.8c4.1,0,7.6-1.1,8.8-2.7c-2-0.7-5.2-1.1-8.8-1.1s-6.8,0.4-8.8,1.1
				C73.3,82.7,76.8,83.8,80.9,83.8z"/>
		</g>
	</g>
	<polygon id="XMLID_111_" class="st25" points="186.1,170.7 184.7,239.7 196.3,239.7 197.8,170.7 	"/>
	<polygon id="XMLID_115_" class="st25" points="279.1,167.7 277.7,236.7 289.3,236.7 290.8,167.7 	"/>
	<polygon id="XMLID_112_" class="st26" points="295.9,179.7 294.7,233.7 289.3,236.7 290.8,167.7 	"/>
	<polygon id="XMLID_110_" class="st26" points="203,170.7 201.7,236.7 196.3,239.7 197.8,170.7 	"/>
	<polygon id="XMLID_108_" class="st4" points="295.9,179.7 264.5,193.7 284.6,69.2 	"/>
	<polygon id="XMLID_106_" class="st14" points="172.9,69.7 284.6,69.7 264.5,193.7 156.3,193.7 	"/>
	<polygon id="XMLID_107_" class="st25" points="156.1,193.7 154.7,256.7 166.3,256.7 167.8,193.7 	"/>
	<polygon id="XMLID_109_" class="st26" points="173,193.7 171.7,253.5 166.3,256.2 167.8,193.7 	"/>
	<polygon id="XMLID_119_" class="st25" points="253.1,193.7 251.7,256.7 263.3,256.7 264.8,193.7 	"/>
	<polygon id="XMLID_118_" class="st26" points="270,191.2 268.7,253.5 263.3,256.2 264.8,193.5 	"/>
	<polygon id="XMLID_121_" class="st27" points="195.8,131.8 206.1,133.8 204.3,137.7 218.1,135.3 216.6,139.5 231.8,136.6 
		231.4,142.9 246.5,146.7 245,141.6 252.9,148.5 244.6,152.9 246.1,149.2 226.3,144.9 227.7,140 213.2,144.5 213.5,139.5 
		201.3,140.4 200.2,135.2 196.1,134.3 	"/>
	<polygon id="XMLID_120_" class="st28" points="184.3,83.7 175,174.7 251.3,174.7 251.3,167.7 184.3,167.7 191.3,83.7 	"/>
	<polygon id="XMLID_122_" class="st29" points="199.6,159.4 206.4,146.6 210.7,150.5 213.2,131.4 218.1,135.1 220.4,113.9 
		228.5,117 239.6,98.7 232.2,98.6 244.5,91 247,103.7 242.7,100.3 229.2,124.6 223.3,120.7 223.3,141.7 216.9,139.2 213.2,155.6 
		205.8,154.9 203,160 	"/>
</g>
</svg>
