<?xml version="1.0" encoding="utf-8"?>
<!-- Generator: Adobe Illustrator 19.0.0, SVG Export Plug-In . SVG Version: 6.00 Build 0)  -->
<svg version="1.1" id="Layer_1" xmlns="http://www.w3.org/2000/svg" xmlns:xlink="http://www.w3.org/1999/xlink" x="0px" y="0px"
	 viewBox="0 0 300 300" style="enable-background:new 0 0 300 300;" xml:space="preserve">
<style type="text/css">
	.st0{fill:#C1272D;}
	.st1{fill:#D6995C;}
	.st2{fill:#CE894A;}
	.st3{fill:#F2CBA0;}
	.st4{fill:#E8B282;}
	.st5{fill:#1A1A1A;}
	.st6{fill:#333333;}
	.st7{fill:#42210B;}
	.st8{fill:#FFFFFF;}
</style>
<path id="XMLID_314_" class="st0" d="M236.9,294.3l-12.1-35.5c-0.4-0.4-0.8-0.5-1.2-0.8c-0.5-0.5-1-1-1.6-1.5
	c-8.4-7.3-18.4-10.6-26.4-9.6c-4.8-3.2-10.4-5.1-16.3-5.1h-54.2c-5.6,0-10.7,1.7-15.1,4.5c-8.5-3.3-20.9-0.2-31,8.6
	c-0.6,0.5-1.1,1.1-1.6,1.6c-0.4,0.3-0.8,0.1-1.2,0.5l-16.2,37.3H236.9z"/>
<g id="XMLID_310_">
	<path id="XMLID_313_" class="st1" d="M164.2,256.5H140c-6.1,0-11-4.9-11-11v-24.2c0-6.1,4.9-11,11-11h24.2c6.1,0,11,4.9,11,11v24.2
		C175.2,251.6,170.2,256.5,164.2,256.5z"/>
	<ellipse id="XMLID_312_" class="st2" cx="151.9" cy="217" rx="23.2" ry="16.7"/>
	<path id="XMLID_311_" class="st1" d="M175.1,246.4c0,9.2-10.4,16.7-23.2,16.7s-23.2-7.5-23.2-16.7c0-9.2,10.4-6.8,23.2-6.8
		S175.1,237.2,175.1,246.4z"/>
</g>
<g id="XMLID_307_">
	<ellipse id="XMLID_309_" class="st1" cx="230.2" cy="121.8" rx="16" ry="17.3"/>
	<ellipse id="XMLID_308_" class="st2" cx="230.2" cy="121.8" rx="8.9" ry="10"/>
</g>
<g id="XMLID_302_">
	<ellipse id="XMLID_304_" class="st3" cx="76" cy="124.5" rx="16" ry="17.3"/>
	<ellipse id="XMLID_303_" class="st4" cx="76" cy="124.5" rx="8.9" ry="10"/>
</g>
<ellipse id="XMLID_300_" class="st1" cx="152.2" cy="124.5" rx="80.7" ry="97.6"/>
<path id="XMLID_297_" class="st5" d="M207.6,29.5c0.7-4.8,49.2,27.9,35.2,77C221.6,180.9,206.8,34.9,207.6,29.5z"/>
<path id="XMLID_295_" class="st6" d="M63,87.6c0,0,3.3,70.1,21.6,31.4s13-67.3,13-67.3S222.7,98.2,229,60.4
	c6.3-37.9-25.2-28.9-25.2-28.9L89.5,19.9L63,87.6z"/>
<path id="XMLID_289_" class="st5" d="M67.6,116.9c0,0-23.6-39.3-9.3-95c9-35.2,113.5-2,113.5-2L158.1,9c0,0,44.3-8.2,54,20.6
	s-12.3,15.1-12.3,15.1S124.4,65,99.5,36.5S67.6,116.9,67.6,116.9z"/>
<g id="XMLID_286_">
	<circle id="XMLID_288_" class="st7" cx="124.6" cy="122.7" r="8.9"/>
	<circle id="XMLID_287_" class="st7" cx="180.4" cy="122" r="8.2"/>
</g>
<path id="XMLID_284_" class="st2" d="M162.6,153.7c0,5.8-4.7,10.5-10.5,10.5l0,0c-5.8,0-10.5-4.7-10.5-10.5v-44.1
	c0-5.8,4.7-10.5,10.5-10.5l0,0c5.8,0,10.5,4.7,10.5,10.5V153.7z"/>
<path id="XMLID_283_" class="st2" d="M173.1,148.4c0,5.2-4.2,9.4-9.4,9.4h-21c-5.2,0-9.4-4.2-9.4-9.4l0,0c0-5.2,4.2-9.4,9.4-9.4h21
	C168.8,139,173.1,143.2,173.1,148.4L173.1,148.4z"/>
<path id="XMLID_268_" class="st8" d="M174.9,174.9c0,8.2-10.2,14.9-22.9,14.9s-22.9-6.7-22.9-14.9c0-8.2,10.2,5.2,22.9,5.2
	S174.9,166.6,174.9,174.9z"/>
<path id="XMLID_267_" class="st2" d="M174.9,179.3c0,8.2-10.2,14.9-22.9,14.9s-22.9-6.7-22.9-14.9c0-8.2,10.2,5.2,22.9,5.2
	S174.9,171.1,174.9,179.3z"/>
<path id="XMLID_263_" d="M221.1,101.2h-59.8c-3,0-7.1,1.7-7.1,4.9v9.8h-6.3v-9.8c0-3.1-0.5-4.9-3.5-4.9H84.5c-3,0-5.9,1.7-5.9,4.9
	v32.1c0,3.1,2.9,5,5.9,5h59.8c3,0,3.5-1.9,3.5-5v-16h6.3v16c0,3.1,4,5,7.1,5h59.8c3,0,4.5-1.9,4.5-5v-32.1
	C225.5,102.9,224.1,101.2,221.1,101.2z M143.7,134.6c0,3.1-1.2,6.5-4.2,6.5H88.7c-3,0-5.9-3.4-5.9-6.5v-23.1c0-3.1,2.9-6.1,5.9-6.1
	h50.7c3,0,4.2,2.9,4.2,6.1V134.6z M221.3,134.6c0,3.1-2.2,6.5-5.2,6.5h-50.7c-3,0-7.1-3.4-7.1-6.5v-23.1c0-3.1,4-6.1,7.1-6.1h50.7
	c3,0,5.2,2.9,5.2,6.1V134.6z"/>
</svg>
