<?xml version="1.0" encoding="utf-8"?>
<!-- Generator: Adobe Illustrator 19.0.0, SVG Export Plug-In . SVG Version: 6.00 Build 0)  -->
<svg version="1.1" id="Layer_1" xmlns="http://www.w3.org/2000/svg" xmlns:xlink="http://www.w3.org/1999/xlink" x="0px" y="0px"
	 viewBox="0 0 387.7 474" style="enable-background:new 0 0 387.7 474;" xml:space="preserve">
<style type="text/css">
	.st0{fill:#9855D4;}
	.st1{font-family:'HelvNeueBoldforIBM';}
	.st2{font-size:159.252px;}
	.st3{font-size:27.9181px;}
	.st4{fill:#008571;}
	.st5{font-size:93.826px;}
	.st6{font-size:16.0794px;}
	.st7{fill:#4178BE;}
	.st8{font-size:99.93px;}
	.st9{font-size:15.6081px;}
	.st10{fill:#FFFFFF;}
	.st11{font-size:125.0193px;}
	.st12{font-size:26.7601px;}
</style>
<g id="XMLID_8_">
	<text id="XMLID_1_" transform="matrix(1 0 0 1 18.9856 294.0878)" class="st0 st1 st2">200x</text>
	<text id="XMLID_2_" transform="matrix(1 0 0 1 21.4911 329.3143)" class="st0 st1 st3">more frequent deployments</text>
</g>
<text id="XMLID_3_" transform="matrix(1 0 0 1 23.5836 418.4139)" class="st4 st1 st5">24x</text>
<text id="XMLID_4_" transform="matrix(1 0 0 1 46.5387 439.2196)"><tspan x="0" y="0" class="st4 st1 st6">faster recover </tspan><tspan x="11.4" y="19.3" class="st4 st1 st6">from failure</tspan></text>
<text id="XMLID_5_" transform="matrix(1 0 0 1 264.0526 420.367)" class="st7 st1 st8">3x</text>
<text id="XMLID_6_" transform="matrix(1 0 0 1 271.0511 439.3514)"><tspan x="0" y="0" class="st7 st1 st9">lower change </tspan><tspan x="9.9" y="18.7" class="st7 st1 st9">failure rate</tspan></text>
<rect id="XMLID_10_" class="st0" width="387.7" height="169.8"/>
<text id="XMLID_7_" transform="matrix(1 0 0 1 17.7028 120.75)" class="st10 st1 st11">2555x</text>
<text id="XMLID_9_" transform="matrix(1 0 0 1 81.7848 154.7448)" class="st10 st1 st12">shorter lead times</text>
</svg>
